<svg width="18" height="18" viewBox="0 0 18 18" fill="none" xmlns="http://www.w3.org/2000/svg">
<g id="solar:figma-linear">
<g id="Group">
<path id="Vector" d="M6.50025 6.50025C5.83717 6.50025 5.20126 6.23684 4.73239 5.76798C4.26353 5.29912 4.00012 4.6632 4.00012 4.00012C4.00012 3.33705 4.26353 2.70113 4.73239 2.23227C5.20126 1.76341 5.83717 1.5 6.50025 1.5H9V6.50025M6.50025 6.50025H9M6.50025 6.50025C5.83727 6.50025 5.20145 6.76362 4.73266 7.23241C4.26386 7.7012 4.0005 8.33703 4.0005 9C4.0005 9.66297 4.26386 10.2988 4.73266 10.7676C5.20145 11.2364 5.83727 11.4998 6.50025 11.4998H9V6.50025" stroke="#6CC832"/>
<path id="Vector_2" d="M14.0002 9.00012C14.0002 9.6632 13.7368 10.2991 13.268 10.768C12.7991 11.2368 12.1632 11.5002 11.5001 11.5002C10.837 11.5002 10.2011 11.2368 9.73226 10.768C9.2634 10.2991 8.99999 9.6632 8.99999 9.00012C8.99999 8.33705 9.2634 7.70113 9.73226 7.23227C10.2011 6.76341 10.837 6.5 11.5001 6.5C12.1632 6.5 12.7991 6.76341 13.268 7.23227C13.7368 7.70113 14.0002 8.33705 14.0002 9.00012ZM6.50024 11.5006H8.99999V14.0004C8.99984 14.4947 8.85311 14.978 8.57834 15.389C8.30358 15.7999 7.91312 16.1202 7.45633 16.3093C6.99955 16.4984 6.49696 16.5478 6.0121 16.4513C5.52725 16.3547 5.08191 16.1166 4.73238 15.767C4.38286 15.4173 4.14486 14.9719 4.04847 14.487C3.95207 14.0021 4.00162 13.4996 4.19084 13.0428C4.38007 12.5861 4.70047 12.1957 5.11153 11.9211C5.5226 11.6465 6.00587 11.5006 6.50024 11.5006Z" stroke="#6CC832"/>
<path id="Vector_3" d="M9 1.5H11.4998C12.1628 1.5 12.7987 1.76341 13.2676 2.23227C13.7365 2.70113 13.9999 3.33705 13.9999 4.00013C13.9999 4.6632 13.7365 5.29912 13.2676 5.76798C12.7987 6.23685 12.1628 6.50025 11.4998 6.50025H9V1.5Z" stroke="#6CC832"/>
</g>
</g>
</svg>
