<svg width="18" height="18" viewBox="0 0 18 18" fill="none" xmlns="http://www.w3.org/2000/svg">
<g clip-path="url(#clip0_350_6)">
<path fill-rule="evenodd" clip-rule="evenodd" d="M9.01125 9.53156L8.71369 10.4541H8.27044L9.01125 8.14387V4.46906H13.1423L12.3564 13.1259L9.01125 14.0271V9.53156ZM9 18C4.02919 18 0 13.9708 0 9C0 4.02919 4.02919 0 9 0C13.9708 0 18 4.02919 18 9C18 13.9708 13.9708 18 9 18ZM4.85775 13.7638L8.98875 14.9062L13.1423 13.7638L14.0625 3.65625H3.9375L4.85775 13.7638ZM7.76194 9.94275L5.77856 9.13725V8.80425L7.76194 7.99819V8.41556L6.37312 8.97244L7.7625 9.52594L7.76194 9.94275ZM12.2243 9.13725V8.80425L10.2403 7.99819V8.41556L11.6297 8.97075L10.2403 9.52594V9.94275L12.2243 9.13725ZM9.01125 9.53156L9.63 7.61119H9.18225L9.01125 8.14387V9.53156Z" fill="#6CC832"/>
</g>
<defs>
<clipPath id="clip0_350_6">
<rect width="18" height="18" fill="white"/>
</clipPath>
</defs>
</svg>
