<svg width="250" height="194" viewBox="0 0 250 194" fill="none" xmlns="http://www.w3.org/2000/svg">
<path d="M221.96 137.5H131.605C130.828 137.499 130.084 137.189 129.535 136.64C128.985 136.091 128.676 135.347 128.675 134.57V2.92988C128.678 2.15407 128.987 1.41086 129.536 0.862747C130.085 0.314631 130.829 0.00619998 131.605 0.00488281H221.96C222.736 0.00619998 223.48 0.314631 224.029 0.862747C224.578 1.41086 224.887 2.15407 224.89 2.92988V134.57C224.889 135.347 224.58 136.091 224.03 136.64C223.481 137.189 222.737 137.499 221.96 137.5ZM131.605 0.129883C131.235 0.127247 130.869 0.197687 130.527 0.337158C130.184 0.476629 129.873 0.68238 129.61 0.942581C129.348 1.20278 129.139 1.5123 128.997 1.85335C128.854 2.1944 128.781 2.56026 128.78 2.92988V134.57C128.78 135.314 129.076 136.027 129.602 136.553C130.128 137.079 130.841 137.375 131.585 137.375H221.96C222.704 137.375 223.417 137.079 223.943 136.553C224.47 136.027 224.765 135.314 224.765 134.57V2.92988C224.765 2.18595 224.47 1.47249 223.943 0.946449C223.417 0.42041 222.704 0.124882 221.96 0.124882L131.605 0.129883Z" fill="#E0E0E0"/>
<path d="M117.745 137.5H27.3699C26.5933 137.499 25.8488 137.19 25.2996 136.64C24.7504 136.091 24.4413 135.347 24.4399 134.57V2.93C24.4413 2.15332 24.7504 1.40883 25.2996 0.859638C25.8488 0.310443 26.5933 0.00132201 27.3699 0H117.745C118.522 0.00132201 119.266 0.310443 119.815 0.859638C120.365 1.40883 120.674 2.15332 120.675 2.93V134.57C120.674 135.347 120.365 136.091 119.815 136.64C119.266 137.19 118.522 137.499 117.745 137.5ZM27.3699 0.130001C26.6269 0.13 25.9142 0.42484 25.3883 0.949799C24.8624 1.47476 24.5663 2.18693 24.5649 2.93V134.57C24.5649 135.314 24.8605 136.027 25.3865 136.553C25.9125 137.079 26.626 137.375 27.3699 137.375H117.745C118.489 137.375 119.202 137.079 119.728 136.553C120.254 136.027 120.55 135.314 120.55 134.57V2.93C120.55 2.18607 120.254 1.47261 119.728 0.946568C119.202 0.420528 118.489 0.125 117.745 0.125L27.3699 0.130001Z" fill="#E0E0E0"/>
<path d="M250 168.035H0V168.16H250V168.035Z" fill="#E0E0E0"/>
<path d="M110.84 98.5601V13.41L76.0701 13.41V98.5601H110.84Z" fill="#E0E0E0"/>
<path d="M108.93 15.3151H77.9751V96.6451H108.93V15.3151Z" fill="#F0F0F0"/>
<path d="M108.93 15.3151V19.4501L77.9751 50.4001V42.1201L104.785 15.3151H108.93Z" fill="#FAFAFA"/>
<path d="M108.93 40.8301V52.9501L77.9751 83.9001V71.7851L108.93 40.8301Z" fill="#FAFAFA"/>
<path d="M95.1351 13.405H92.8301V98.5551H95.1351V13.405Z" fill="#E0E0E0"/>
<path d="M171.195 98.5551V13.405L136.425 13.405V98.5551H171.195Z" fill="#E0E0E0"/>
<path d="M169.29 15.3151H138.335V96.6451H169.29V15.3151Z" fill="#F0F0F0"/>
<path d="M169.29 15.3151V19.4501L138.335 50.4001V42.1201L165.145 15.3151H169.29Z" fill="#FAFAFA"/>
<path d="M169.29 40.8301V52.9501L138.335 83.9001V71.7851L169.29 40.8301Z" fill="#FAFAFA"/>
<path d="M155.49 13.405H153.185V98.5551H155.49V13.405Z" fill="#E0E0E0"/>
<path d="M50.5851 32.9801C56.2377 32.9801 60.8201 28.3977 60.8201 22.7451C60.8201 17.0924 56.2377 12.5101 50.5851 12.5101C44.9325 12.5101 40.3501 17.0924 40.3501 22.7451C40.3501 28.3977 44.9325 32.9801 50.5851 32.9801Z" fill="#E0E0E0"/>
<path d="M59.7741 24.8762C60.9509 19.8028 57.7922 14.736 52.7189 13.5592C47.6456 12.3823 42.5788 15.541 41.4019 20.6143C40.225 25.6877 43.3837 30.7545 48.4571 31.9313C53.5304 33.1082 58.5972 29.9495 59.7741 24.8762Z" fill="#FAFAFA"/>
<path d="M50.615 14.17H50.26V16.135H50.615V14.17Z" fill="#E0E0E0"/>
<path d="M50.615 29.2999H50.26V31.2649H50.615V29.2999Z" fill="#E0E0E0"/>
<path d="M43.85 22.54H41.885V22.895H43.85V22.54Z" fill="#E0E0E0"/>
<path d="M58.9801 22.54H57.0151V22.895H58.9801V22.54Z" fill="#E0E0E0"/>
<path d="M56.3543 16.5529L54.9648 17.9424L55.2159 18.1934L56.6053 16.8039L56.3543 16.5529Z" fill="#E0E0E0"/>
<path d="M45.659 27.2404L44.27 28.6304L44.5211 28.8813L45.9101 27.4914L45.659 27.2404Z" fill="#E0E0E0"/>
<path d="M44.5159 16.5496L44.2649 16.8007L45.6546 18.1899L45.9056 17.9388L44.5159 16.5496Z" fill="#E0E0E0"/>
<path d="M55.2125 27.2552L54.9614 27.5062L56.3507 28.8959L56.6017 28.645L55.2125 27.2552Z" fill="#E0E0E0"/>
<path d="M50.366 22.4842L50.2561 22.7634L53.5919 24.0767L53.7018 23.7975L50.366 22.4842Z" fill="#E0E0E0"/>
<path d="M50.585 22.87H45.085V22.565H50.285V18.3H50.585V22.87Z" fill="#E0E0E0"/>
<path d="M179.11 24.9449L178.81 24.4699L196.305 13.4449L213.375 24.7149L213.065 25.1849L196.3 14.1149L179.11 24.9449Z" fill="#E6E6E6"/>
<path d="M213.75 24.4949H178.51V46.5349H213.75V24.4949Z" fill="#E0E0E0"/>
<path d="M212.77 45.565V25.475L179.485 25.475V45.565H212.77Z" fill="white"/>
<path d="M184.215 31.77H182.09V33.895H184.215V31.77Z" fill="#F5F5F5"/>
<path d="M187.495 31.77H185.37V33.895H187.495V31.77Z" fill="#F5F5F5"/>
<path d="M190.77 31.77H188.645V33.895H190.77V31.77Z" fill="#F5F5F5"/>
<path d="M194.05 31.77H191.925V33.895H194.05V31.77Z" fill="#F5F5F5"/>
<path d="M197.33 31.77H195.205V33.895H197.33V31.77Z" fill="#F5F5F5"/>
<path d="M200.61 31.77H198.485V33.895H200.61V31.77Z" fill="#F5F5F5"/>
<path d="M203.885 31.77H201.76V33.895H203.885V31.77Z" fill="#F5F5F5"/>
<path d="M207.165 31.77H205.04V33.895H207.165V31.77Z" fill="#F5F5F5"/>
<path d="M210.445 31.77H208.32V33.895H210.445V31.77Z" fill="#F5F5F5"/>
<path d="M184.215 34.7H182.09V36.825H184.215V34.7Z" fill="#F5F5F5"/>
<path d="M187.495 34.7H185.37V36.825H187.495V34.7Z" fill="#F5F5F5"/>
<path d="M190.77 34.7H188.645V36.825H190.77V34.7Z" fill="#F5F5F5"/>
<path d="M194.05 34.7H191.925V36.825H194.05V34.7Z" fill="#F5F5F5"/>
<path d="M197.33 34.7H195.205V36.825H197.33V34.7Z" fill="#F5F5F5"/>
<path d="M200.61 34.7H198.485V36.825H200.61V34.7Z" fill="#F5F5F5"/>
<path d="M203.885 34.7H201.76V36.825H203.885V34.7Z" fill="#F5F5F5"/>
<path d="M207.165 34.7H205.04V36.825H207.165V34.7Z" fill="#F5F5F5"/>
<path d="M210.445 34.7H208.32V36.825H210.445V34.7Z" fill="#F5F5F5"/>
<path d="M184.215 37.625H182.09V39.75H184.215V37.625Z" fill="#F5F5F5"/>
<path d="M187.495 37.625H185.37V39.75H187.495V37.625Z" fill="#F5F5F5"/>
<path d="M190.77 37.625H188.645V39.75H190.77V37.625Z" fill="#F5F5F5"/>
<path d="M194.05 37.625H191.925V39.75H194.05V37.625Z" fill="#F5F5F5"/>
<path d="M197.33 37.625H195.205V39.75H197.33V37.625Z" fill="#F5F5F5"/>
<path d="M200.61 37.625H198.485V39.75H200.61V37.625Z" fill="#F5F5F5"/>
<path d="M203.885 37.625H201.76V39.75H203.885V37.625Z" fill="#F5F5F5"/>
<path d="M207.165 37.625H205.04V39.75H207.165V37.625Z" fill="#F5F5F5"/>
<path d="M210.445 37.625H208.32V39.75H210.445V37.625Z" fill="#F5F5F5"/>
<path d="M184.215 40.775H182.09V42.9H184.215V40.775Z" fill="#F5F5F5"/>
<path d="M187.495 40.775H185.37V42.9H187.495V40.775Z" fill="#F5F5F5"/>
<path d="M190.77 40.775H188.645V42.9H190.77V40.775Z" fill="#F5F5F5"/>
<path d="M194.05 40.775H191.925V42.9H194.05V40.775Z" fill="#F5F5F5"/>
<path d="M205.73 27.4401H186.81V29.2801H205.73V27.4401Z" fill="#E0E0E0"/>
<path d="M197.43 13.6451C197.43 13.8567 197.367 14.0636 197.25 14.2395C197.132 14.4155 196.965 14.5526 196.77 14.6336C196.574 14.7146 196.359 14.7358 196.151 14.6945C195.944 14.6532 195.753 14.5513 195.603 14.4017C195.454 14.252 195.352 14.0614 195.311 13.8538C195.269 13.6463 195.29 13.4311 195.371 13.2356C195.452 13.0401 195.59 12.873 195.766 12.7554C195.942 12.6378 196.148 12.5751 196.36 12.5751C196.644 12.5751 196.916 12.6878 197.117 12.8885C197.317 13.0891 197.43 13.3613 197.43 13.6451Z" fill="#E0E0E0"/>
<path d="M231.73 190.15C231.73 191.84 184.97 193.215 127.295 193.215C69.62 193.215 22.855 191.84 22.855 190.15C22.855 188.46 69.605 187.08 127.295 187.08C184.985 187.08 231.73 188.455 231.73 190.15Z" fill="#F5F5F5"/>
<path d="M36.4901 80.9299L37.9451 80.5099L37.0201 77.2799L35.3351 77.7799C34.8552 77.2338 34.2518 76.8104 33.5751 76.5449V74.8449H30.2151V76.5449C29.6876 76.7486 29.2027 77.0487 28.7851 77.4299L27.2851 76.7099L25.8101 79.7099L27.2851 80.4299C27.2851 80.5549 27.2851 80.6749 27.2851 80.7999C27.2859 81.5842 27.4873 82.3553 27.8701 83.0399L26.7701 84.4299L29.3951 86.5299L30.4701 85.1799C30.9304 85.3287 31.4112 85.4046 31.8951 85.4049C32.2485 85.406 32.6009 85.3657 32.9451 85.2849L33.9151 86.6499L36.6551 84.7049L35.7101 83.3699C36.201 82.6493 36.4719 81.8016 36.4901 80.9299ZM28.8701 80.8099C28.8701 80.2166 29.046 79.6365 29.3757 79.1432C29.7053 78.6498 30.1738 78.2653 30.722 78.0383C31.2702 77.8112 31.8734 77.7518 32.4553 77.8676C33.0373 77.9833 33.5718 78.269 33.9914 78.6886C34.4109 79.1081 34.6967 79.6427 34.8124 80.2246C34.9282 80.8066 34.8688 81.4098 34.6417 81.958C34.4146 82.5061 34.0301 82.9747 33.5368 83.3043C33.0434 83.634 32.4634 83.8099 31.8701 83.8099C31.0794 83.8022 30.3231 83.4857 29.7626 82.9279C29.2021 82.3702 28.8818 81.6155 28.8701 80.8249V80.8099Z" fill="#6CC832"/>
<path opacity="0.6" d="M36.4901 80.9299L37.9451 80.5099L37.0201 77.2799L35.3351 77.7799C34.8552 77.2338 34.2518 76.8104 33.5751 76.5449V74.8449H30.2151V76.5449C29.6876 76.7486 29.2027 77.0487 28.7851 77.4299L27.2851 76.7099L25.8101 79.7099L27.2851 80.4299C27.2851 80.5549 27.2851 80.6749 27.2851 80.7999C27.2859 81.5842 27.4873 82.3553 27.8701 83.0399L26.7701 84.4299L29.3951 86.5299L30.4701 85.1799C30.9304 85.3287 31.4112 85.4046 31.8951 85.4049C32.2485 85.406 32.6009 85.3657 32.9451 85.2849L33.9151 86.6499L36.6551 84.7049L35.7101 83.3699C36.201 82.6493 36.4719 81.8016 36.4901 80.9299ZM28.8701 80.8099C28.8701 80.2166 29.046 79.6365 29.3757 79.1432C29.7053 78.6498 30.1738 78.2653 30.722 78.0383C31.2702 77.8112 31.8734 77.7518 32.4553 77.8676C33.0373 77.9833 33.5718 78.269 33.9914 78.6886C34.4109 79.1081 34.6967 79.6427 34.8124 80.2246C34.9282 80.8066 34.8688 81.4098 34.6417 81.958C34.4146 82.5061 34.0301 82.9747 33.5368 83.3043C33.0434 83.634 32.4634 83.8099 31.8701 83.8099C31.0794 83.8022 30.3231 83.4857 29.7626 82.9279C29.2021 82.3702 28.8818 81.6155 28.8701 80.8249V80.8099Z" fill="white"/>
<path d="M229.365 28.155L230.82 27.735L229.895 24.505L228.215 25.005C227.732 24.4618 227.127 24.0404 226.45 23.775V22.075H223.105V23.775C222.577 23.9802 222.092 24.282 221.675 24.665L220.185 23.93L218.685 26.93L220.185 27.65C220.185 27.775 220.185 27.895 220.185 28.02C220.186 28.8043 220.387 29.5754 220.77 30.26L219.665 31.645L222.29 33.745L223.365 32.395C223.825 32.5438 224.306 32.6197 224.79 32.62C225.145 32.6211 225.499 32.5808 225.845 32.5L226.81 33.865L229.55 31.915L228.605 30.595C229.089 29.8722 229.353 29.0247 229.365 28.155ZM221.75 28.035C221.75 27.4417 221.926 26.8616 222.256 26.3683C222.585 25.875 223.054 25.4904 223.602 25.2634C224.15 25.0363 224.753 24.9769 225.335 25.0927C225.917 25.2084 226.452 25.4941 226.871 25.9137C227.291 26.3333 227.577 26.8678 227.692 27.4497C227.808 28.0317 227.749 28.6349 227.522 29.1831C227.295 29.7312 226.91 30.1998 226.417 30.5294C225.923 30.8591 225.343 31.035 224.75 31.035C223.954 31.035 223.191 30.7189 222.629 30.1563C222.066 29.5937 221.75 28.8307 221.75 28.035Z" fill="#6CC832"/>
<path opacity="0.6" d="M229.365 28.155L230.82 27.735L229.895 24.505L228.215 25.005C227.732 24.4618 227.127 24.0404 226.45 23.775V22.075H223.105V23.775C222.577 23.9802 222.092 24.282 221.675 24.665L220.185 23.93L218.685 26.93L220.185 27.65C220.185 27.775 220.185 27.895 220.185 28.02C220.186 28.8043 220.387 29.5754 220.77 30.26L219.665 31.645L222.29 33.745L223.365 32.395C223.825 32.5438 224.306 32.6197 224.79 32.62C225.145 32.6211 225.499 32.5808 225.845 32.5L226.81 33.865L229.55 31.915L228.605 30.595C229.089 29.8722 229.353 29.0247 229.365 28.155ZM221.75 28.035C221.75 27.4417 221.926 26.8616 222.256 26.3683C222.585 25.875 223.054 25.4904 223.602 25.2634C224.15 25.0363 224.753 24.9769 225.335 25.0927C225.917 25.2084 226.452 25.4941 226.871 25.9137C227.291 26.3333 227.577 26.8678 227.692 27.4497C227.808 28.0317 227.749 28.6349 227.522 29.1831C227.295 29.7312 226.91 30.1998 226.417 30.5294C225.923 30.8591 225.343 31.035 224.75 31.035C223.954 31.035 223.191 30.7189 222.629 30.1563C222.066 29.5937 221.75 28.8307 221.75 28.035Z" fill="white"/>
<path d="M48.4401 63.46C47.5668 63.4605 46.698 63.3359 45.8601 63.09C45.8364 63.0837 45.8142 63.0727 45.795 63.0575C45.7757 63.0424 45.7597 63.0235 45.748 63.0019C45.7363 62.9804 45.7291 62.9567 45.7269 62.9323C45.7247 62.9079 45.7275 62.8833 45.7351 62.86C45.7414 62.8362 45.7525 62.8139 45.7675 62.7945C45.7826 62.775 45.8014 62.7588 45.8228 62.7467C45.8442 62.7346 45.8678 62.7269 45.8923 62.724C45.9167 62.7211 45.9414 62.7232 45.9651 62.73C46.7672 62.9656 47.599 63.0852 48.4351 63.085C48.487 63.0848 48.5369 63.1044 48.575 63.1396C48.613 63.1749 48.6363 63.2232 48.6401 63.275C48.6421 63.2981 48.6394 63.3214 48.6321 63.3435C48.6248 63.3655 48.6131 63.3859 48.5976 63.4032C48.5822 63.4205 48.5633 63.4345 48.5422 63.4443C48.5212 63.454 48.4983 63.4594 48.4751 63.46V63.275L48.4401 63.46ZM50.9951 63.09C50.9546 63.0896 50.9153 63.0763 50.883 63.052C50.8506 63.0277 50.8268 62.9937 50.8151 62.955C50.8075 62.9317 50.8047 62.9071 50.8069 62.8827C50.8091 62.8583 50.8163 62.8346 50.828 62.813C50.8397 62.7915 50.8557 62.7726 50.875 62.7574C50.8942 62.7423 50.9164 62.7312 50.9401 62.725C51.7411 62.4843 52.5038 62.1308 53.2051 61.675C53.247 61.6483 53.2977 61.6392 53.3463 61.6495C53.3949 61.6597 53.4375 61.6886 53.4651 61.73C53.4917 61.7719 53.5009 61.8226 53.4906 61.8712C53.4803 61.9198 53.4514 61.9624 53.4101 61.99C52.6796 62.4643 51.8848 62.8314 51.0501 63.08L50.9951 63.09ZM43.6051 62.04C43.5695 62.0401 43.5347 62.0296 43.5051 62.01C42.7716 61.537 42.1084 60.963 41.5351 60.305C41.5006 60.2695 41.4813 60.222 41.4813 60.1725C41.4813 60.123 41.5006 60.0754 41.5351 60.04C41.5523 60.0223 41.5729 60.0082 41.5957 59.9986C41.6184 59.989 41.6429 59.9841 41.6676 59.9841C41.6923 59.9841 41.7167 59.989 41.7395 59.9986C41.7622 60.0082 41.7828 60.0223 41.8001 60.04C42.3499 60.6694 42.9843 61.2196 43.6851 61.675C43.7063 61.6873 43.7248 61.7038 43.7394 61.7235C43.7541 61.7432 43.7645 61.7656 43.7701 61.7895C43.7757 61.8134 43.7764 61.8382 43.7721 61.8623C43.7678 61.8865 43.7586 61.9095 43.7451 61.93C43.7325 61.9584 43.7132 61.9832 43.6888 62.0024C43.6644 62.0216 43.6356 62.0345 43.6051 62.04ZM55.2401 60.34C55.1944 60.3405 55.15 60.3245 55.1151 60.295C55.0806 60.2595 55.0613 60.212 55.0613 60.1625C55.0613 60.113 55.0806 60.0654 55.1151 60.03C55.6622 59.3984 56.1152 58.6911 56.4601 57.93C56.4835 57.889 56.5213 57.8582 56.5662 57.8436C56.6111 57.829 56.6599 57.8316 56.7029 57.8509C56.746 57.8703 56.7803 57.905 56.7992 57.9482C56.8181 57.9915 56.8202 58.0402 56.8051 58.085C56.443 58.8779 55.97 59.6153 55.4001 60.275C55.3804 60.3004 55.3542 60.3198 55.3242 60.3313C55.2942 60.3428 55.2617 60.3458 55.2301 60.34H55.2401ZM40.2951 58.225C40.2591 58.2251 40.2239 58.2148 40.1937 58.1953C40.1635 58.1758 40.1397 58.1478 40.1251 58.115C39.7601 57.3217 39.5125 56.4796 39.3901 55.615C39.3866 55.5906 39.3879 55.5659 39.3941 55.5421C39.4003 55.5183 39.4111 55.496 39.426 55.4764C39.4409 55.4569 39.4596 55.4405 39.4809 55.4282C39.5022 55.4159 39.5257 55.408 39.5501 55.405C39.5741 55.4007 39.5988 55.4014 39.6226 55.407C39.6463 55.4125 39.6687 55.4229 39.6884 55.4374C39.708 55.4519 39.7245 55.4702 39.7368 55.4913C39.7492 55.5124 39.7571 55.5357 39.7601 55.56C39.8785 56.3881 40.116 57.1948 40.4651 57.955C40.476 57.9772 40.4823 58.0015 40.4837 58.0262C40.485 58.0509 40.4814 58.0757 40.473 58.099C40.4646 58.1223 40.4516 58.1437 40.4348 58.1619C40.418 58.1801 40.3977 58.1948 40.3751 58.205C40.3468 58.2178 40.3161 58.2246 40.2851 58.225H40.2951ZM57.3251 55.725C57.2754 55.7176 57.2307 55.6908 57.2007 55.6505C57.1707 55.6102 57.1579 55.5597 57.1651 55.51C57.2855 54.681 57.2855 53.839 57.1651 53.01C57.1616 52.9857 57.1629 52.9609 57.1691 52.9371C57.1753 52.9133 57.1861 52.891 57.201 52.8714C57.2159 52.8519 57.2346 52.8355 57.2559 52.8232C57.2772 52.8109 57.3007 52.803 57.3251 52.8C57.3735 52.7928 57.4227 52.8051 57.4621 52.8341C57.5014 52.8632 57.5277 52.9066 57.5351 52.955C57.6614 53.8187 57.6614 54.6962 57.5351 55.56C57.5347 55.5872 57.5285 55.6141 57.5168 55.6388C57.5051 55.6634 57.4883 55.6852 57.4674 55.7028C57.4465 55.7203 57.4221 55.7332 57.3958 55.7405C57.3696 55.7477 57.342 55.7493 57.3151 55.745L57.3251 55.725ZM39.5701 53.225C39.5214 53.2175 39.4775 53.1915 39.4477 53.1523C39.4178 53.1131 39.4043 53.0639 39.4101 53.015C39.5339 52.1507 39.7814 51.3087 40.1451 50.515C40.1548 50.4926 40.1689 50.4723 40.1866 50.4554C40.2042 50.4385 40.225 50.4253 40.2478 50.4164C40.2706 50.4076 40.2949 50.4034 40.3193 50.404C40.3437 50.4046 40.3678 50.41 40.3901 50.42C40.4348 50.4417 40.4695 50.4797 40.4872 50.5261C40.5049 50.5726 40.5041 50.624 40.4851 50.67C40.1352 51.4295 39.8993 52.2366 39.7851 53.065C39.7821 53.091 39.7738 53.1162 39.7606 53.1388C39.7475 53.1615 39.7298 53.1812 39.7087 53.1967C39.6875 53.2122 39.6634 53.2231 39.6379 53.2289C39.6123 53.2346 39.5858 53.235 39.5601 53.23L39.5701 53.225ZM56.5701 50.75C56.5344 50.749 56.4997 50.7382 56.4697 50.7188C56.4397 50.6994 56.4156 50.6721 56.4001 50.64C56.0509 49.8793 55.5928 49.1735 55.0401 48.545C55.0056 48.5095 54.9863 48.462 54.9863 48.4125C54.9863 48.363 55.0056 48.3154 55.0401 48.28C55.0573 48.2623 55.0779 48.2482 55.1007 48.2386C55.1234 48.229 55.1479 48.2241 55.1726 48.2241C55.1973 48.2241 55.2217 48.229 55.2445 48.2386C55.2672 48.2482 55.2878 48.2623 55.3051 48.28C55.879 48.9349 56.3556 49.6691 56.7201 50.46C56.7407 50.5051 56.7429 50.5566 56.7261 50.6033C56.7092 50.6501 56.6748 50.6883 56.6301 50.71C56.6234 50.7258 56.615 50.7409 56.6051 50.755L56.5701 50.75ZM41.6551 48.64C41.6111 48.6393 41.5687 48.6234 41.5351 48.595C41.5174 48.5777 41.5033 48.5571 41.4937 48.5344C41.4841 48.5116 41.4792 48.4872 41.4792 48.4625C41.4792 48.4378 41.4841 48.4133 41.4937 48.3906C41.5033 48.3678 41.5174 48.3472 41.5351 48.33C42.1054 47.6694 42.7671 47.0936 43.5001 46.62C43.542 46.5933 43.5927 46.5842 43.6413 46.5945C43.6899 46.6047 43.7325 46.6336 43.7601 46.675C43.7737 46.6958 43.783 46.7192 43.7874 46.7438C43.7917 46.7683 43.7911 46.7935 43.7855 46.8178C43.7799 46.842 43.7694 46.8649 43.7547 46.8851C43.7401 46.9052 43.7215 46.9222 43.7001 46.935C42.9986 47.3894 42.3655 47.9416 41.8201 48.575C41.8002 48.5988 41.7747 48.6172 41.7459 48.6285C41.7171 48.6399 41.6858 48.6438 41.6551 48.64ZM53.2651 46.93C53.2285 46.9312 53.1922 46.9225 53.1601 46.905C52.4581 46.4508 51.6933 46.1021 50.8901 45.87C50.8426 45.855 50.8029 45.822 50.7796 45.778C50.7562 45.7341 50.751 45.6827 50.7651 45.635C50.7714 45.6113 50.7824 45.5891 50.7975 45.5698C50.8127 45.5506 50.8316 45.5346 50.8531 45.5229C50.8747 45.5112 50.8984 45.504 50.9228 45.5018C50.9472 45.4996 50.9718 45.5024 50.9951 45.51C51.8327 45.7523 52.631 46.1143 53.3651 46.585C53.4064 46.6125 53.4353 46.6552 53.4456 46.7038C53.4559 46.7524 53.4467 46.8031 53.4201 46.845C53.4034 46.871 53.3805 46.8923 53.3534 46.9072C53.3263 46.922 53.296 46.9299 53.2651 46.93ZM45.8951 45.885C45.849 45.887 45.8039 45.8717 45.7685 45.8422C45.7331 45.8126 45.71 45.7709 45.7038 45.7253C45.6975 45.6796 45.7085 45.6332 45.7347 45.5953C45.7608 45.5573 45.8002 45.5304 45.8451 45.52C46.6805 45.2697 47.548 45.1434 48.4201 45.145C48.4646 45.1523 48.505 45.1751 48.5342 45.2095C48.5633 45.2438 48.5794 45.2874 48.5794 45.3325C48.5794 45.3775 48.5633 45.4211 48.5342 45.4555C48.505 45.4898 48.4646 45.5127 48.4201 45.52C47.5836 45.519 46.7515 45.6403 45.9501 45.88L45.8951 45.885Z" fill="#6CC832"/>
<path d="M48.435 61.7749C52.5578 61.7749 55.9 58.4327 55.9 54.3099C55.9 50.1871 52.5578 46.8449 48.435 46.8449C44.3122 46.8449 40.97 50.1871 40.97 54.3099C40.97 58.4327 44.3122 61.7749 48.435 61.7749Z" fill="#6CC832"/>
<path d="M47.14 57.5499C47.0727 57.5477 47.0066 57.5319 46.9456 57.5036C46.8846 57.4752 46.83 57.4349 46.785 57.3849L44.535 54.8849C44.4551 54.7855 44.4163 54.6593 44.4264 54.5323C44.4365 54.4052 44.4947 54.2867 44.5892 54.2012C44.6837 54.1156 44.8073 54.0694 44.9348 54.0719C45.0623 54.0745 45.1839 54.1256 45.2749 54.2149L47.18 56.3249L51.9949 51.6849C52.0414 51.638 52.0967 51.6008 52.1577 51.5754C52.2186 51.5501 52.2839 51.537 52.3499 51.537C52.416 51.537 52.4813 51.5501 52.5422 51.5754C52.6032 51.6008 52.6585 51.638 52.7049 51.6849C52.7981 51.7786 52.8503 51.9053 52.8503 52.0374C52.8503 52.1695 52.7981 52.2962 52.7049 52.3899L47.485 57.4299C47.3892 57.512 47.266 57.5548 47.14 57.5499Z" fill="white"/>
<path d="M101.255 68.625C101.255 68.625 86.055 76.29 81.48 95.485C78.145 109.485 79.155 135.905 85.165 138.025C91.175 140.145 91.845 123.785 91.895 117.97C91.945 112.155 97.395 105.055 102.25 104.63C102.25 104.63 103.2 73.93 101.255 68.625Z" fill="#6CC832"/>
<path opacity="0.2" d="M103.53 72.4301C99.935 73.8001 96.98 76.4301 94.585 79.3701C92.0351 82.6058 89.9375 86.1735 88.35 89.9751C86.5894 94.0363 85.3058 98.288 84.525 102.645C83.7953 107.235 83.4391 111.877 83.46 116.525C83.38 122.21 83.24 128.13 85.46 133.49C85.545 133.705 85.9 133.61 85.81 133.395C83.89 128.725 83.775 123.625 83.81 118.65C83.85 113.955 83.92 109.24 84.585 104.585C85.775 96.3151 88.79 87.9501 93.695 81.1401C96.24 77.6101 99.505 74.3551 103.635 72.7801C103.855 72.6951 103.76 72.3451 103.54 72.4301H103.53Z" fill="black"/>
<path d="M153.33 68.625C153.33 68.625 168.53 76.29 173.105 95.485C176.44 109.485 175.43 135.905 169.42 138.025C163.41 140.145 162.74 123.785 162.69 117.97C162.64 112.155 157.19 105.055 152.335 104.63C152.335 104.63 151.385 73.93 153.33 68.625Z" fill="#6CC832"/>
<path opacity="0.2" d="M150.96 72.7751C154.575 74.1551 157.53 76.8351 159.91 79.8301C162.398 83.0417 164.443 86.5733 165.99 90.3301C167.723 94.3712 168.983 98.5993 169.745 102.93C170.54 107.49 170.7 112.125 170.745 116.745C170.82 122.33 170.94 128.125 168.775 133.39C168.69 133.605 169.04 133.7 169.125 133.485C171.07 128.755 171.17 123.575 171.125 118.535C171.085 113.78 171 109.005 170.31 104.29C169.643 99.8011 168.441 95.4082 166.73 91.2051C165.243 87.408 163.275 83.8171 160.875 80.5201C158.34 77.0851 155.105 73.9751 151.055 72.4301C150.835 72.3451 150.74 72.6951 150.96 72.7801V72.7751Z" fill="black"/>
<path d="M148.105 126.96H106.105C106.105 126.96 98.415 97.4101 101.43 64.2751C102.243 55.4946 104.472 46.9036 108.03 38.8351C108.08 38.7101 108.135 38.5851 108.19 38.4651C109.07 36.4651 109.995 34.5801 110.945 32.7851C114.676 25.7228 119.328 19.1874 124.78 13.3501C125.092 12.9942 125.477 12.7091 125.908 12.5137C126.339 12.3183 126.807 12.2173 127.28 12.2173C127.753 12.2173 128.221 12.3183 128.652 12.5137C129.083 12.7091 129.468 12.9942 129.78 13.3501C135.406 19.3744 140.18 26.1405 143.97 33.4601C144.92 35.2951 145.845 37.2301 146.72 39.2601L146.875 39.6201C150.23 47.4631 152.342 55.7814 153.135 64.2751C156.145 97.4301 148.105 126.96 148.105 126.96Z" fill="#6CC832"/>
<g opacity="0.5">
<path d="M148.105 126.96H106.105C106.105 126.96 98.415 97.4101 101.43 64.2751C102.243 55.4946 104.472 46.9036 108.03 38.8351C108.08 38.7101 108.135 38.5851 108.19 38.4651C109.07 36.4651 109.995 34.5801 110.945 32.7851C114.676 25.7228 119.328 19.1874 124.78 13.3501C125.092 12.9942 125.477 12.7091 125.908 12.5137C126.339 12.3183 126.807 12.2173 127.28 12.2173C127.753 12.2173 128.221 12.3183 128.652 12.5137C129.083 12.7091 129.468 12.9942 129.78 13.3501C135.406 19.3744 140.18 26.1405 143.97 33.4601C144.92 35.2951 145.845 37.2301 146.72 39.2601L146.875 39.6201C150.23 47.4631 152.342 55.7814 153.135 64.2751C156.145 97.4301 148.105 126.96 148.105 126.96Z" fill="white"/>
</g>
<path d="M143.46 122.75H111.965V123.23H143.46V122.75Z" fill="#6CC832"/>
<path d="M149.06 138.21H106.605C103.58 133.855 106.78 126.96 106.78 126.96H148.2C148.2 126.96 151.385 132.585 149.06 138.21Z" fill="#263238"/>
<path d="M138.335 142.16H117.105C115.605 139.98 117.195 136.535 117.195 136.535H137.905C137.905 136.535 139.495 139.345 138.335 142.16Z" fill="#263238"/>
<path d="M138.345 142.16H117.175C112.89 144.435 102.23 149.865 103.72 159.065H152.345C153.835 149.865 142.63 144.43 138.345 142.16Z" fill="#6CC832"/>
<path d="M153.81 157.12H101.895V161.125H153.81V157.12Z" fill="#263238"/>
<path d="M143.97 33.46C140.14 36.2 134.28 39.27 127.28 39.27C121.21 39.2353 115.375 36.9144 110.94 32.77C111.34 32.0133 111.743 31.2766 112.15 30.56L112.345 30.225C115.812 24.1272 119.984 18.4582 124.775 13.335C125.087 12.9791 125.471 12.6939 125.903 12.4986C126.334 12.3032 126.802 12.2021 127.275 12.2021C127.748 12.2021 128.216 12.3032 128.647 12.4986C129.078 12.6939 129.463 12.9791 129.775 13.335C134.581 18.4696 138.763 24.154 142.235 30.27L142.43 30.615C142.953 31.5383 143.467 32.4866 143.97 33.46Z" fill="#6CC832"/>
<path opacity="0.2" d="M142.435 30.63C141.206 31.5122 139.902 32.2868 138.54 32.945C133.738 35.2646 128.335 36.0401 123.075 35.165C119.132 34.4853 115.395 32.9155 112.15 30.575L112.345 30.24C113.663 31.1965 115.07 32.0252 116.545 32.715C121.339 34.9748 126.722 35.6743 131.935 34.715C135.652 34.0106 139.169 32.5002 142.24 30.29L142.435 30.63Z" fill="black"/>
<path d="M147.41 69.565C145.485 50.125 143.98 42.345 143.805 41.49C144.53 41.095 145.21 40.695 145.805 40.305C146.17 40.08 146.52 39.85 146.855 39.62L146.7 39.26C146.345 39.5 145.98 39.76 145.6 39.98C141.6 42.505 135.175 45.52 127.435 45.52C121.335 45.5234 115.381 43.6523 110.38 40.16C109.555 39.59 108.82 39.015 108.165 38.465C108.11 38.585 108.055 38.71 108.005 38.835C108.64 39.365 109.355 39.915 110.145 40.47C110.645 40.82 111.21 41.185 111.805 41.545C111.59 42.625 110.105 50.47 108.215 69.545C106.715 84.445 108.085 99.27 109.475 109.085C110.3 115.108 111.439 121.085 112.885 126.99C112.895 127.029 112.918 127.063 112.949 127.087C112.981 127.112 113.02 127.125 113.06 127.125H113.105C113.151 127.112 113.19 127.082 113.214 127.041C113.238 127 113.246 126.951 113.235 126.905C111.792 121.011 110.657 115.047 109.835 109.035C108.445 99.245 107.1 84.455 108.575 69.59C110.405 51.12 111.855 43.195 112.135 41.73C116.772 44.4811 122.064 45.932 127.455 45.93C133.055 45.8593 138.551 44.4063 143.455 41.7C143.705 42.97 145.17 50.85 147.03 69.625C148.505 84.49 147.16 99.28 145.77 109.07C144.948 115.082 143.813 121.046 142.37 126.94C142.359 126.986 142.367 127.035 142.391 127.076C142.415 127.117 142.454 127.147 142.5 127.16H142.545C142.585 127.16 142.624 127.147 142.656 127.122C142.687 127.098 142.71 127.064 142.72 127.025C144.166 121.12 145.305 115.143 146.13 109.12C147.54 99.29 148.89 84.465 147.41 69.565Z" fill="#6CC832"/>
<path d="M127.455 90.2C124.702 90.201 122.011 89.3856 119.722 87.857C117.433 86.3284 115.649 84.1552 114.595 81.6124C113.541 79.0695 113.265 76.2713 113.802 73.5715C114.339 70.8718 115.664 68.392 117.611 66.4456C119.557 64.4993 122.037 63.1739 124.736 62.6371C127.436 62.1004 130.234 62.3764 132.777 63.4302C135.32 64.484 137.493 66.2683 139.022 68.5574C140.551 70.8464 141.366 73.5374 141.365 76.29C141.361 79.9779 139.894 83.5137 137.286 86.1215C134.679 88.7292 131.143 90.196 127.455 90.2ZM127.455 62.74C124.775 62.74 122.155 63.5347 119.927 65.0236C117.699 66.5125 115.962 68.6287 114.936 71.1046C113.911 73.5806 113.642 76.305 114.165 78.9335C114.688 81.5619 115.979 83.9763 117.874 85.8713C119.769 87.7663 122.183 89.0568 124.811 89.5796C127.44 90.1025 130.164 89.8341 132.64 88.8086C135.116 87.783 137.232 86.0463 138.721 83.818C140.21 81.5897 141.005 78.9699 141.005 76.29C141.001 72.6975 139.572 69.2533 137.032 66.7131C134.492 64.1728 131.047 62.744 127.455 62.74Z" fill="#6CC832"/>
<path d="M137.99 76.285C137.99 79.0791 136.88 81.7587 134.904 83.7344C132.929 85.7101 130.249 86.82 127.455 86.82H127.21C125.427 86.7844 123.683 86.292 122.145 85.39C120.956 84.6943 119.913 83.7739 119.075 82.68C117.672 80.846 116.914 78.5994 116.92 76.29C116.921 75.8807 116.944 75.4717 116.99 75.065C117.269 72.7123 118.331 70.522 120.007 68.8467C121.682 67.1715 123.872 66.1088 126.225 65.83C126.633 65.784 127.044 65.7606 127.455 65.76C130.205 65.7631 132.844 66.84 134.811 68.7613C136.778 70.6826 137.917 73.2962 137.985 76.045C137.99 76.125 137.99 76.205 137.99 76.285Z" fill="#6CC832"/>
<path opacity="0.1" d="M133.84 67.93L119.075 82.695C117.672 80.861 116.914 78.6144 116.92 76.305C116.921 75.8957 116.944 75.4868 116.99 75.08L126.225 65.845C126.633 65.799 127.044 65.7756 127.455 65.775C129.762 65.7723 132.006 66.5297 133.84 67.93Z" fill="white"/>
<path opacity="0.1" d="M137.985 76.0401L127.21 86.8151C125.427 86.7795 123.683 86.2871 122.145 85.3851L136.55 70.9851C137.454 72.519 137.948 74.2599 137.985 76.0401Z" fill="white"/>
<path d="M124.935 168.65L123.09 171.495L118.46 178.64L116.49 181.675L111.225 189.795H109.17L114.52 178.64L116.49 174.53L117.73 171.94L119.31 168.65H124.935Z" fill="#6CC832"/>
<path opacity="0.2" d="M124.935 168.65L123.09 171.495L118.46 178.64L116.49 181.675L111.225 189.795H109.17L114.52 178.64L116.49 174.53L117.73 171.94L119.31 168.65H124.935Z" fill="black"/>
<path d="M146.95 168.65L146.355 169.57L140.475 178.64L138.505 181.675L133.24 189.795H131.19L136.535 178.64L138.505 174.53L140.66 170.04L141.325 168.65H146.95Z" fill="#6CC832"/>
<path opacity="0.2" d="M146.95 168.65L146.355 169.57L140.475 178.64L138.505 181.675L133.24 189.795H131.19L136.535 178.64L138.505 174.53L140.66 170.04L141.325 168.65H146.95Z" fill="black"/>
<path d="M149.07 161.125H105.47V168.65H149.07V161.125Z" fill="#6CC832"/>
<path opacity="0.2" d="M149.07 161.125H105.47V168.65H149.07V161.125Z" fill="white"/>
<path d="M123.81 189.795H121.755L116.49 181.675L114.52 178.64L110.565 172.535L108.045 168.65H113.67L115.345 172.135L116.49 174.53L118.46 178.64L123.81 189.795Z" fill="#6CC832"/>
<path d="M145.825 189.795H143.77L138.505 181.675L136.535 178.64L131.455 170.8L130.06 168.65H135.685L136.515 170.38L138.505 174.53L140.475 178.64L145.825 189.795Z" fill="#6CC832"/>
<path d="M196.4 67.36C194.747 70.7304 192.864 73.9831 190.765 77.095C190.375 77.65 189.985 78.19 189.585 78.7C187.545 81.325 185.405 83.245 183.71 82.79C174.275 80.26 168.315 72.29 168.315 72.29L170.085 70.29C170.085 70.29 181.465 74.725 182.355 74.64C183.245 74.555 188.855 60.515 188.855 60.515L196.4 67.36Z" fill="#6CC832"/>
<path opacity="0.2" d="M191.635 73.6551L190.765 77.0951C190.375 77.6501 189.985 78.1901 189.585 78.7001C189.539 77.6915 189.349 76.6947 189.02 75.7401C188.315 73.7851 185.745 71.3201 186.855 68.7401C187.694 66.6766 188.363 64.5478 188.855 62.3751L191.635 73.6551Z" fill="black"/>
<path opacity="0.2" d="M186.89 81.3949C186.067 80.7529 185.03 80.4505 183.991 80.5501C182.952 80.6496 181.991 81.1434 181.305 81.9299C181.145 82.1049 180.89 81.8449 181.045 81.6699C181.788 80.8257 182.823 80.2944 183.942 80.1831C185.061 80.0718 186.18 80.3886 187.075 81.0699C187.26 81.2099 187.075 81.5249 186.89 81.3849V81.3949Z" fill="black"/>
<path d="M183.85 76.2301L171.655 75.9801C171.269 75.9638 170.898 75.8274 170.593 75.5898C170.288 75.3523 170.065 75.0255 169.955 74.6551L166.15 58.6551C166.105 58.4963 166.1 58.3289 166.135 58.1678C166.171 58.0066 166.246 57.8567 166.353 57.7315C166.46 57.6062 166.597 57.5095 166.751 57.4499C166.905 57.3904 167.071 57.3698 167.235 57.3901L179.43 57.6451C179.816 57.6603 180.187 57.7957 180.492 58.0324C180.796 58.2691 181.02 58.5952 181.13 58.9651L184.935 74.9651C184.98 75.1238 184.985 75.2913 184.949 75.4524C184.914 75.6136 184.839 75.7635 184.732 75.8887C184.624 76.014 184.488 76.1107 184.334 76.1702C184.18 76.2298 184.014 76.2504 183.85 76.2301Z" fill="#263238"/>
<path opacity="0.2" d="M183.85 76.2301L171.655 75.9801C171.269 75.9638 170.898 75.8274 170.593 75.5898C170.288 75.3523 170.065 75.0255 169.955 74.6551L166.15 58.6551C166.105 58.4963 166.1 58.3289 166.135 58.1678C166.171 58.0066 166.246 57.8567 166.353 57.7315C166.46 57.6062 166.597 57.5095 166.751 57.4499C166.905 57.3904 167.071 57.3698 167.235 57.3901L179.43 57.6451C179.816 57.6603 180.187 57.7957 180.492 58.0324C180.796 58.2691 181.02 58.5952 181.13 58.9651L184.935 74.9651C184.98 75.1238 184.985 75.2913 184.949 75.4524C184.914 75.6136 184.839 75.7635 184.732 75.8887C184.624 76.014 184.488 76.1107 184.334 76.1702C184.18 76.2298 184.014 76.2504 183.85 76.2301Z" fill="white"/>
<path d="M182.605 76.2051L170.405 75.9551C170.02 75.937 169.65 75.7999 169.346 75.5625C169.043 75.3251 168.82 74.9993 168.71 74.6301L164.9 58.6301C164.855 58.4713 164.85 58.3039 164.885 58.1427C164.921 57.9816 164.996 57.8317 165.103 57.7064C165.21 57.5812 165.347 57.4845 165.501 57.4249C165.655 57.3654 165.821 57.3448 165.985 57.3651L178.185 57.6151C178.57 57.6331 178.94 57.7703 179.243 58.0076C179.547 58.245 179.769 58.5708 179.88 58.9401L183.685 74.9401C183.73 75.0984 183.735 75.2653 183.699 75.426C183.664 75.5867 183.59 75.7362 183.483 75.8613C183.376 75.9864 183.24 76.0833 183.087 76.1432C182.934 76.2032 182.768 76.2244 182.605 76.2051Z" fill="#263238"/>
<path opacity="0.2" d="M172.03 67.22C172.161 67.6869 172.435 68.101 172.814 68.4041C173.192 68.7072 173.656 68.8842 174.14 68.91C174.347 68.931 174.556 68.9007 174.748 68.8218C174.94 68.743 175.11 68.6179 175.243 68.4578C175.375 68.2976 175.466 68.1073 175.507 67.9036C175.549 67.6999 175.54 67.4892 175.48 67.29C175.351 66.8226 175.078 66.4076 174.701 66.1035C174.323 65.7993 173.859 65.6215 173.375 65.595C173.168 65.5753 172.959 65.6066 172.767 65.6862C172.575 65.7657 172.405 65.8911 172.272 66.0513C172.14 66.2116 172.048 66.4019 172.006 66.6056C171.964 66.8093 171.972 67.0202 172.03 67.22Z" fill="white"/>
<path d="M167.895 68.2451C167.895 68.2451 170.565 68.0951 170.99 68.6451C171.415 69.1951 168.735 69.7251 168.735 69.7251C168.735 69.7251 170.315 69.6801 170.735 70.0551C171.155 70.4301 169.175 71.0301 169.175 71.0301C169.175 71.0301 170.23 71.0301 170.27 71.6201C170.31 72.2101 169.91 72.4101 169.325 72.5501C169.083 72.6091 168.83 72.6109 168.587 72.5554C168.344 72.4998 168.117 72.3885 167.925 72.2301C167.695 72.0001 167.89 71.4051 167.89 71.4051C167.89 71.4051 166.89 70.9051 166.85 70.5251C166.842 70.4075 166.86 70.2897 166.901 70.1794C166.943 70.0691 167.007 69.9688 167.09 69.8851C166.946 69.857 166.812 69.7933 166.699 69.6998C166.586 69.6063 166.499 69.4861 166.445 69.3501C166.391 69.2322 166.368 69.1029 166.377 68.9738C166.386 68.8447 166.426 68.7197 166.495 68.6101C166.289 68.1705 166.112 67.7178 165.965 67.2551C165.835 66.7551 166.72 66.3601 167.255 66.0451C167.79 65.7301 168.755 66.8301 169.635 67.0451C169.635 67.0451 170.085 67.3201 169.605 67.6551C169.125 67.9901 168.105 67.4851 167.865 67.5051C167.625 67.5251 167.895 68.2451 167.895 68.2451Z" fill="#B55B52"/>
<path d="M190.605 37.0949C190.605 37.0949 187.29 38.4099 188.105 41.0549C188.92 43.6999 186.77 43.4549 186.515 46.0199C186.26 48.5849 190.615 49.3749 189.43 51.6699C188.245 53.9649 186.43 54.6299 187.62 56.8649C188.81 59.0999 190.4 61.6599 190.4 63.3149C190.4 67.2349 197.9 57.5749 203.675 59.1649C209.45 60.7549 210.965 55.0899 208.605 53.7799C206.245 52.4699 203.185 50.5449 204.08 47.1199C204.975 43.6949 205.62 42.1199 202.995 40.3399C200.37 38.5599 201.81 38.2649 200.295 36.6299C198.93 35.1599 196.94 36.6749 194.795 36.0399C192.65 35.4049 190.605 37.0949 190.605 37.0949Z" fill="#263238"/>
<path d="M191.645 49.64C191.673 49.8815 191.772 50.1093 191.93 50.2944C192.088 50.4795 192.297 50.6138 192.531 50.6801C192.765 50.7465 193.013 50.742 193.245 50.6672C193.476 50.5924 193.68 50.4507 193.831 50.26C193.982 50.0693 194.073 49.8381 194.092 49.5957C194.112 49.3532 194.059 49.1105 193.941 48.898C193.823 48.6856 193.644 48.513 193.427 48.4021C193.211 48.2912 192.966 48.247 192.725 48.275C192.564 48.2936 192.409 48.3437 192.268 48.4224C192.127 48.5011 192.002 48.6068 191.902 48.7336C191.802 48.8604 191.727 49.0057 191.683 49.1612C191.639 49.3167 191.626 49.4794 191.645 49.64Z" fill="white"/>
<path d="M189.215 179.8L187.88 185.305H184.98L184.845 179.8H189.215Z" fill="#B55B52"/>
<path d="M176.555 189.2C176.715 187.405 177.5 186.87 178.475 186.81C179.45 186.75 183.1 185.535 183.1 185.535C183.1 185.535 183.855 184.395 184.525 184.165C185.195 183.935 185.83 184.61 185.83 184.61L187.655 184.39C187.655 184.39 188.2 183.57 188.575 184.285C189.155 185.4 189.075 188.48 189.03 189.2H176.555Z" fill="#6CC832"/>
<path d="M176.795 188.73H179.055L188.95 188.68C189.075 188.68 189.05 188.485 188.925 188.49H188.255C188.255 188.49 188.255 188.49 188.255 188.465C188.118 188.252 188.026 188.014 187.985 187.764C187.945 187.514 187.956 187.259 188.019 187.014C188.082 186.768 188.195 186.539 188.351 186.34C188.507 186.14 188.702 185.975 188.925 185.855C189.03 185.8 188.925 185.63 188.81 185.69C188.572 185.82 188.363 185.997 188.196 186.21C188.029 186.423 187.907 186.668 187.837 186.93C187.767 187.192 187.752 187.465 187.791 187.734C187.83 188.002 187.923 188.259 188.065 188.49H186.67L176.775 188.54C176.64 188.54 176.665 188.735 176.795 188.73Z" fill="black"/>
<path d="M183.65 186.31C183.15 185.705 182.385 185.535 181.835 185.99C181.745 186.065 181.63 185.9 181.715 185.825C182.345 185.325 183.215 185.53 183.8 186.215C183.885 186.315 183.735 186.41 183.65 186.31Z" fill="white"/>
<path d="M182.605 186.635C182.105 186.03 181.34 185.855 180.79 186.315C180.705 186.385 180.585 186.22 180.675 186.15C181.3 185.625 182.175 185.85 182.76 186.535C182.845 186.635 182.69 186.73 182.605 186.635Z" fill="white"/>
<path d="M181.57 186.955C181.07 186.35 180.305 186.18 179.755 186.635C179.665 186.71 179.55 186.54 179.635 186.47C180.265 185.945 181.135 186.175 181.72 186.855C181.805 186.96 181.655 187.055 181.57 186.955Z" fill="white"/>
<path d="M201.215 107.65C200.359 115.042 199.074 122.378 197.365 129.62C196.755 132.307 196.062 135.17 195.285 138.21C197.42 155.84 189.065 181.31 189.065 181.31L184.59 181.21C184.59 181.21 184.03 152.745 184.555 137.845C185.415 113.43 188.39 90.175 188.39 90.175L200.58 90.125C200.58 90.125 202.685 93.795 201.215 107.65Z" fill="#263238"/>
<path opacity="0.2" d="M201.215 107.65C200.359 115.042 199.073 122.378 197.365 129.62C194.8 119.855 199.44 99.0151 199.44 99.0151L201.215 107.65Z" fill="black"/>
<path d="M184.075 182.265L183.935 180.345H189.905L189.565 182.265H184.075Z" fill="#263238"/>
<path d="M207.77 179.8L206.43 185.305H203.53L203.4 179.8H207.77Z" fill="#B55B52"/>
<path d="M202.52 182.265L202.38 180.345H208.35L208.01 182.265H202.52Z" fill="#263238"/>
<path d="M195.105 189.2C195.26 187.405 196.05 186.87 197.025 186.81C198 186.75 201.65 185.535 201.65 185.535C201.65 185.535 202.405 184.395 203.07 184.165C203.735 183.935 204.38 184.61 204.38 184.61L206.2 184.39C206.2 184.39 206.745 183.57 207.125 184.285C207.705 185.4 207.625 188.48 207.58 189.2H195.105Z" fill="#6CC832"/>
<path d="M195.345 188.73H197.61L207.505 188.68C207.63 188.68 207.605 188.485 207.475 188.49H206.81V188.465C206.674 188.252 206.583 188.013 206.543 187.763C206.503 187.513 206.515 187.258 206.579 187.013C206.642 186.768 206.755 186.539 206.911 186.339C207.067 186.14 207.262 185.975 207.485 185.855C207.59 185.8 207.485 185.63 207.37 185.69C207.132 185.82 206.923 185.996 206.755 186.209C206.587 186.422 206.465 186.667 206.394 186.929C206.324 187.191 206.308 187.464 206.347 187.733C206.386 188.001 206.479 188.259 206.62 188.49H205.225L195.335 188.54C195.195 188.54 195.22 188.735 195.345 188.73Z" fill="black"/>
<path d="M202.205 186.31C201.705 185.705 200.935 185.535 200.39 185.99C200.3 186.065 200.18 185.9 200.27 185.825C200.9 185.325 201.77 185.53 202.355 186.215C202.44 186.315 202.285 186.41 202.205 186.31Z" fill="white"/>
<path d="M201.18 186.635C200.68 186.03 199.915 185.855 199.365 186.315C199.28 186.385 199.16 186.22 199.245 186.15C199.875 185.625 200.745 185.85 201.33 186.535C201.42 186.635 201.265 186.73 201.18 186.635Z" fill="white"/>
<path d="M200.105 186.955C199.605 186.35 198.835 186.18 198.29 186.635C198.2 186.71 198.08 186.54 198.17 186.47C198.8 185.945 199.67 186.175 200.255 186.855C200.34 186.96 200.185 187.055 200.105 186.955Z" fill="white"/>
<path d="M197.02 91.11C197.02 91.11 199.295 124.815 200.02 138.21C200.875 153.515 202.79 179.6 203.045 181.305H207.67C207.14 181.805 213.61 158.41 211 139.345C213.445 121.115 216.42 107.765 212.585 90.595L197.02 91.11Z" fill="#263238"/>
<path d="M213.995 91.93C204.275 95.14 187.94 94.085 187.94 91.86C187.94 85.59 190.16 78.54 189.565 74.455C184.97 71.24 188.565 68.335 188.16 63.57C188.025 61.8142 188.552 60.0716 189.636 58.6841C190.72 57.2965 192.284 56.3642 194.02 56.07C194.85 55.93 195.71 55.79 196.555 55.68L197.055 55.615C199.31 55.3583 201.58 55.2514 203.85 55.295C204.68 55.295 205.54 55.295 206.44 55.32C207.34 55.345 208.21 55.375 209.04 55.435C209.771 55.4861 210.483 55.6904 211.13 56.0346C211.776 56.3787 212.344 56.8551 212.794 57.4327C213.245 58.0103 213.569 58.6762 213.746 59.3873C213.923 60.0983 213.948 60.8386 213.82 61.56C213.075 65.7433 212.602 69.9705 212.405 74.215C212.365 75.09 212.335 75.935 212.325 76.765C212.267 79.6705 212.399 82.5767 212.72 85.465C212.72 85.52 212.72 85.575 212.72 85.625C212.86 86.775 213.027 87.835 213.22 88.805C213.28 89.11 213.345 89.4 213.415 89.685C213.605 90.27 213.835 91.325 213.995 91.93Z" fill="#6CC832"/>
<path opacity="0.2" d="M196.34 63.6401C196.34 63.7024 196.321 63.7633 196.287 63.8151C196.252 63.8669 196.203 63.9073 196.146 63.9311C196.088 63.9549 196.025 63.9612 195.964 63.949C195.902 63.9369 195.846 63.9069 195.802 63.8628C195.758 63.8188 195.728 63.7626 195.716 63.7015C195.704 63.6404 195.71 63.5771 195.734 63.5195C195.758 63.462 195.798 63.4128 195.85 63.3782C195.902 63.3436 195.963 63.3251 196.025 63.3251C196.109 63.3251 196.189 63.3583 196.248 63.4173C196.307 63.4764 196.34 63.5565 196.34 63.6401Z" fill="black"/>
<path opacity="0.2" d="M195.835 66.7499C196.006 66.7499 196.145 66.6112 196.145 66.4399C196.145 66.2687 196.006 66.1299 195.835 66.1299C195.664 66.1299 195.525 66.2687 195.525 66.4399C195.525 66.6112 195.664 66.7499 195.835 66.7499Z" fill="black"/>
<path opacity="0.2" d="M195.835 69.6C196.006 69.6 196.145 69.4612 196.145 69.29C196.145 69.1188 196.006 68.98 195.835 68.98C195.664 68.98 195.525 69.1188 195.525 69.29C195.525 69.4612 195.664 69.6 195.835 69.6Z" fill="black"/>
<path d="M203.865 55.2749C201.565 59.3199 196.15 61.7399 196.15 61.7399C195.415 59.9299 195.65 57.0249 196.555 55.6599L197.055 55.5949C199.315 55.3376 201.59 55.2307 203.865 55.2749Z" fill="#B55B52"/>
<path opacity="0.2" d="M213.265 88.785C203.69 87.73 194.46 78.7 194.46 78.7L212.43 84.7C212.509 85.0162 212.618 85.3242 212.755 85.62C212.895 86.76 213.065 87.815 213.265 88.785Z" fill="black"/>
<path opacity="0.2" d="M212.045 76.2049C211.758 77.919 211.659 79.6593 211.75 81.3949C210.422 81.9644 208.931 82.0266 207.56 81.5699C205.683 80.8482 204.107 79.5101 203.09 77.7749C203.09 77.7749 208.545 78.8499 209.895 78.3499C211.105 77.8999 208.21 68.5299 208.115 68.2649L212.115 73.7199C212.105 74.5699 212.055 75.3949 212.045 76.2049Z" fill="black"/>
<path d="M196.495 56.865C196.474 56.9298 196.445 56.9919 196.41 57.05C195.625 58.285 196.475 59.41 197.825 59.315C197.954 59.3044 198.083 59.286 198.21 59.26C198.695 59.1637 199.138 58.917 199.475 58.555C200.51 57.4434 201.63 56.4137 202.825 55.475C200.825 54.39 200.065 50.535 199.875 48.125L196.73 52.125L196.145 53C196.433 53.4857 196.661 54.0045 196.825 54.545C196.964 54.9292 197.006 55.3416 196.949 55.7461C196.891 56.1505 196.735 56.5347 196.495 56.865Z" fill="#B55B52"/>
<path d="M202.52 55.275C203.625 55.0014 204.78 55.0014 205.885 55.275L202.83 60.52C201.225 59.35 199.38 60.87 196.15 61.74C198.826 60.2094 201.029 57.973 202.52 55.275Z" fill="#6CC832"/>
<path opacity="0.2" d="M202.52 55.275C203.625 55.0014 204.78 55.0014 205.885 55.275L202.83 60.52C201.225 59.35 199.38 60.87 196.15 61.74C198.826 60.2094 201.029 57.973 202.52 55.275Z" fill="white"/>
<path d="M196.965 55.5149C196.965 55.5149 195.1 55.1699 194.02 56.0499C193.628 57.4035 193.336 58.7838 193.145 60.1799C193.145 60.1799 194.94 59.2849 196.145 61.7399C196.15 61.7399 195.54 57.8249 196.965 55.5149Z" fill="#6CC832"/>
<path opacity="0.2" d="M196.965 55.5149C196.965 55.5149 195.1 55.1699 194.02 56.0499C193.628 57.4035 193.336 58.7838 193.145 60.1799C193.145 60.1799 194.94 59.2849 196.145 61.7399C196.15 61.7399 195.54 57.8249 196.965 55.5149Z" fill="white"/>
<g opacity="0.2">
<path d="M196.83 54.5451C196.666 54.0046 196.438 53.4858 196.15 53.0001L196.735 52.1251L198.735 52.1701C198.381 53.151 197.711 53.9865 196.83 54.5451Z" fill="black"/>
</g>
<path d="M200.455 43.83C200.77 47.79 200.985 49.455 199.325 51.74C196.825 55.18 191.995 54.685 190.525 50.9C189.205 47.49 188.91 41.59 192.455 39.5C196 37.41 200.14 39.875 200.455 43.83Z" fill="#B55B52"/>
<path d="M192.85 38.755C192.85 38.755 192.02 42.13 194.01 42.975C196 43.82 198.715 42.66 198.715 45.23C198.715 46.68 200.99 46.23 200.85 44.895C200.71 43.56 201.655 41.01 198.85 39.625C196.969 38.7844 194.892 38.4832 192.85 38.755Z" fill="#263238"/>
<path d="M198.605 47.0351C198.39 47.0286 198.179 46.9721 197.99 46.8701C196.65 46.2051 196.465 42.8101 196.46 42.6651H196.715C196.715 42.7001 196.895 46.0551 198.105 46.6651C198.223 46.7389 198.356 46.7834 198.495 46.7947C198.633 46.806 198.772 46.7839 198.9 46.7301C199.345 46.5001 199.465 45.7751 199.465 45.7701L199.715 45.8101C199.684 46.0383 199.606 46.2577 199.486 46.4546C199.367 46.6516 199.208 46.8219 199.02 46.9551C198.89 47.014 198.748 47.0414 198.605 47.0351Z" fill="#263238"/>
<path d="M193.045 39.86C193.045 39.86 190.85 43.36 189.33 42.535C187.81 41.71 191.43 37.78 192.83 38.755C194.23 39.73 193.045 39.86 193.045 39.86Z" fill="#263238"/>
<path d="M192.175 49.9299C192.175 49.9299 194.1 49.0599 194.525 48.2199C194.525 48.2199 194.81 49.7199 193.8 50.2749C193.535 50.4321 193.221 50.4839 192.92 50.4199C192.619 50.356 192.353 50.1811 192.175 49.9299Z" fill="white"/>
<path d="M193.71 45.5852C193.755 45.9052 193.62 46.1852 193.41 46.2152C193.2 46.2452 193 46.0102 192.955 45.7152C192.91 45.4202 193.04 45.1152 193.25 45.0852C193.46 45.0552 193.665 45.2902 193.71 45.6102" fill="#263238"/>
<path d="M190.5 46.125C190.545 46.445 190.41 46.725 190.205 46.755C190 46.785 189.79 46.55 189.745 46.23C189.7 45.91 189.83 45.63 190.04 45.6C190.25 45.57 190.455 45.805 190.5 46.1" fill="#263238"/>
<path d="M190.135 45.605L189.34 45.49C189.34 45.49 189.815 46.035 190.135 45.605Z" fill="#263238"/>
<path d="M191.89 46.0601C191.89 46.0601 191.46 46.9801 190.965 47.8001C190.929 47.8627 190.907 47.9323 190.901 48.0041C190.895 48.0759 190.904 48.1483 190.928 48.2162C190.952 48.2841 190.991 48.346 191.041 48.3976C191.092 48.4492 191.153 48.4892 191.22 48.5151C191.558 48.6189 191.907 48.6843 192.26 48.7101L191.89 46.0601Z" fill="#A02724"/>
<path d="M202.23 46.355C202.131 46.7024 201.96 47.0247 201.727 47.3006C201.495 47.5765 201.206 47.7996 200.88 47.955C200.045 48.32 199.475 47.425 199.585 46.42C199.685 45.515 200.235 44.235 201.135 44.3C202.035 44.365 202.515 45.44 202.23 46.355Z" fill="#B55B52"/>
<path d="M200.725 47.225H200.56V49.065H200.725V47.225Z" fill="white"/>
<path d="M200.67 50.0551C201.04 50.0551 201.34 49.7551 201.34 49.3851C201.34 49.0151 201.04 48.7151 200.67 48.7151C200.3 48.7151 200 49.0151 200 49.3851C200 49.7551 200.3 50.0551 200.67 50.0551Z" fill="white"/>
<path d="M194.635 44.7501C194.609 44.7468 194.584 44.7379 194.561 44.7241C194.539 44.7103 194.52 44.6919 194.505 44.6701C194.379 44.4686 194.206 44.3001 194.002 44.1784C193.798 44.0567 193.567 43.9853 193.33 43.9701C193.28 43.9701 193.233 43.9508 193.197 43.9162C193.162 43.8817 193.141 43.8346 193.14 43.7851C193.139 43.7601 193.144 43.7353 193.152 43.712C193.161 43.6887 193.175 43.6674 193.192 43.6493C193.209 43.6311 193.23 43.6166 193.253 43.6064C193.275 43.5963 193.3 43.5907 193.325 43.5901C193.626 43.604 193.92 43.6904 194.181 43.8418C194.442 43.9932 194.663 44.2053 194.825 44.4601C194.839 44.4803 194.849 44.5032 194.854 44.5273C194.859 44.5515 194.859 44.5764 194.855 44.6006C194.85 44.6248 194.841 44.6479 194.827 44.6684C194.813 44.6889 194.796 44.7065 194.775 44.7201C194.756 44.7346 194.734 44.7447 194.711 44.7499C194.687 44.7551 194.663 44.7551 194.64 44.7501" fill="#263238"/>
<path d="M189.21 44.8901C189.186 44.8931 189.161 44.8911 189.138 44.8843C189.115 44.8774 189.093 44.8657 189.075 44.8501C189.036 44.8187 189.011 44.7733 189.006 44.7237C189 44.6741 189.014 44.6243 189.045 44.5851C189.228 44.3466 189.466 44.1554 189.738 44.0276C190.01 43.8997 190.309 43.8388 190.61 43.8501C190.637 43.849 190.664 43.8537 190.689 43.8639C190.714 43.8741 190.737 43.8895 190.755 43.9092C190.774 43.9288 190.788 43.9522 190.797 43.9778C190.806 44.0034 190.809 44.0306 190.807 44.0576C190.804 44.0845 190.796 44.1107 190.783 44.1342C190.769 44.1577 190.751 44.1781 190.729 44.1939C190.707 44.2098 190.682 44.2208 190.655 44.2261C190.629 44.2315 190.601 44.2311 190.575 44.2251C190.337 44.2214 190.101 44.2732 189.887 44.3765C189.673 44.4798 189.485 44.6317 189.34 44.8201C189.326 44.8416 189.306 44.8593 189.284 44.8715C189.261 44.8838 189.236 44.8901 189.21 44.8901Z" fill="#263238"/>
<path d="M193.345 45.065L192.545 44.95C192.545 44.95 193.045 45.495 193.345 45.065Z" fill="#263238"/>
<path d="M213.57 58.785C213.57 58.785 220.445 77.465 219.345 83.58C217.535 93.645 194.88 80.16 194.445 78.25L196.47 75.345C196.47 75.345 211.13 80.68 211.935 80.17C212.74 79.66 207.31 65.315 207.31 65.315C207.31 65.315 208.105 56.645 213.57 58.785Z" fill="#6CC832"/>
<path opacity="0.2" d="M219.275 82.0451C218.257 82.3645 217.379 83.0217 216.785 83.9082C216.191 84.7946 215.918 85.8572 216.01 86.9201C216.01 87.1551 215.665 87.2051 215.645 86.9701C215.543 85.826 215.835 84.6814 216.471 83.7251C217.107 82.7689 218.05 82.0581 219.145 81.7101C219.365 81.6351 219.51 81.9751 219.285 82.0451H219.275Z" fill="black"/>
<path d="M197.06 75.93C197.06 75.93 194.945 70.355 194.45 69.885C193.955 69.415 188.415 69.435 187.845 69.29C187.275 69.145 187.59 70.175 188.6 70.315C189.61 70.455 191.45 70.9299 191.45 70.9299C191.45 70.9299 189.74 70.8099 189.415 71.1999C189.09 71.5899 187.66 74.3899 188.055 75.6999C188.45 77.0099 190.055 77.0899 190.555 77.1999C191.055 77.3099 190.555 75.9349 190.555 75.9349C190.98 76.1161 191.43 76.2308 191.89 76.275C192.68 76.365 193.71 77.8799 194.49 78.2249C195.97 78.9299 197.74 76.32 197.06 75.93Z" fill="#B55B52"/>
<path d="M192.83 71.13C192.394 71.0427 191.949 71.0124 191.505 71.04C191.34 71.04 191.31 70.795 191.475 70.785C191.944 70.7523 192.414 70.7825 192.875 70.875C192.906 70.8835 192.933 70.9034 192.951 70.9308C192.968 70.9582 192.975 70.9911 192.969 71.023C192.963 71.055 192.946 71.0837 192.92 71.1035C192.895 71.1232 192.862 71.1327 192.83 71.13Z" fill="#994731"/>
<path d="M191.48 72.285C190.72 72.03 189.88 71.785 189.12 72.17C188.975 72.245 188.825 72.035 188.97 71.96C189.825 71.505 190.725 71.76 191.59 72.05C191.745 72.1 191.635 72.335 191.48 72.285Z" fill="#994731"/>
<path d="M190.765 73.43C190.425 73.2641 190.048 73.1845 189.67 73.1985C189.292 73.2124 188.922 73.3195 188.595 73.51C188.455 73.595 188.305 73.385 188.45 73.3C188.813 73.0833 189.224 72.9602 189.647 72.9419C190.069 72.9235 190.49 73.0105 190.87 73.195C190.897 73.2117 190.916 73.2374 190.925 73.2673C190.934 73.2973 190.932 73.3295 190.919 73.3581C190.907 73.3867 190.884 73.4097 190.856 73.4229C190.827 73.4361 190.795 73.4386 190.765 73.43Z" fill="#994731"/>
<path d="M190.515 76.115C190.267 75.9752 190.05 75.7859 189.878 75.5588C189.706 75.3318 189.582 75.0718 189.515 74.795C189.48 74.635 189.72 74.545 189.76 74.705C189.813 74.9484 189.915 75.1782 190.06 75.3804C190.206 75.5825 190.391 75.7526 190.605 75.88C190.75 75.96 190.64 76.195 190.5 76.115H190.515Z" fill="#994731"/>
<path d="M189.79 75.5C189.659 75.4539 189.516 75.4483 189.382 75.4839C189.247 75.5196 189.126 75.5949 189.035 75.7C188.925 75.825 188.73 75.66 188.84 75.535C188.968 75.3875 189.138 75.2825 189.328 75.2343C189.517 75.186 189.717 75.1968 189.9 75.265C190.055 75.325 189.945 75.56 189.79 75.5Z" fill="#994731"/>
<path d="M190.105 48.69C189.935 48.6753 189.771 48.6227 189.623 48.5362C189.476 48.4497 189.351 48.3314 189.255 48.19C188.943 47.7925 188.739 47.3203 188.665 46.82C188.48 45.695 188.88 44.685 189.555 44.575C190.23 44.465 190.94 45.285 191.125 46.41C191.221 46.911 191.183 47.4283 191.015 47.91C190.964 48.0942 190.864 48.2615 190.727 48.395C190.59 48.5284 190.421 48.6233 190.235 48.67L190.105 48.69ZM189.685 44.69H189.58C188.97 44.79 188.615 45.73 188.79 46.785C188.858 47.2648 189.052 47.7182 189.35 48.1C189.445 48.239 189.575 48.3505 189.727 48.4233C189.879 48.4962 190.047 48.5278 190.215 48.515C190.378 48.4733 190.527 48.3888 190.647 48.2701C190.767 48.1514 190.852 48.0029 190.895 47.84C191.053 47.384 191.09 46.8944 191 46.42C190.825 45.46 190.25 44.715 189.675 44.715L189.685 44.69Z" fill="white"/>
<path d="M193.545 48.1101C192.905 48.1101 192.275 47.3201 192.1 46.2651C191.925 45.2101 192.315 44.1301 192.99 44.0201C193.665 43.9101 194.375 44.7301 194.56 45.8551C194.656 46.3561 194.618 46.8734 194.45 47.3551C194.398 47.5388 194.298 47.7056 194.161 47.8389C194.024 47.9723 193.855 48.0675 193.67 48.1151L193.545 48.1101ZM193.12 44.1101H193.015C192.405 44.2101 192.05 45.1501 192.225 46.2051C192.4 47.2601 193.05 48.0351 193.65 47.9351C193.813 47.8934 193.962 47.8088 194.082 47.6902C194.202 47.5715 194.287 47.423 194.33 47.2601C194.491 46.8045 194.527 46.3143 194.435 45.8401C194.27 44.8801 193.695 44.1351 193.105 44.1351L193.12 44.1101Z" fill="white"/>
<path d="M188.76 46.8801L188.675 46.7851C188.94 46.5721 189.265 46.4479 189.605 46.4301V46.5601C189.297 46.5795 189.003 46.691 188.76 46.8801Z" fill="white"/>
<path d="M191.02 46.215L190.92 46.14C191.061 45.9538 191.266 45.827 191.495 45.7844C191.725 45.7419 191.962 45.7866 192.16 45.91L192.095 46.02C191.924 45.9113 191.719 45.871 191.519 45.9072C191.32 45.9433 191.142 46.0532 191.02 46.215Z" fill="white"/>
<path d="M194.485 45.695L194.425 45.58C194.45 45.58 197.17 44.125 200.01 44.615V44.745C197.195 44.26 194.51 45.68 194.485 45.695Z" fill="white"/>
<path d="M97.105 180.22L91.04 180.675L79.73 154.805L74.21 141.05L88.42 134.555L90.14 144.205L90.19 144.365L97.105 180.22Z" fill="#263238"/>
<path d="M91.52 179.415L93.7 185.145H96.715L96.06 179.415H91.52Z" fill="#B55B52"/>
<path d="M98.0451 182.13L97.7901 179.205H89.7151L90.4701 182.13H98.0451Z" fill="#263238"/>
<path d="M106.02 189.2C105.6 187.335 104.7 186.775 103.685 186.7C102.67 186.625 98.6851 185.375 98.6851 185.375C98.6851 185.375 97.7351 184.19 97.0101 183.95C96.7723 183.899 96.5251 183.916 96.2963 183.998C96.0675 184.08 95.8662 184.225 95.7151 184.415L93.7951 184.18C93.7951 184.18 93.1151 183.335 92.7951 184.075C92.4601 184.93 92.5701 188.61 92.5901 189.19L106.02 189.2Z" fill="#6CC832"/>
<path d="M105.705 188.715H103.355L93.0751 188.665C93.0486 188.665 93.0232 188.654 93.0044 188.636C92.9857 188.617 92.9751 188.591 92.9751 188.565C92.9751 188.538 92.9857 188.513 93.0044 188.494C93.0232 188.475 93.0486 188.465 93.0751 188.465H93.7751C93.772 188.457 93.772 188.448 93.7751 188.44C94.2751 187.36 93.6901 186.27 92.7001 185.725C92.5851 185.665 92.7001 185.49 92.8001 185.555C93.3289 185.8 93.7445 186.237 93.9627 186.778C94.181 187.318 94.1854 187.921 93.9751 188.465H95.4251L105.705 188.52C105.727 188.525 105.747 188.537 105.761 188.555C105.775 188.573 105.783 188.595 105.783 188.617C105.783 188.64 105.775 188.662 105.761 188.68C105.747 188.697 105.727 188.71 105.705 188.715Z" fill="black"/>
<path d="M98.2402 186.195C98.3314 186.044 98.4536 185.914 98.5988 185.814C98.7439 185.714 98.9087 185.646 99.0822 185.614C99.2557 185.582 99.4339 185.588 99.6051 185.63C99.7763 185.673 99.9365 185.751 100.075 185.86C100.18 185.935 100.28 185.765 100.175 185.69C100.014 185.567 99.8283 185.48 99.631 185.434C99.4337 185.388 99.2289 185.384 99.03 185.422C98.831 185.461 98.6423 185.54 98.4761 185.656C98.3098 185.772 98.1699 185.921 98.0652 186.095C97.9902 186.195 98.1652 186.295 98.2402 186.195Z" fill="white"/>
<path d="M99.3451 186.53C99.4368 186.379 99.5595 186.249 99.7051 186.149C99.8507 186.048 100.016 185.98 100.19 185.949C100.364 185.917 100.542 185.923 100.714 185.965C100.885 186.007 101.046 186.086 101.185 186.195C101.285 186.27 101.385 186.1 101.285 186.025C101.124 185.902 100.939 185.815 100.742 185.768C100.545 185.722 100.34 185.717 100.141 185.755C99.9421 185.793 99.7533 185.872 99.5869 185.987C99.4205 186.103 99.2802 186.252 99.1751 186.425C99.1001 186.53 99.2751 186.63 99.3451 186.53Z" fill="white"/>
<path d="M100.49 186.86C100.583 186.71 100.706 186.581 100.852 186.482C100.998 186.382 101.163 186.315 101.336 186.284C101.51 186.253 101.688 186.259 101.859 186.301C102.031 186.343 102.191 186.421 102.33 186.53C102.43 186.605 102.53 186.435 102.43 186.355C102.268 186.233 102.083 186.147 101.886 186.101C101.688 186.056 101.484 186.052 101.285 186.09C101.086 186.128 100.898 186.207 100.732 186.323C100.565 186.438 100.425 186.587 100.32 186.76C100.245 186.865 100.415 186.965 100.49 186.86Z" fill="white"/>
<path d="M78.0649 158.625L79.0899 165.505L79.4499 167.985L82.4999 188.785H80.6699L76.2849 167.985L75.7649 165.505L74.3149 158.625H78.0649Z" fill="#6CC832"/>
<path d="M70.91 158.625L71.93 165.505L72.295 167.985L75.345 188.785H73.51L69.125 167.985L68.605 165.505L67.155 158.625H70.91Z" fill="#6CC832"/>
<g opacity="0.2">
<path d="M70.91 158.625L71.93 165.505L72.295 167.985L75.345 188.785H73.51L69.125 167.985L68.605 165.505L67.155 158.625H70.91Z" fill="black"/>
</g>
<path d="M36.8501 153.4L34.3001 165.505L33.7801 167.985L29.3951 188.785H27.5601L30.6151 167.985L30.9751 165.505L32.7751 153.4H36.8501Z" fill="#6CC832"/>
<path d="M44.0102 153.4L41.4602 165.505L40.9352 167.985L36.5552 188.785H34.7202L37.7702 167.985L38.1352 165.505L39.9352 153.4H44.0102Z" fill="#6CC832"/>
<g opacity="0.2">
<path d="M44.0102 153.4L41.4602 165.505L40.9352 167.985L36.5552 188.785H34.7202L37.7702 167.985L38.1352 165.505L39.9352 153.4H44.0102Z" fill="black"/>
</g>
<path d="M32.745 158.72H78.17L77.2651 155.155C75.7651 149.18 71.475 145.155 66.665 145.155H29.29L32.745 158.72Z" fill="#6CC832"/>
<path d="M26.7901 135.74L31.0951 151.74L74.4001 151.79L71.7301 141.855C69.9501 135.225 64.0701 130.355 57.2301 130.235H57.1901C56.6901 128.32 51.7901 110.235 40.8051 110.565C29.2051 110.91 31.7201 130.235 31.7201 130.235H29.7601C27.6051 130.25 26.0701 133.06 26.7901 135.74Z" fill="#6CC832"/>
<g opacity="0.2">
<path d="M26.7901 135.74L31.0951 151.74L74.4001 151.79L71.7301 141.855C69.9501 135.225 64.0701 130.355 57.2301 130.235H57.1901C56.6901 128.32 51.7901 110.235 40.8051 110.565C29.2051 110.91 31.7201 130.235 31.7201 130.235H29.7601C27.6051 130.25 26.0701 133.06 26.7901 135.74Z" fill="black"/>
</g>
<path d="M47.9702 109.25C47.9702 109.25 49.2002 124.695 51.1602 129.635C55.6602 140.97 63.5052 127.065 63.5052 127.065L58.3102 119.62L56.8102 108.17L47.9702 109.25Z" fill="#FF8B7B"/>
<path d="M58.02 119.53L56.17 119.92C56.1203 119.931 56.0771 119.962 56.0499 120.005C56.0227 120.048 56.0137 120.1 56.025 120.15C56.0363 120.199 56.0669 120.243 56.11 120.27C56.1531 120.297 56.2053 120.306 56.255 120.295L58.105 119.93C58.1548 119.919 58.1982 119.889 58.2259 119.847C58.2535 119.804 58.2631 119.752 58.2525 119.702C58.2419 119.652 58.212 119.609 58.1693 119.581C58.1267 119.554 58.0747 119.544 58.025 119.555L58.02 119.53Z" fill="#742823"/>
<path d="M69.7003 106C69.7003 106 74.7703 120.8 76.5703 124.5C78.3703 128.2 71.2253 130.395 66.8803 129.185C62.5353 127.975 63.2203 109.685 63.2203 109.685L69.7003 106Z" fill="#FF8B7B"/>
<path d="M59.79 90.0699C59.79 90.0699 54.005 103.955 57.065 112.8L71.565 108.84C71.565 108.84 71.635 102.34 69.85 97.1649C67.06 89.0399 59.79 90.0699 59.79 90.0699Z" fill="#6CC832"/>
<path d="M37.2 138.515C34.2 136.515 34.125 127.88 34.7 120.015C34.73 118.015 34.815 115.74 34.985 113.31C35.155 110.88 35.42 108.31 35.81 105.67C36.3578 101.774 37.2172 97.9284 38.38 94.17C39.155 91.72 43.18 89.17 46.83 87.935C49.372 87.1712 52.0422 86.9297 54.68 87.225C56.6296 87.7098 58.5523 88.2972 60.44 88.985C65.215 90.68 68.24 93.02 67.94 94.34C67.77 95.06 67.94 98.935 67.045 103.65C66.57 106.195 66.265 108.945 65.84 111.71C65.84 111.71 65.84 111.735 65.84 111.76C65.84 111.785 65.84 111.98 65.815 112.185C65.69 114.46 65.405 124.255 69.08 131.005C74.605 141.13 41.49 141.43 37.2 138.515Z" fill="#6CC832"/>
<g opacity="0.2">
<path d="M37.2 138.515C34.2 136.515 34.125 127.88 34.7 120.015C34.73 118.015 34.815 115.74 34.985 113.31C35.155 110.88 35.42 108.31 35.81 105.67C36.3578 101.774 37.2172 97.9284 38.38 94.17C39.155 91.72 43.18 89.17 46.83 87.935C49.372 87.1712 52.0422 86.9297 54.68 87.225C56.6296 87.7098 58.5523 88.2972 60.44 88.985C65.215 90.68 68.24 93.02 67.94 94.34C67.77 95.06 67.94 98.935 67.045 103.65C66.57 106.195 66.265 108.945 65.84 111.71C65.84 111.71 65.84 111.735 65.84 111.76C65.84 111.785 65.84 111.98 65.815 112.185C65.69 114.46 65.405 124.255 69.08 131.005C74.605 141.13 41.49 141.43 37.2 138.515Z" fill="white"/>
</g>
<path d="M59.78 96.2298C59.6278 96.2274 59.4758 96.2157 59.325 96.1948C54.855 95.5698 51.105 87.1948 51.07 87.1148C51.0667 87.1076 51.0648 87.0998 51.0645 87.0919C51.0642 87.0839 51.0655 87.076 51.0683 87.0685C51.0711 87.0611 51.0753 87.0543 51.0808 87.0485C51.0862 87.0427 51.0927 87.0381 51.1 87.0348C51.1153 87.0279 51.1327 87.0271 51.1485 87.0327C51.1644 87.0383 51.1775 87.0498 51.185 87.0648C51.22 87.1498 54.94 95.4598 59.345 96.0648C60.105 96.1698 60.63 96.0148 60.905 95.6048C62.025 93.9098 58.785 88.4548 58.75 88.3998C58.7398 88.388 58.7342 88.3729 58.7342 88.3573C58.7342 88.3417 58.7398 88.3266 58.75 88.3148C58.7556 88.3092 58.7622 88.3048 58.7695 88.3018C58.7768 88.2987 58.7846 88.2972 58.7925 88.2972C58.8004 88.2972 58.8082 88.2987 58.8155 88.3018C58.8228 88.3048 58.8294 88.3092 58.835 88.3148C58.97 88.5448 62.15 93.8948 60.985 95.6548C60.8495 95.8451 60.6678 95.9978 60.457 96.0984C60.2461 96.199 60.0132 96.2442 59.78 96.2298Z" fill="white"/>
<path d="M68.3549 180.755L62.4749 180.43L71.1749 149.165C71.1749 149.165 70 149.395 68.115 149.7C61.735 150.7 47.2 152.545 42.325 148.925C35.325 143.705 35.825 136.76 35.825 136.76C35.825 136.76 91.39 120.505 92.825 136.17C93.47 143.2 68.3549 180.755 68.3549 180.755Z" fill="#263238"/>
<path d="M63.205 179.615L62.605 185.145H65.615L67.74 179.615H63.205Z" fill="#B55B52"/>
<path d="M61.4651 182.13L61.7251 179.205H69.7951L69.0401 182.13H61.4651Z" fill="#263238"/>
<path d="M75.5151 189.2C75.0951 187.335 74.2001 186.775 73.1801 186.7C72.1601 186.625 68.1801 185.375 68.1801 185.375C68.1801 185.375 67.2351 184.19 66.5101 183.95C66.2723 183.899 66.0251 183.916 65.7963 183.998C65.5675 184.08 65.3662 184.225 65.2151 184.415L63.2901 184.18C63.2901 184.18 62.6151 183.335 62.3201 184.075C61.9801 184.93 62.0951 188.61 62.1151 189.19L75.5151 189.2Z" fill="#6CC832"/>
<path d="M75.2052 188.715H72.8552L62.5702 188.665C62.5437 188.665 62.5183 188.654 62.4995 188.636C62.4808 188.617 62.4702 188.591 62.4702 188.565C62.4702 188.538 62.4808 188.513 62.4995 188.494C62.5183 188.475 62.5437 188.465 62.5702 188.465H63.2652C63.2626 188.457 63.2626 188.448 63.2652 188.44C63.7652 187.36 63.1752 186.27 62.1852 185.725C62.0702 185.665 62.1852 185.49 62.2852 185.555C62.8141 185.8 63.2301 186.237 63.4491 186.777C63.6682 187.317 63.6739 187.921 63.4652 188.465H64.9152L75.1952 188.52C75.2177 188.524 75.2382 188.535 75.2533 188.552C75.2684 188.569 75.2773 188.591 75.2785 188.613C75.2796 188.636 75.273 188.659 75.2597 188.677C75.2464 188.695 75.2272 188.709 75.2052 188.715Z" fill="black"/>
<path d="M67.7351 186.195C67.8268 186.044 67.9495 185.914 68.0951 185.814C68.2407 185.714 68.4059 185.645 68.5798 185.614C68.7536 185.582 68.9323 185.588 69.1038 185.63C69.2754 185.673 69.436 185.751 69.5751 185.86C69.6751 185.935 69.7751 185.765 69.6751 185.69C69.5139 185.567 69.3285 185.479 69.1311 185.433C68.9336 185.386 68.7286 185.382 68.5294 185.42C68.3302 185.458 68.1413 185.538 67.9751 185.654C67.8089 185.771 67.6692 185.921 67.5651 186.095C67.4901 186.195 67.6601 186.295 67.7351 186.195Z" fill="white"/>
<path d="M68.8449 186.53C68.9361 186.379 69.0583 186.249 69.2035 186.149C69.3487 186.049 69.5134 185.981 69.6869 185.949C69.8604 185.917 70.0387 185.923 70.2098 185.965C70.381 186.008 70.5412 186.086 70.6799 186.195C70.7849 186.27 70.8849 186.1 70.7799 186.025C70.6188 185.902 70.4336 185.815 70.2365 185.768C70.0395 185.722 69.8348 185.717 69.6359 185.755C69.4369 185.793 69.2481 185.872 69.0817 185.987C68.9153 186.103 68.775 186.252 68.6699 186.425C68.5949 186.53 68.7699 186.63 68.8449 186.53Z" fill="white"/>
<path d="M69.9899 186.86C70.0815 186.709 70.2041 186.58 70.3494 186.48C70.4948 186.381 70.6597 186.313 70.8331 186.282C71.0066 186.251 71.1847 186.257 71.3557 186.299C71.5266 186.342 71.6866 186.421 71.8249 186.53C71.9299 186.605 72.0249 186.435 71.9249 186.355C71.7632 186.233 71.5778 186.147 71.3806 186.101C71.1835 186.056 70.9789 186.052 70.7802 186.09C70.5814 186.128 70.3929 186.207 70.2266 186.323C70.0604 186.438 69.9201 186.587 69.8149 186.76C69.7399 186.865 69.9149 186.965 69.9899 186.86Z" fill="white"/>
<path opacity="0.2" d="M75.1601 139.73L71.1601 149.175C71.1601 149.175 69.9851 149.405 68.1001 149.71C70.4601 146.265 74.9651 139.985 75.1601 139.73Z" fill="black"/>
<path d="M47.045 104.54C47.045 104.54 45.165 120.54 46.21 122.75C47.255 124.96 68.105 126.345 68.105 126.345L69.105 127.51C69.105 127.51 47.29 133.63 39.5 127.55C34.905 123.97 35.855 102.795 35.855 102.795L47.045 104.54Z" fill="#FF8B7B"/>
<path d="M38.6352 93.615C36.0102 97.42 34.9152 103.93 34.4302 110.015L48.6052 109.23C48.6052 109.23 50.1652 102.93 49.6052 97.475C49.2652 94.03 47.5602 92.4 45.6452 91.68C42.6052 90.52 40.5002 90.93 38.6352 93.615Z" fill="#6CC832"/>
<path d="M55.4302 130.97H91.0752L92.0902 127.555H56.4452L55.4302 130.97Z" fill="#6CC832"/>
<g opacity="0.5">
<path d="M55.4302 130.97H91.0752L92.0902 127.555H56.4452L55.4302 130.97Z" fill="white"/>
</g>
<path d="M68.8951 129.205H88.8201C89.1617 129.207 89.4945 129.096 89.766 128.889C90.0375 128.682 90.2325 128.39 90.3201 128.06L94.3201 113.005C94.3807 112.776 94.3878 112.535 94.3407 112.303C94.2936 112.071 94.1937 111.852 94.0487 111.665C93.9037 111.477 93.7174 111.325 93.5044 111.221C93.2913 111.117 93.0572 111.064 92.8201 111.065H72.6051C72.1602 111.063 71.7275 111.209 71.3752 111.481C71.0229 111.753 70.7713 112.134 70.6601 112.565L66.9301 126.68C66.8485 126.979 66.8379 127.294 66.8989 127.598C66.9598 127.902 67.0908 128.188 67.2815 128.433C67.4721 128.678 67.7172 128.876 67.9973 129.01C68.2773 129.143 68.5847 129.21 68.8951 129.205Z" fill="#6CC832"/>
<g opacity="0.5">
<path d="M68.8951 129.205H88.8201C89.1617 129.207 89.4945 129.096 89.766 128.889C90.0375 128.682 90.2325 128.39 90.3201 128.06L94.3201 113.005C94.3807 112.776 94.3878 112.535 94.3407 112.303C94.2936 112.071 94.1937 111.852 94.0487 111.665C93.9037 111.477 93.7174 111.325 93.5044 111.221C93.2913 111.117 93.0572 111.064 92.8201 111.065H72.6051C72.1602 111.063 71.7275 111.209 71.3752 111.481C71.0229 111.753 70.7713 112.134 70.6601 112.565L66.9301 126.68C66.8485 126.979 66.8379 127.294 66.8989 127.598C66.9598 127.902 67.0908 128.188 67.2815 128.433C67.4721 128.678 67.7172 128.876 67.9973 129.01C68.2773 129.143 68.5847 129.21 68.8951 129.205Z" fill="white"/>
</g>
<path d="M70.535 129.205H90.46C90.8017 129.207 91.1344 129.096 91.406 128.889C91.6775 128.682 91.8724 128.39 91.96 128.06L95.96 113.005C96.0207 112.776 96.0277 112.535 95.9807 112.303C95.9336 112.071 95.8337 111.852 95.6887 111.665C95.5436 111.477 95.3574 111.325 95.1443 111.221C94.9313 111.117 94.6971 111.064 94.46 111.065H74.2651C73.8202 111.063 73.3874 111.209 73.0352 111.481C72.6829 111.753 72.4313 112.134 72.32 112.565L68.605 126.68C68.5243 126.976 68.5131 127.288 68.5722 127.589C68.6314 127.891 68.7592 128.175 68.9459 128.419C69.1326 128.664 69.3731 128.862 69.6487 128.998C69.9243 129.134 70.2276 129.205 70.535 129.205Z" fill="#6CC832"/>
<g opacity="0.8">
<path d="M70.535 129.205H90.46C90.8017 129.207 91.1344 129.096 91.406 128.889C91.6775 128.682 91.8724 128.39 91.96 128.06L95.96 113.005C96.0207 112.776 96.0277 112.535 95.9807 112.303C95.9336 112.071 95.8337 111.852 95.6887 111.665C95.5436 111.477 95.3574 111.325 95.1443 111.221C94.9313 111.117 94.6971 111.064 94.46 111.065H74.2651C73.8202 111.063 73.3874 111.209 73.0352 111.481C72.6829 111.753 72.4313 112.134 72.32 112.565L68.605 126.68C68.5243 126.976 68.5131 127.288 68.5722 127.589C68.6314 127.891 68.7592 128.175 68.9459 128.419C69.1326 128.664 69.3731 128.862 69.6487 128.998C69.9243 129.134 70.2276 129.205 70.535 129.205Z" fill="white"/>
</g>
<path d="M80.555 120.3C80.4894 120.564 80.4851 120.84 80.5427 121.107C80.6002 121.373 80.7179 121.623 80.8868 121.836C81.0558 122.05 81.2714 122.223 81.5172 122.34C81.7631 122.458 82.0325 122.517 82.305 122.515C82.9098 122.48 83.4852 122.242 83.9386 121.84C84.3921 121.438 84.6972 120.896 84.805 120.3C84.8705 120.035 84.8747 119.759 84.8172 119.492C84.7597 119.226 84.642 118.976 84.4732 118.762C84.3044 118.547 84.0888 118.375 83.8431 118.256C83.5973 118.138 83.3277 118.078 83.055 118.08C82.4498 118.116 81.8743 118.355 81.421 118.757C80.9676 119.16 80.6626 119.703 80.555 120.3Z" fill="#6CC832"/>
<g opacity="0.5">
<path d="M80.555 120.3C80.4894 120.564 80.4851 120.84 80.5427 121.107C80.6002 121.373 80.7179 121.623 80.8868 121.836C81.0558 122.05 81.2714 122.223 81.5172 122.34C81.7631 122.458 82.0325 122.517 82.305 122.515C82.9098 122.48 83.4852 122.242 83.9386 121.84C84.3921 121.438 84.6972 120.896 84.805 120.3C84.8705 120.035 84.8747 119.759 84.8172 119.492C84.7597 119.226 84.642 118.976 84.4732 118.762C84.3044 118.547 84.0888 118.375 83.8431 118.256C83.5973 118.138 83.3277 118.078 83.055 118.08C82.4498 118.116 81.8743 118.355 81.421 118.757C80.9676 119.16 80.6626 119.703 80.555 120.3Z" fill="white"/>
</g>
<path d="M68.435 74.2348C68.24 74.7848 67.435 74.9098 67.435 74.9098C67.435 74.9098 68.195 75.8648 67.815 76.1848C67.435 76.5048 66.61 76.1848 66.61 76.1848C66.7028 76.3321 66.7636 76.4972 66.7885 76.6694C66.8135 76.8417 66.8021 77.0172 66.755 77.1848C66.58 77.7398 66.355 77.5298 66.355 77.5298L54.175 75.5748C54.3904 74.6269 54.3904 73.6427 54.175 72.6948C53.79 71.3798 53.265 69.5798 53.9 69.2598C54.535 68.9398 54.84 69.2598 54.84 69.2598C54.84 69.2598 54.79 67.9098 55.445 67.7998C55.6172 67.7645 55.7948 67.765 55.9668 67.8011C56.1388 67.8372 56.3016 67.9083 56.445 68.0098C56.445 68.0098 56.525 67.0598 57.12 66.9748C57.2914 66.9586 57.463 67.0027 57.6054 67.0994C57.7478 67.1962 57.852 67.3395 57.9 67.5048C57.9 67.5048 58.585 66.5698 59.26 66.5548C59.935 66.5398 60.025 67.3098 60.025 67.3098C60.025 67.3098 61.105 66.4298 61.605 66.7748C61.92 67.0326 62.1615 67.3689 62.305 67.7498C62.305 67.7498 63.355 66.6698 63.805 67.2498C64.0881 67.6439 64.245 68.1146 64.255 68.5998C64.255 68.5998 65.61 67.5998 65.97 68.2248C66.183 68.6568 66.2514 69.1459 66.165 69.6198C66.165 69.6198 67.325 68.9848 67.665 69.7898C67.7562 70.0401 67.7812 70.3098 67.7374 70.5727C67.6936 70.8355 67.5825 71.0825 67.415 71.2898C67.415 71.2898 68.495 71.4198 68.455 72.0548C68.415 72.6898 67.455 73.2498 67.455 73.2498C67.455 73.2498 68.605 73.6798 68.435 74.2348Z" fill="#263238"/>
<path d="M59.39 86.2798V86.3198L58.54 88.1598C58.427 88.5398 58.3517 88.93 58.315 89.3248C58.2818 89.6436 58.2735 89.9646 58.29 90.2848C58.615 90.9448 58.58 92.2848 57.07 92.0398C55.165 91.7148 52.16 88.3098 52.185 87.4448C53.525 84.9998 54.805 82.0848 55.1 79.5748L56.86 82.3098L59.39 86.2798Z" fill="#FF8B7B"/>
<g opacity="0.2">
<path d="M59.365 86.3248L58.515 88.1648C57.415 87.4098 56.38 86.0148 56.315 84.6948C56.28 83.7448 56.845 82.9648 57.22 82.9798L59.365 86.3248Z" fill="black"/>
</g>
<path d="M55.5001 74.8699C55.723 73.9479 56.1767 73.0977 56.8185 72.3992C57.4603 71.7007 58.2692 71.1769 59.1691 70.8769C60.069 70.5769 61.0304 70.5107 61.9629 70.6844C62.8955 70.8581 63.7685 71.266 64.5001 71.8699C67.8401 74.6199 66.5651 80.1399 64.2901 84.3349C62.2901 88.0299 57.1101 87.1499 55.0851 83.1999C53.7401 80.5799 54.4951 78.8799 55.4751 74.8949" fill="#FF8B7B"/>
<path d="M62.6049 83.0349C62.6049 83.0349 60.7599 82.5349 59.9049 81.2999C59.9049 81.2999 59.8249 82.7599 60.6499 83.5799C61.4749 84.3999 62.6049 83.0349 62.6049 83.0349Z" fill="white"/>
<path d="M55.3901 75.2399C55.3901 75.2399 56.5951 75.5099 56.4651 76.5599C56.3351 77.6099 56.2001 77.7299 56.2001 77.7299L57.5851 78.2849C57.5851 78.2849 57.8801 74.2399 58.9201 74.4699C59.9601 74.6999 59.1351 72.7199 59.8101 72.5699C61.4001 72.2199 65.4551 72.8899 66.5901 75.5999C66.5901 75.5999 66.5901 73.0999 64.9051 71.4949C63.2201 69.8899 59.4051 68.9149 57.5001 70.5399C55.5951 72.1649 55.3901 75.2399 55.3901 75.2399Z" fill="#263238"/>
<path d="M53.0051 76.9548C52.9898 77.9865 53.3834 78.9824 54.1001 79.7248C55.0551 80.7248 56.2151 80.0098 56.5201 78.7248C56.7901 77.5948 56.6251 75.7248 55.3901 75.2248C54.1551 74.7248 53.0401 75.6748 53.0051 76.9398" fill="#FF8B7B"/>
<path d="M60.7752 78.6497C60.6752 78.9697 60.7752 79.2797 60.9702 79.3447C61.1652 79.4097 61.4252 79.2047 61.5252 78.8897C61.6252 78.5747 61.5252 78.2597 61.3302 78.1947C61.1352 78.1297 60.8702 78.3347 60.7752 78.6497Z" fill="#263238"/>
<path d="M64.2752 79.6998C64.1752 80.0198 64.2752 80.3298 64.4702 80.3948C64.6652 80.4598 64.9302 80.2548 65.0302 79.9348C65.1302 79.6148 65.0302 79.3048 64.8302 79.2398C64.6302 79.1748 64.3752 79.3798 64.2752 79.6998Z" fill="black"/>
<path d="M65.9352 78.6649C65.9083 78.6541 65.8844 78.6372 65.8653 78.6155C65.8462 78.5937 65.8324 78.5679 65.8252 78.5399C65.8081 78.4262 65.7683 78.3172 65.7082 78.2192C65.6481 78.1213 65.5688 78.0365 65.4752 77.9699C65.2731 77.8619 65.0401 77.8266 64.8152 77.8699C64.7728 77.8792 64.7285 77.8719 64.6913 77.8496C64.6542 77.8273 64.6269 77.7916 64.6152 77.7499C64.61 77.7292 64.609 77.7077 64.6122 77.6866C64.6155 77.6655 64.6229 77.6453 64.6341 77.6271C64.6453 77.6089 64.66 77.5932 64.6773 77.5808C64.6947 77.5684 64.7143 77.5596 64.7352 77.5549C65.0471 77.4896 65.3721 77.5393 65.6502 77.6949C65.7828 77.7833 65.8957 77.8983 65.9818 78.0325C66.0678 78.1668 66.1252 78.3174 66.1502 78.4749C66.1553 78.4956 66.156 78.5172 66.1524 78.5382C66.1488 78.5593 66.1409 78.5793 66.1291 78.5972C66.1174 78.615 66.1021 78.6302 66.0842 78.6419C66.0663 78.6535 66.0462 78.6614 66.0252 78.6649C65.9957 78.6732 65.9646 78.6732 65.9352 78.6649Z" fill="#263238"/>
<path d="M60.4802 77.0749C60.4537 77.0672 60.4297 77.0528 60.4104 77.033C60.3912 77.0133 60.3773 76.9889 60.3703 76.9622C60.3633 76.9355 60.3632 76.9075 60.3702 76.8808C60.3772 76.8541 60.3909 76.8297 60.4102 76.8099C60.6346 76.5853 60.9332 76.4502 61.2502 76.4299C61.4088 76.4322 61.5652 76.4671 61.7097 76.5325C61.8542 76.5979 61.9837 76.6923 62.0902 76.8099C62.1098 76.8238 62.1261 76.8418 62.138 76.8627C62.15 76.8835 62.1572 76.9067 62.1592 76.9306C62.1613 76.9546 62.1581 76.9787 62.1498 77.0012C62.1416 77.0238 62.1285 77.0443 62.1115 77.0613C62.0945 77.0783 62.074 77.0913 62.0515 77.0996C62.0289 77.1078 62.0048 77.1111 61.9809 77.109C61.9569 77.107 61.9337 77.0998 61.9129 77.0878C61.892 77.0759 61.874 77.0595 61.8602 77.0399C61.7842 76.9548 61.692 76.8857 61.589 76.8368C61.4859 76.7878 61.3741 76.76 61.2602 76.7549C61.0282 76.7715 60.81 76.8709 60.6452 77.0349C60.6242 77.0564 60.5976 77.0715 60.5684 77.0786C60.5392 77.0857 60.5086 77.0844 60.4802 77.0749Z" fill="#263238"/>
<path d="M63.165 78.8149C63.132 79.5162 63.3058 80.2117 63.665 80.8149C64.25 81.7399 62.49 81.8399 62.49 81.8399L63.165 78.8149Z" fill="#BA4D3C"/>
</svg>
