<svg width="227" height="235" viewBox="0 0 227 235" fill="none" xmlns="http://www.w3.org/2000/svg">
<path d="M77.4178 73.3266C84.2452 72.2656 84.102 57.7196 72.0545 53.481C60.0071 49.2424 66.2191 39.805 72.1925 41.8898C78.1658 43.9746 78.2666 57.9053 87.2637 59.1466C96.2608 60.388 98.1546 42.3938 93.2105 36.6008C88.2663 30.8079 98.3562 33.2004 99.5764 31.4604C101.523 28.6488 95.0513 15.1531 102.112 16.3467C105.608 16.9355 101.942 25.6197 104.558 38.5265C107.173 51.4333 110.308 57.8575 116.228 50.993C122.149 44.1285 115.629 38.744 119.968 35.4815C124.308 32.219 127.809 35.1897 127.395 39.2904C126.981 43.3911 126.801 47.4228 129.676 45.9533C132.552 44.4839 137.284 37.6193 139.634 32.2243C141.984 26.8292 144.657 27.174 144.875 31.1951C145.092 35.2162 134.398 43.9693 134.122 49.9585C133.846 55.9478 138.016 66.7963 147.49 59.5816C156.965 52.367 159.161 49.741 162.439 53.5977C165.718 57.4544 163.283 63.7672 168.646 63.677C174.009 63.5868 180.694 49.3167 184.068 50.4148C187.441 51.5129 193.813 54.6162 182.216 61.0246C170.62 67.4329 166.689 67.157 167.203 74.1489C167.718 81.1407 194.879 81.9736 192.136 86.6101C189.394 91.2466 159.002 90.6896 155.83 102.111C152.657 113.532 169.092 111.787 166.217 118.18C163.341 124.572 156.668 115.442 150.636 110.047C144.604 104.652 144.477 108.689 139.172 110.392C133.867 112.095 132.705 109.071 129.3 108.212C125.894 107.352 127.973 114.339 122.849 113.596C117.724 112.853 121.257 111.803 117.788 110.472C114.319 109.14 111.321 122.37 103.863 120.307C96.404 118.243 91.8683 112.217 87.2 116.471C82.5317 120.726 85.9428 129.76 79.2851 129.134C72.6275 128.508 74.9881 122.301 77.8051 121.58C80.622 120.859 88.2292 110.652 86.9136 106.726C85.5979 102.801 72.9139 113.257 70.2084 107.883C67.5029 102.509 65.1582 97.8989 58.665 99.5169C52.1718 101.135 51.1798 92.0901 56.2618 92.228C61.3439 92.3659 73.1367 93.2518 74.0598 88.9973C74.9828 84.7428 71.9697 79.979 63.9486 75.9632C55.9276 71.9474 63.8001 63.8256 69.4392 68.3135C75.0783 72.8014 72.0174 74.1436 77.4178 73.3266Z" fill="#6CC832"/>
<path d="M21.7693 139.484L17.2336 129.818H33.9547L21.7693 139.484Z" stroke="#263238" stroke-linecap="round" stroke-linejoin="round"/>
<path d="M93.9901 72.5628L96.0855 78.1966L86.7012 77.4168L93.9901 72.5628Z" stroke="#263238" stroke-linecap="round" stroke-linejoin="round"/>
<path d="M96.4199 14.7234L101.444 17.153L96.4199 19.6092L101.444 22.7179L96.4199 26.0812L102.054 28.6859L97.6135 32.8237" stroke="#263238" stroke-linecap="round" stroke-linejoin="round"/>
<path d="M196.014 163.68L194.322 173.998H205.123L205.966 170.82L198.773 170.757L200.147 163.24L196.014 163.68Z" stroke="#263238" stroke-linecap="round" stroke-linejoin="round"/>
<path d="M176.448 196.715C178.225 194.938 178.225 192.056 176.448 190.278C174.67 188.501 171.788 188.501 170.011 190.278C168.233 192.056 168.233 194.938 170.011 196.715C171.788 198.493 174.67 198.493 176.448 196.715Z" stroke="#263238" stroke-linecap="round" stroke-linejoin="round"/>
<path d="M65.2376 48.3566C67.7514 48.3566 69.7892 46.3187 69.7892 43.805C69.7892 41.2912 67.7514 39.2534 65.2376 39.2534C62.7239 39.2534 60.686 41.2912 60.686 43.805C60.686 46.3187 62.7239 48.3566 65.2376 48.3566Z" stroke="#263238" stroke-linecap="round" stroke-linejoin="round"/>
<path d="M204.826 120.997L214.852 126.731" stroke="#263238" stroke-linecap="round" stroke-linejoin="round"/>
<path d="M211.77 120.742L207.908 128.344" stroke="#263238" stroke-linecap="round" stroke-linejoin="round"/>
<path d="M156.583 86.2706L145.724 90.2121" stroke="#263238" stroke-linecap="round" stroke-linejoin="round"/>
<path d="M152.286 91.7294L148.981 83.8676" stroke="#263238" stroke-linecap="round" stroke-linejoin="round"/>
<path d="M53.6465 126.62C53.5722 126.821 61.5402 123.177 61.5402 123.177L65.434 132.094L57.535 135.537L53.6465 126.62Z" stroke="#263238" stroke-linecap="round" stroke-linejoin="round"/>
<path d="M162.97 114.673C162.885 114.673 165.092 117.326 165.092 117.326L162.116 119.702L159.994 117.05L162.97 114.673Z" stroke="#263238" stroke-linecap="round" stroke-linejoin="round"/>
<path d="M17.2337 89.9256C17.2337 90.3274 17.1146 90.7202 16.8913 91.0544C16.668 91.3885 16.3507 91.6489 15.9795 91.8027C15.6082 91.9565 15.1997 91.9967 14.8056 91.9183C14.4114 91.8399 14.0494 91.6464 13.7653 91.3623C13.4811 91.0781 13.2876 90.7161 13.2092 90.322C13.1308 89.9278 13.171 89.5193 13.3248 89.1481C13.4786 88.7768 13.739 88.4595 14.0731 88.2362C14.4073 88.013 14.8001 87.8938 15.2019 87.8938C15.469 87.8931 15.7335 87.9452 15.9803 88.047C16.2271 88.1489 16.4514 88.2985 16.6402 88.4873C16.829 88.6761 16.9786 88.9004 17.0805 89.1472C17.1823 89.3941 17.2344 89.6586 17.2337 89.9256Z" stroke="#263238" stroke-linecap="round" stroke-linejoin="round"/>
<path d="M140.233 16.7499C140.234 17.1519 140.116 17.5453 139.893 17.8801C139.671 18.2149 139.354 18.4762 138.983 18.6308C138.611 18.7854 138.203 18.8263 137.808 18.7485C137.414 18.6708 137.051 18.4777 136.767 18.1937C136.482 17.9098 136.288 17.5478 136.209 17.1535C136.13 16.7592 136.17 16.3504 136.324 15.9789C136.477 15.6073 136.738 15.2897 137.072 15.0662C137.406 14.8427 137.799 14.7234 138.201 14.7234C138.739 14.7234 139.255 14.9367 139.636 15.3166C140.017 15.6965 140.232 16.2119 140.233 16.7499Z" stroke="#263238" stroke-linecap="round" stroke-linejoin="round"/>
<path d="M165.829 139.161L167.988 142.768L163.575 143.113L164.747 146.487L159.856 146.858L162.233 153.335" stroke="#263238" stroke-linecap="round" stroke-linejoin="round"/>
<path d="M51.3812 168.555L55.1901 170.847L50.0921 175.006L53.2857 177.022L49.1797 181.573" stroke="#263238" stroke-linecap="round" stroke-linejoin="round"/>
<path d="M161.453 52.4572L158.312 49.3061L164.269 46.5104L161.665 43.7784L166.752 40.3621" stroke="#263238" stroke-linecap="round" stroke-linejoin="round"/>
<path d="M38.7292 54.2129C38.7292 54.2129 61.4448 87.6338 93.4652 93.2304" stroke="#263238" stroke-linecap="round" stroke-linejoin="round"/>
<path d="M32.968 61.3055C32.968 61.3055 65.503 95.3259 91.3962 97.2462" stroke="#263238" stroke-linecap="round" stroke-linejoin="round"/>
<path d="M30.3474 72.0267C30.3474 72.0267 63.4977 100.201 88.7331 101.793" stroke="#263238" stroke-linecap="round" stroke-linejoin="round"/>
<path d="M30.3474 83.7081C30.3474 83.7081 57.7525 104.753 86.7332 105.103" stroke="#263238" stroke-linecap="round" stroke-linejoin="round"/>
<path d="M58.4104 69.3584C57.5934 68.5013 57.0583 67.4146 56.8773 66.2444C56.7703 65.6581 56.7524 65.059 56.8242 64.4673L49.5724 77.5757C49.1993 76.4014 48.489 75.3627 47.53 74.589C45.4823 72.8649 42.9042 72.552 41.7742 73.8994C40.6443 75.2468 41.387 77.7295 43.4346 79.4536C45.4823 81.1777 48.0605 81.4854 49.1958 80.1433C49.3675 79.9342 49.4988 79.6949 49.583 79.4377L55.2911 69.1091C55.8524 70.0469 56.6042 70.8565 57.4979 71.4857C58.1017 71.9139 58.5716 72.5045 58.8533 73.189C59.135 73.8735 59.2168 74.6238 59.0894 75.3529C59.1478 75.1779 60.7445 71.804 58.4104 69.3584Z" fill="#263238"/>
<path d="M62.2883 92.3551C61.5957 91.6241 61.1439 90.6984 60.9939 89.7026C60.9025 89.2075 60.8864 88.7013 60.9462 88.2014L54.8243 99.3045C54.5099 98.3118 53.9103 97.4336 53.1002 96.7794C51.3708 95.3205 49.1905 95.0606 48.2356 96.1958C47.2807 97.3311 47.9067 99.4318 49.6414 100.891C51.3761 102.35 53.5511 102.609 54.506 101.474C54.6521 101.299 54.7637 101.097 54.8349 100.88L59.6624 92.1482C60.137 92.9404 60.7733 93.6236 61.5297 94.1535C62.0367 94.5184 62.4299 95.0196 62.6637 95.5989C62.8975 96.1782 62.9623 96.8119 62.8506 97.4266C62.9143 97.278 64.2617 94.424 62.2883 92.3551Z" fill="#263238"/>
<path d="M84.8128 90.2332C84.306 89.6799 83.9242 89.0239 83.6935 88.3099C83.4629 87.5959 83.3887 86.8406 83.476 86.0953L77.3435 97.1879C77.0286 96.1926 76.427 95.3124 75.6141 94.6574C73.8847 93.1986 71.7044 92.9387 70.7495 94.0739C69.7947 95.2092 70.4206 97.3152 72.1553 98.7687C73.89 100.222 76.065 100.493 77.0199 99.3523C77.166 99.1767 77.2776 98.9751 77.3488 98.7581L82.1816 90.0263C82.6525 90.8196 83.2873 91.5032 84.0436 92.0315C84.5506 92.3967 84.9441 92.8977 85.1788 93.4768C85.4134 94.0559 85.4797 94.6895 85.3698 95.3046C85.4388 95.1561 86.7862 92.2968 84.8128 90.2332Z" fill="#263238"/>
<path d="M166.026 72.202C159.75 87.1936 167.882 103.124 185.489 105.464C203.096 107.803 211.977 95.4269 204.422 91.5171C196.868 87.6074 197.791 81.8569 196.051 69.3904C194.311 56.9239 172.291 57.2316 166.026 72.202ZM194.343 84.9709C186.752 90.8806 188.508 80.727 191.234 79.8145C193.961 78.9021 197.197 82.7641 194.343 84.9709Z" fill="#999999" stroke="#263238" stroke-linecap="round" stroke-linejoin="round"/>
<path d="M189.134 65.7884C187.288 65.4064 186.078 67.7406 184.619 68.4409C185.341 69.7463 186.14 71.0076 187.012 72.2179C187.142 72.0659 187.305 71.9464 187.489 71.869C187.674 71.7916 187.873 71.7585 188.073 71.7723C188.364 71.8217 188.651 71.8926 188.932 71.9845C189.318 72.0698 189.72 72.0402 190.089 71.8994C190.458 71.7586 190.778 71.5127 191.009 71.1921C191.24 70.8715 191.372 70.4903 191.388 70.0957C191.405 69.701 191.305 69.3101 191.102 68.9713C190.985 68.7804 190.837 68.5682 190.9 68.356C190.964 68.1438 191.245 68.0271 191.309 67.8255C191.33 67.6698 191.29 67.5121 191.197 67.3852C190.986 66.9883 190.692 66.6408 190.337 66.3656C189.981 66.0904 189.571 65.8937 189.134 65.7884Z" fill="#6CC832" stroke="#263238" stroke-linecap="round" stroke-linejoin="round"/>
<path d="M177.962 68.3188C176.943 68.1119 175.803 68.1597 174.986 67.5178C174.821 67.3455 174.617 67.2161 174.391 67.1411C174.106 67.1316 173.828 67.2345 173.617 67.4276C172.584 68.0443 171.693 68.8723 171.002 69.8572C170.386 70.8864 170.28 72.3134 171.076 73.2099C171.516 73.7033 172.222 74.0693 172.269 74.7271C172.317 75.3849 170.964 77.0772 172.604 77.2151C173.131 77.202 173.642 77.028 174.068 76.7165C174.864 76.2602 175.972 76.5149 176.63 75.9632C177.192 75.4804 176.657 74.4831 177.564 74.1648C178.147 73.9579 179.41 74.6104 179.569 73.6343C179.675 72.9341 178.683 72.6847 178.444 72.1383C178.377 71.9332 178.371 71.7128 178.428 71.5044C178.484 71.296 178.601 71.1088 178.763 70.9659C179.094 70.6914 179.476 70.4842 179.887 70.3559C180.105 69.3108 178.959 68.5204 177.962 68.3188Z" fill="#6CC832" stroke="#263238" stroke-linecap="round" stroke-linejoin="round"/>
<path d="M177.474 83.4377C177.246 83.2574 176.041 83.6871 175.521 83.1248C173.474 80.9179 168.259 88.5623 171.654 89.7824C171.888 89.8376 172.11 89.9327 172.312 90.0636C173.018 90.6524 172.137 92.0105 172.795 92.6524C173.453 93.2942 174.349 92.4773 175.182 92.5144C175.495 92.581 175.812 92.6218 176.131 92.6364C176.558 92.529 176.928 92.2635 177.166 91.8937C178.015 90.8805 178.996 89.5914 178.842 88.1803C178.731 87.1193 177.978 85.9894 177.643 84.9974C177.368 84.1804 178.153 84.1327 177.474 83.4377Z" fill="#6CC832" stroke="#263238" stroke-linecap="round" stroke-linejoin="round"/>
<path d="M187.214 94.9707C186.845 94.5431 186.518 94.0812 186.237 93.5914C185.893 93.1511 185.229 92.8275 184.773 93.1617C184.561 93.3155 184.428 93.5914 184.174 93.6603C183.967 93.6809 183.759 93.648 183.569 93.5649C183.281 93.4863 182.976 93.4936 182.693 93.5857C182.409 93.6778 182.158 93.8508 181.971 94.0834C181.784 94.316 181.669 94.5982 181.64 94.8953C181.611 95.1924 181.669 95.4914 181.808 95.7558C182.455 97.0077 183.028 100.62 184.19 100.387C185.086 100.201 185.85 101.358 186.672 101.146C188.036 100.801 188.991 96.5727 188.046 95.5913C187.808 95.342 187.473 95.1988 187.214 94.9707Z" fill="#6CC832" stroke="#263238" stroke-linecap="round" stroke-linejoin="round"/>
<path d="M198.471 95.8299C197.936 95.5858 197.38 95.3922 196.81 95.2517C196.299 95.0757 195.75 95.0355 195.219 95.135C194.95 95.1949 194.716 95.3568 194.564 95.5864C194.413 95.816 194.356 96.0954 194.407 96.3657C194.481 96.5991 194.662 96.7901 194.741 97.0182C195.049 97.8935 193.426 99.4532 194.863 99.9571C196.083 100.382 198.349 100.153 199.319 99.2198C200.98 97.5859 199.882 96.4877 198.471 95.8299Z" fill="#6CC832" stroke="#263238" stroke-linecap="round" stroke-linejoin="round"/>
<path d="M205.25 76.2178L207.054 73.8837L209.483 75.4274L207.701 78.0215L205.25 76.2178Z" fill="#BFBFBF" stroke="#263238" stroke-linecap="round" stroke-linejoin="round"/>
<path d="M205.07 75.5493C195.123 90.2492 189.208 100.716 186.503 105.724C186.444 105.828 186.426 105.951 186.454 106.068C186.482 106.185 186.553 106.287 186.653 106.354C186.752 106.421 186.874 106.448 186.992 106.429C187.111 106.411 187.218 106.348 187.293 106.254C190.476 102.488 196.974 94.3021 208.173 78.0744C208.773 77.2522 205.637 74.7376 205.07 75.5493Z" fill="#263238"/>
<path d="M206.847 73.7987C207.353 74.6321 208.078 75.3109 208.942 75.7615C208.942 75.7615 213.642 75.7615 215.032 70.3028C216.422 64.844 219.101 63.6769 219.101 63.6769C218.934 63.5361 218.735 63.4375 218.522 63.3895C218.309 63.3415 218.087 63.3455 217.876 63.4011L218.528 62.6743C218.184 62.5237 217.807 62.467 217.434 62.5099C217.061 62.5527 216.707 62.6937 216.406 62.9183L216.571 61.8574C215.997 62.812 215.087 63.5178 214.019 63.8361C212.332 64.2127 205.117 67.1994 206.847 73.7987Z" fill="white"/>
<mask id="mask0_298_292" style="mask-type:luminance" maskUnits="userSpaceOnUse" x="206" y="61" width="14" height="15">
<path d="M206.847 73.7987C207.353 74.6321 208.078 75.3109 208.942 75.7615C208.942 75.7615 213.642 75.7615 215.032 70.3028C216.422 64.844 219.101 63.6769 219.101 63.6769C218.934 63.5361 218.735 63.4375 218.522 63.3895C218.309 63.3415 218.087 63.3455 217.876 63.4011L218.528 62.6743C218.184 62.5237 217.807 62.467 217.434 62.5099C217.061 62.5527 216.707 62.6937 216.406 62.9183L216.571 61.8574C215.997 62.812 215.087 63.5178 214.019 63.8361C212.332 64.2127 205.117 67.1994 206.847 73.7987Z" fill="white"/>
</mask>
<g mask="url(#mask0_298_292)">
<path d="M215.032 70.3028C214.9 70.8264 214.722 71.3376 214.502 71.8306C214.602 70.5043 215.133 68.6476 214.502 68.4195C213.52 68.0588 213.292 70.0428 213.138 69.3797C212.984 68.7166 213.839 67.5071 213.732 66.7273C213.626 65.9474 212.433 67.3373 211.695 67.5283C210.958 67.7193 212.942 65.4488 212.677 64.8759C212.544 64.7029 212.357 64.5796 212.146 64.5257C212.736 64.2313 213.355 63.9984 213.992 63.8308C215.059 63.5138 215.969 62.81 216.544 61.8574L216.38 62.9183C216.68 62.6937 217.035 62.5527 217.408 62.5099C217.78 62.467 218.158 62.5237 218.502 62.6743L217.849 63.4064C218.059 63.3473 218.28 63.341 218.493 63.3882C218.706 63.4355 218.904 63.5346 219.069 63.6769C219.069 63.6769 216.422 64.844 215.032 70.3028Z" fill="#6CC832"/>
</g>
<path d="M206.847 73.7987C207.353 74.6321 208.078 75.3109 208.942 75.7615C208.942 75.7615 213.642 75.7615 215.032 70.3028C216.422 64.844 219.101 63.6769 219.101 63.6769C218.934 63.5361 218.735 63.4375 218.522 63.3895C218.309 63.3415 218.087 63.3455 217.876 63.4011L218.528 62.6743C218.184 62.5237 217.807 62.467 217.434 62.5099C217.061 62.5527 216.707 62.6937 216.406 62.9183L216.571 61.8574C215.997 62.812 215.087 63.5178 214.019 63.8361C212.332 64.2127 205.117 67.1994 206.847 73.7987Z" stroke="#263238" stroke-linecap="round" stroke-linejoin="round"/>
<path d="M109.417 82.0427C109.417 82.0427 106.144 82.8013 108.791 86.3715C108.791 86.3715 105.799 86.8649 107.889 90.5147C107.889 90.5147 106.08 92.0478 108.329 94.7586C108.329 94.7586 107.268 97.411 112.536 101.024C112.536 101.024 112.499 103.278 116.149 104.143C119.332 104.896 120.196 103.565 120.196 103.565C120.196 103.565 124.387 103.034 126.69 99.5913C126.69 99.5913 130.403 98.4614 129.316 96.2015C129.316 96.2015 132.307 93.8673 130.716 92.3555C130.716 92.3555 134.154 88.8913 132.419 87.7402C129.374 85.7296 109.417 82.0427 109.417 82.0427Z" fill="#263238" stroke="#263238" stroke-linecap="round" stroke-linejoin="round"/>
<path d="M134.308 41.3168C153.023 49.0938 153.262 67.1994 146.838 76.2337C141.002 84.4616 133.109 83.8409 132.419 87.7771C131.729 91.7134 109.714 85.9788 108.69 83.1619C107.666 80.345 112.234 80.7269 103.778 69.4381C95.3219 58.1493 111.327 31.768 134.308 41.3168Z" fill="white"/>
<mask id="mask1_298_292" style="mask-type:luminance" maskUnits="userSpaceOnUse" x="101" y="39" width="50" height="51">
<path d="M134.308 41.3168C153.023 49.0938 153.262 67.1994 146.838 76.2337C141.002 84.4616 133.109 83.8409 132.419 87.7771C131.729 91.7134 109.714 85.9788 108.69 83.1619C107.666 80.345 112.234 80.7269 103.778 69.4381C95.3219 58.1493 111.327 31.768 134.308 41.3168Z" fill="white"/>
</mask>
<g mask="url(#mask1_298_292)">
<path opacity="0.4" d="M132.424 87.756C131.735 91.6922 109.714 85.9523 108.69 83.1407C107.666 80.3291 112.234 80.7005 103.778 69.417C95.3219 58.1334 111.327 31.7522 134.308 41.301C136.556 42.2181 138.691 43.3893 140.673 44.7916C131.273 42.7227 118.499 42.362 111.454 55.3165C103.788 69.4223 115.698 82.2495 121.714 83.2468C121.714 83.2468 116.748 79.6289 115.093 73.5442C115.093 73.5442 123.581 86.1168 136.843 84.016C134.472 85.146 132.732 85.9948 132.424 87.756Z" fill="#6CC832"/>
</g>
<path d="M134.308 41.3168C153.023 49.0938 153.262 67.1994 146.838 76.2337C141.002 84.4616 133.109 83.8409 132.419 87.7771C131.729 91.7134 109.714 85.9788 108.69 83.1619C107.666 80.345 112.234 80.7269 103.778 69.4381C95.3219 58.1493 111.327 31.768 134.308 41.3168Z" stroke="#263238" stroke-linecap="round" stroke-linejoin="round"/>
<path d="M129.268 92.7744C129.268 92.7744 120.456 95.7398 109.396 91.3156" stroke="white" stroke-linecap="round" stroke-linejoin="round"/>
<path d="M124.112 90.122C124.637 90.0851 125.16 90.016 125.677 89.9151" stroke="white" stroke-linecap="round" stroke-linejoin="round"/>
<path d="M110.075 87.2255C113.622 88.7404 117.378 89.7081 121.215 90.0954" stroke="white" stroke-linecap="round" stroke-linejoin="round"/>
<path d="M116.101 96.8062C119.772 97.3844 123.666 97.4958 127.241 96.3924" stroke="white" stroke-linecap="round" stroke-linejoin="round"/>
<path d="M109.81 95.2678C111.257 95.774 112.737 96.1817 114.239 96.4879" stroke="white" stroke-linecap="round" stroke-linejoin="round"/>
<path d="M121.73 100.1C118.435 99.7295 115.216 98.862 112.181 97.5276" stroke="white" stroke-linecap="round" stroke-linejoin="round"/>
<path d="M124.849 100.201C124.371 100.228 123.889 100.201 123.406 100.201" stroke="white" stroke-linecap="round" stroke-linejoin="round"/>
<path d="M113.337 101.602C115.112 102.859 117.221 103.557 119.396 103.607" stroke="white" stroke-linecap="round" stroke-linejoin="round"/>
<path d="M131.247 86.9761C131.247 86.9761 121.836 80.9285 110.828 81.5121" stroke="#263238" stroke-linecap="round" stroke-linejoin="round"/>
<path d="M124.658 85.2626C124.658 85.2626 130.053 73.5016 137.586 72.7059C137.586 72.7059 133.024 69.0402 131.247 68.4885C129.47 67.9368 128.34 71.8147 129.581 71.4009C130.822 70.9871 132.594 65.608 130.477 64.2022C128.361 62.7964 124.276 69.7882 125.48 70.3611C126.684 70.9341 128.186 63.5762 125.236 62.7433C122.287 61.9104 120.101 68.2551 121.486 68.3824C122.87 68.5097 123.348 65.73 120.197 64.7008C116.786 63.5603 112.51 65.2313 112.51 65.2313C112.51 65.2313 119.114 73.1462 116.934 83.2255" stroke="#263238" stroke-linecap="round" stroke-linejoin="round"/>
<path d="M144.519 227.784C147.23 224.426 148.848 214.787 148.848 214.787C151.148 216.494 153.164 218.553 154.822 220.888C157.841 220.438 160.809 219.697 163.686 218.676C166.647 217.661 169.463 216.265 172.062 214.522C166.296 206.034 156.535 191.573 150.525 187.027C148.201 185.271 141.002 183.557 141.002 183.557C139.374 182.082 135.819 183.557 135.819 183.557C116.589 188.448 99.0034 182.114 99.0034 182.114C99.0034 182.114 96.5101 180.963 94.4677 182.114C92.4791 181.894 90.4724 181.894 88.4838 182.114C84.0807 182.719 79.2692 187.748 77.2851 190.035L60.389 209.604C60.389 209.604 59.8214 217.307 61.015 218.326C70.5638 226.511 84.643 207.912 84.643 207.912C84.7332 207.949 84.9507 224.108 92.489 232.559C92.489 232.559 97.831 234.999 118.605 233.089C139.22 231.195 144.519 227.784 144.519 227.784Z" fill="#6CC832"/>
<path opacity="0.2" d="M72.463 203.822C69.28 204.103 67.609 203.339 66.9724 201.981C71.5771 196.676 76.9509 190.427 77.2851 190.04L77.8156 189.435C80.2028 194.777 82.1869 202.973 72.463 203.822Z" fill="black"/>
<path opacity="0.2" d="M86.6112 220.676C85.5307 216.49 84.8714 212.207 84.6431 207.891C84.6431 207.891 86.956 204.862 87.5979 201.679C87.5979 201.7 90.6005 213.673 86.6112 220.676Z" fill="black"/>
<path opacity="0.2" d="M153.066 218.676C151.812 217.224 150.397 215.919 148.848 214.787C148.848 214.787 149.076 207.185 151.198 204.883C152.906 203.031 154.726 212.665 153.066 218.676Z" fill="black"/>
<path d="M144.52 227.784C147.23 224.426 148.848 214.787 148.848 214.787C151.148 216.494 153.164 218.553 154.822 220.888" stroke="#263238" stroke-linecap="round" stroke-linejoin="round"/>
<path d="M172.062 214.522C166.296 206.034 156.535 191.573 150.525 187.027C148.201 185.271 141.002 183.557 141.002 183.557C139.374 182.082 135.819 183.557 135.819 183.557C116.589 188.448 99.0034 182.114 99.0034 182.114C99.0034 182.114 96.5101 180.963 94.4677 182.114C92.4791 181.894 90.4724 181.894 88.4838 182.114C84.0807 182.719 79.2692 187.748 77.2851 190.035L60.389 209.604C60.389 209.604 59.8214 217.307 61.015 218.326C70.5638 226.511 84.643 207.912 84.643 207.912C84.7332 207.949 84.9507 224.108 92.489 232.559" stroke="#263238" stroke-linecap="round" stroke-linejoin="round"/>
<path d="M136.52 178.889L136.265 178.995C136.355 178.973 136.441 178.937 136.52 178.889Z" fill="#263238"/>
<path d="M142.244 164.576C144.26 164.873 144.753 163.393 144.753 163.393C144.753 163.393 142.244 164.576 140.021 160.025C138.758 157.431 139.384 152.667 140.154 149.049C141.708 146.487 143.962 142.943 144.26 138.741C144.79 131.527 141.4 127.872 137.49 128.943C137.49 128.943 137.204 122.848 131.703 120.662C126.202 118.477 125.337 120.27 120.032 118.944C114.727 117.617 109.539 118.774 107.64 122.206C105.741 125.638 105.093 131.872 101.852 134.285C98.6109 136.699 92.9399 142.508 94.733 149.006C96.5261 155.505 95.5075 157.728 93.1415 160.799C90.7755 163.871 92.2185 169.918 96.7329 171.817C96.7329 171.817 94.8179 170.794 96.1706 169.08C96.1706 169.08 97.2316 173.154 100.77 172.412C104.308 171.669 108.802 171.42 111.093 173.929C113.385 176.438 121.761 177.112 123.65 175.202C125.539 173.292 127.003 175.064 130.424 176.793C133.846 178.523 137.644 177.006 137.644 177.006C137.644 177.006 137.326 178.486 136.509 178.926C137.204 178.634 139.13 177.717 139.692 176.337C140.254 174.958 140.573 173.626 139.899 170.406C142.27 169.478 141.177 167.908 141.177 167.908C143.416 169.165 144.477 165.452 144.477 165.452C142.392 165.42 142.244 164.576 142.244 164.576Z" fill="#263238"/>
<path d="M137.745 184.22C137.745 184.22 122.769 190.883 117.958 191.154C113.146 191.424 96.7805 182.719 96.7805 182.719L109.258 179.313C110.955 176.077 110.998 172.268 110.589 167.807C110.462 166.422 110.297 165.117 110.117 163.945C109.693 161.117 109.221 159.144 109.221 159.144L126.854 159.876C126.487 160.997 126.184 162.137 125.947 163.292C125.459 165.688 125.181 168.122 125.114 170.566C124.912 176.666 125.857 180.114 125.857 180.114L137.745 184.22Z" fill="white" stroke="#263238" stroke-linecap="round" stroke-linejoin="round"/>
<path d="M101.29 185.011C101.29 185.011 110.733 186.666 113.077 186.395C115.422 186.125 117.263 188.432 117.263 188.432" fill="white"/>
<path d="M101.29 185.011C101.29 185.011 110.733 186.666 113.077 186.395C115.422 186.125 117.263 188.432 117.263 188.432" stroke="#263238" stroke-linecap="round" stroke-linejoin="round"/>
<path d="M134.472 185.61C134.472 185.61 124.849 186.671 122.52 186.724C120.191 186.777 119.501 188.432 119.501 188.432" fill="white"/>
<path d="M134.472 185.61C134.472 185.61 124.849 186.671 122.52 186.724C120.191 186.777 119.501 188.432 119.501 188.432" stroke="#263238" stroke-linecap="round" stroke-linejoin="round"/>
<path d="M125.947 163.292C125.459 165.688 125.181 168.122 125.114 170.566C123.667 171.841 121.991 172.831 120.175 173.483C117.21 174.465 113.279 170.831 110.589 167.807C110.462 166.422 110.298 165.117 110.117 163.945L125.947 163.292Z" fill="#263238"/>
<path d="M105.125 144.301C105.125 144.301 103.672 142.068 102.377 142.518C101.083 142.969 101.083 149.006 101.184 150.598C101.285 152.189 104.452 155.685 105.778 154.725" fill="white"/>
<path d="M105.125 144.301C105.125 144.301 103.672 142.068 102.377 142.518C101.083 142.969 101.083 149.006 101.184 150.598C101.285 152.189 104.452 155.685 105.778 154.725" stroke="#263238" stroke-linecap="round" stroke-linejoin="round"/>
<path d="M137.05 149.006C137.05 149.006 139.082 147.288 140.196 148.094C141.31 148.9 139.559 154.693 139.008 156.173C138.456 157.653 134.408 160.104 133.416 158.799" fill="white"/>
<path d="M137.05 149.006C137.05 149.006 139.082 147.288 140.196 148.094C141.31 148.9 139.559 154.693 139.008 156.173C138.456 157.653 134.408 160.104 133.416 158.799" stroke="#263238" stroke-linecap="round" stroke-linejoin="round"/>
<path d="M117.326 172.173C111.984 171.382 106.679 162.322 106.038 159.77C105.327 156.932 103.762 142.932 106.812 135.261C110.244 126.641 117.422 123.002 124.419 124.031C131.416 125.06 137.241 130.614 138.042 139.861C138.753 148.083 133.215 161.038 131.713 163.552C130.366 165.812 122.965 173 117.326 172.173Z" fill="white" stroke="#263238" stroke-linecap="round" stroke-linejoin="round"/>
<path d="M129.438 149.712C129.294 150.704 128.732 151.441 128.186 151.357C127.639 151.272 127.321 150.412 127.464 149.42C127.607 148.428 128.17 147.696 128.716 147.776C129.263 147.855 129.586 148.72 129.438 149.712Z" fill="#263238"/>
<path d="M111.995 147.144C111.852 148.131 112.175 149.001 112.722 149.081C113.268 149.16 113.825 148.423 113.969 147.431C114.112 146.439 113.793 145.574 113.247 145.495C112.701 145.415 112.144 146.152 111.995 147.144Z" fill="#263238"/>
<path d="M123.942 160.539C123.942 160.539 121.172 165.971 117.639 165.08C114.106 164.189 114.133 159.245 114.133 159.102L114.631 159.293C116.027 159.815 117.475 160.189 118.95 160.407C120.377 160.594 121.819 160.651 123.257 160.576C123.687 160.56 123.942 160.539 123.942 160.539Z" fill="#757575"/>
<path d="M119.332 149.234C119.47 152.646 116.541 153.224 117.104 154.407C117.503 155.151 118.177 155.711 118.982 155.966" fill="white"/>
<path d="M119.332 149.234C119.47 152.646 116.541 153.224 117.104 154.407C117.503 155.151 118.177 155.711 118.982 155.966" stroke="#263238" stroke-linecap="round" stroke-linejoin="round"/>
<path d="M114.133 159.086C114.133 159.086 114.101 164.184 117.639 165.075C121.178 165.966 123.942 160.529 123.942 160.529" stroke="#263238" stroke-linecap="round" stroke-linejoin="round"/>
<path d="M108.839 142.64C108.839 142.64 112.022 138.619 116.96 139.892" stroke="#263238" stroke-linecap="round" stroke-linejoin="round"/>
<path d="M133.289 146.248C133.289 146.248 131.395 141.474 126.308 141.277" stroke="#263238" stroke-linecap="round" stroke-linejoin="round"/>
<path d="M148.212 143.038L147.225 144.131L146.461 144.975L137.618 150.11L137.978 147.632L145.22 143.426L146.785 143.224L148.212 143.038Z" fill="#6CC832" stroke="#263238" stroke-linecap="round" stroke-linejoin="round"/>
<path d="M146.069 145.192C144.758 144.943 145.199 143.42 145.199 143.42L148.191 143.038L146.069 145.192Z" fill="white" stroke="#263238" stroke-linecap="round" stroke-linejoin="round"/>
<path d="M148.19 143.038L147.204 144.126C147.111 144.102 147.025 144.059 146.951 143.999C146.877 143.938 146.817 143.863 146.775 143.777C146.733 143.691 146.71 143.597 146.708 143.502C146.706 143.406 146.725 143.311 146.763 143.224L148.19 143.038Z" fill="#263238"/>
<path d="M129.661 131.41C129.661 131.41 126.303 135.813 119.014 137.086C109.884 138.678 104.844 146.571 104.972 149.866C103.177 145.245 102.637 140.232 103.407 135.336C105.221 123.219 116.526 119.755 124.743 120.599C132.96 121.442 136.944 129.681 136.944 129.681C136.944 129.681 143.114 134.487 142.249 140.545C141.39 146.343 139.984 146.508 139.236 147.818C138.207 149.632 139.56 150.391 135.952 153.378C135.952 153.378 137.379 145.282 135.607 139.245C133.836 133.208 129.661 131.41 129.661 131.41Z" fill="#263238"/>
<path d="M131.92 129.378C131.92 129.378 128.7 141.675 110.398 143.595C110.398 143.595 122.727 141.367 128.435 130.105L131.92 129.378Z" fill="#263238"/>
<path d="M118.032 162.412C118.032 162.412 120.547 161.515 121.517 162.412C121.517 162.412 119.862 165.064 117.735 164.417C115.608 163.77 115.157 161.234 115.157 161.234C115.157 161.234 116.308 160.677 118.032 162.412Z" fill="#BFBFBF"/>
<path d="M123.608 160.582L122.891 161.393C120.068 161.753 117.202 161.295 114.632 160.072L114.382 159.192C115.859 159.751 117.39 160.159 118.95 160.406C120.495 160.593 122.053 160.652 123.608 160.582Z" fill="white"/>
<path d="M113.343 158.767C113.343 158.767 119.093 161.446 124.653 160.433" stroke="#263238" stroke-linecap="round" stroke-linejoin="round"/>
<path d="M131.432 126.323C131.432 126.323 127.533 131.431 118.032 132.211C108.531 132.991 105.778 136.927 105.778 136.927" stroke="#757575" stroke-linecap="round" stroke-linejoin="round"/>
<path d="M110.038 126.726C109.157 126.896 107.916 127.209 107.523 128.105" stroke="#757575" stroke-linecap="round" stroke-linejoin="round"/>
<path d="M132.605 122.355C126.875 126.636 119.475 127.129 111.958 126.524" stroke="#757575" stroke-linecap="round" stroke-linejoin="round"/>
<path d="M96.3085 161.515C95.7622 162.081 95.3336 162.751 95.0477 163.484C94.7617 164.217 94.6241 164.999 94.6428 165.786" stroke="#757575" stroke-linecap="round" stroke-linejoin="round"/>
<path d="M103.157 137.638C100.505 139.15 98.3562 141.93 98.213 145.065C97.9743 150.37 101.767 155.144 97.8311 159.765" stroke="#757575" stroke-linecap="round" stroke-linejoin="round"/>
<path d="M102.038 154.89C102.038 154.89 104.977 157.998 103.067 161.16C101.157 164.322 100.17 167.526 104.085 169.86" stroke="#757575" stroke-linecap="round" stroke-linejoin="round"/>
<path d="M123.496 138.577C122.871 138.969 122.222 139.323 121.555 139.638" stroke="#757575" stroke-linecap="round" stroke-linejoin="round"/>
<path d="M130.361 130.747C129.22 133.372 127.429 135.664 125.156 137.405" stroke="#757575" stroke-linecap="round" stroke-linejoin="round"/>
<path d="M132.604 131.187C132.604 131.187 136.578 133.346 138.106 136.927C139.633 140.508 137.48 145.548 138.477 147.288" stroke="#757575" stroke-linecap="round" stroke-linejoin="round"/>
<path d="M138.785 166.115C139.332 166.459 139.932 166.71 140.562 166.857" stroke="#757575" stroke-linecap="round" stroke-linejoin="round"/>
<path d="M135.639 161.16C135.881 162.454 136.427 163.672 137.23 164.714" stroke="#757575" stroke-linecap="round" stroke-linejoin="round"/>
<path d="M134.069 164.009C134.069 164.009 133.698 168.051 136.276 170.725C138.854 173.398 138.101 175.064 138.101 175.064" stroke="#757575" stroke-linecap="round" stroke-linejoin="round"/>
<path d="M129.798 168.635C129.798 168.635 131.337 172.73 128.896 174.093" stroke="#757575" stroke-linecap="round" stroke-linejoin="round"/>
<path d="M135.639 130.063C135.639 130.063 141.442 131.235 142.291 133.776C143.14 136.317 142.291 139.24 142.291 139.24" stroke="#757575" stroke-linecap="round" stroke-linejoin="round"/>
<path d="M61.015 218.325C56.092 215.593 57.0469 205.769 60.3041 193.499C61.8956 187.472 67.4233 172.279 67.3119 171.748C67.014 170.727 66.6049 169.742 66.0918 168.81C66.0918 168.81 67.6832 167.186 68.3517 166.894C71.2216 165.669 76.8872 164.125 79.4919 165.202C80.3036 165.536 81.4813 167.43 81.3168 168.205C81.1524 168.979 78.8288 171.526 79.0516 173.966C79.2744 176.406 77.1578 184.459 77.2161 187.668C77.2161 188.326 77.2533 189.154 77.2904 190.056C77.2904 190.629 77.2904 200.665 73.4284 205.79" fill="#6CC832"/>
<path d="M61.015 218.325C56.092 215.593 57.0469 205.769 60.3041 193.499C61.8956 187.472 67.4233 172.279 67.3119 171.748C67.014 170.727 66.6049 169.742 66.0918 168.81C66.0918 168.81 67.6832 167.186 68.3517 166.894C71.2216 165.669 76.8872 164.125 79.4919 165.202C80.3036 165.536 81.4813 167.43 81.3168 168.205C81.1524 168.979 78.8288 171.526 79.0516 173.966C79.2744 176.406 77.1578 184.459 77.2161 187.668C77.2161 188.326 77.2533 189.154 77.2904 190.056C77.2904 190.629 77.2904 200.665 73.4284 205.79" stroke="#263238" stroke-linecap="round" stroke-linejoin="round"/>
<path d="M77.0198 142.11C77.1259 143.086 79.232 150.067 79.8845 157.16C81.2157 156.677 82.4673 155.997 83.5979 155.144C84.9188 153.988 87.6827 154.911 87.5713 155.675C87.4599 156.439 84.9188 156.311 82.7703 159.197C80.6219 162.083 80.1816 165.282 77.3275 166.82C74.4735 168.359 70.0386 168.905 68.3092 166.852C66.5798 164.799 64.6594 153.908 65.3331 152.773C65.9079 151.944 66.6266 151.226 67.4551 150.651C67.4551 150.651 68.1819 148.529 69.2853 148.365C70.3887 148.2 72.9987 148.147 72.9987 148.147C73.6086 147.695 74.3653 147.487 75.1207 147.564C75.1207 147.564 74.2613 139.394 73.5292 136.651C72.7971 133.909 76.1551 133.925 77.0198 142.11Z" fill="white" stroke="#263238" stroke-linecap="round" stroke-linejoin="round"/>
<path d="M75.1579 147.563C77.4125 148.582 78.4098 152.868 78.4098 153.176C77.9592 154.7 77.4171 156.195 76.7865 157.653C76.2242 158.874 75.0094 157.653 75.0094 157.653C75.0094 157.653 74.638 159.245 73.784 158.55C72.6964 157.653 72.6964 154.752 72.6964 154.752C72.6964 154.752 72.5638 157.165 71.9325 158.343C71.3013 159.521 70.0281 158.736 70.2137 155.25C70.2137 155.25 67.6144 154.614 67.5242 153.977" stroke="#263238" stroke-linecap="round" stroke-linejoin="round"/>
<path d="M72.6964 154.752C72.0598 153.118 69.6143 151.616 69.6143 151.616" stroke="#263238" stroke-linecap="round" stroke-linejoin="round"/>
<path d="M75.0093 157.653C75.0093 157.653 76.2877 153.94 75.9429 153.176C75.5981 152.412 73.4231 150.306 73.4231 150.306" stroke="#263238" stroke-linecap="round" stroke-linejoin="round"/>
<path d="M79.8845 157.176C79.8845 157.176 77.4867 157.706 76.4204 160.762" stroke="#263238" stroke-linecap="round" stroke-linejoin="round"/>
<path d="M67.3118 171.727C67.3118 171.727 71.1843 174.91 75.3487 172.258" stroke="#263238" stroke-linecap="round" stroke-linejoin="round"/>
<path d="M70.569 181.175C69.8236 181.611 69.0247 181.948 68.1924 182.178" stroke="#263238" stroke-linecap="round" stroke-linejoin="round"/>
<path d="M79.8846 170.725C78.0138 174.22 75.4931 177.326 72.4578 179.876" stroke="#263238" stroke-linecap="round" stroke-linejoin="round"/>
<path d="M94.4675 182.114C94.4675 182.114 102.027 189.212 106.451 191.132" stroke="#263238" stroke-linecap="round" stroke-linejoin="round"/>
<path d="M86.9294 189.796C87.2706 190.739 87.4951 191.721 87.5979 192.719" stroke="#263238" stroke-linecap="round" stroke-linejoin="round"/>
<path d="M84.3035 183.78C84.9825 185.058 85.5979 186.379 86.1549 187.721" stroke="#263238" stroke-linecap="round" stroke-linejoin="round"/>
<path d="M115.157 193.499C115.157 193.499 127.528 193.668 135.469 188.247" stroke="#263238" stroke-linecap="round" stroke-linejoin="round"/>
<path d="M141.002 183.557C139.939 184.28 138.967 185.128 138.106 186.082" stroke="#263238" stroke-linecap="round" stroke-linejoin="round"/>
<path d="M147.214 192.623C145.943 193.942 144.495 195.077 142.912 195.997" stroke="#263238" stroke-linecap="round" stroke-linejoin="round"/>
<path d="M149.909 189.324C149.506 189.93 149.071 190.515 148.604 191.074" stroke="#263238" stroke-linecap="round" stroke-linejoin="round"/>
<path d="M84.6431 207.891C84.6431 207.891 87.6615 203.981 87.5979 199.292" stroke="#263238" stroke-linecap="round" stroke-linejoin="round"/>
<path d="M148.848 214.787C148.848 214.787 148.201 206.92 153.718 201.169" stroke="#263238" stroke-linecap="round" stroke-linejoin="round"/>
<path d="M154.821 205.503C155.087 205.769 150.111 210.108 148.928 212.05" stroke="#263238" stroke-linecap="round" stroke-linejoin="round"/>
<path d="M100.446 224.957C100.446 224.957 118.552 232.15 127.931 232.001" stroke="#263238" stroke-linecap="round" stroke-linejoin="round"/>
<path d="M120.112 207.583H117.963C117.615 207.583 117.332 207.866 117.332 208.214V211.493C117.332 211.841 117.615 212.124 117.963 212.124H120.112C120.46 212.124 120.743 211.841 120.743 211.493V208.214C120.743 207.866 120.46 207.583 120.112 207.583Z" fill="#BFBFBF"/>
<path d="M120.112 212.464H117.99C117.733 212.462 117.488 212.359 117.307 212.177C117.126 211.995 117.024 211.749 117.024 211.493V208.214C117.024 207.958 117.126 207.712 117.307 207.53C117.488 207.348 117.733 207.245 117.99 207.244H120.112C120.239 207.244 120.365 207.269 120.482 207.318C120.6 207.366 120.706 207.438 120.796 207.528C120.886 207.618 120.957 207.725 121.005 207.843C121.053 207.961 121.078 208.087 121.077 208.214V211.493C121.078 211.62 121.053 211.746 121.005 211.864C120.957 211.982 120.886 212.089 120.796 212.179C120.706 212.269 120.6 212.341 120.482 212.39C120.365 212.438 120.239 212.464 120.112 212.464ZM117.99 207.917C117.912 207.919 117.838 207.951 117.783 208.006C117.728 208.062 117.698 208.136 117.698 208.214V211.493C117.698 211.57 117.729 211.644 117.783 211.699C117.838 211.754 117.912 211.785 117.99 211.785H120.112C120.15 211.785 120.188 211.778 120.224 211.764C120.26 211.749 120.292 211.728 120.32 211.701C120.347 211.673 120.368 211.641 120.383 211.605C120.397 211.57 120.404 211.531 120.403 211.493V208.214C120.404 208.176 120.397 208.137 120.383 208.101C120.368 208.065 120.347 208.032 120.32 208.005C120.293 207.977 120.26 207.955 120.225 207.94C120.189 207.925 120.15 207.917 120.112 207.917H117.99Z" fill="#263238"/>
<path d="M125.857 180.135C125.857 180.135 135.469 182.114 119.04 207.079C119.04 207.079 99.8999 182.836 109.258 179.313" stroke="#263238" stroke-linecap="round" stroke-linejoin="round"/>
<path d="M119.38 206.83C119.38 207.196 119.215 207.493 119.014 207.493C118.812 207.493 118.647 207.196 118.647 206.83C118.647 206.464 118.812 206.167 119.014 206.167C119.215 206.167 119.38 206.464 119.38 206.83Z" fill="#263238"/>
</svg>
