<svg width="252" height="218" viewBox="0 0 252 218" fill="none" xmlns="http://www.w3.org/2000/svg">
<path d="M1 213.95H251" stroke="#263238" stroke-linecap="round" stroke-linejoin="round"/>
<path d="M193.396 129.617V129.681C193.396 129.786 193.42 129.896 193.466 130.012C193.726 131.286 193.92 132.573 194.047 133.867C194.158 134.977 194.245 136.244 194.268 137.657C194.323 140.921 194.1 144.185 193.6 147.412C193.472 148.26 193.321 149.156 193.141 150.051C192.856 151.527 192.507 153.074 192.077 154.672C191.885 155.416 191.664 156.178 191.431 156.945L191.158 157.881C191.054 158.259 190.949 158.637 190.85 159.044C190.182 161.627 189.648 164.242 189.251 166.88C188.757 170.165 188.449 173.426 188.281 176.513C188.054 180.629 188.066 184.43 188.164 187.558C188.161 187.61 188.161 187.663 188.164 187.715C188.269 190.895 188.467 193.389 188.6 194.807C188.676 195.638 188.728 196.109 188.734 196.138" stroke="#263238" stroke-linecap="round" stroke-linejoin="round"/>
<path d="M193.414 129.698C192.543 128.925 191.495 128.38 190.362 128.111Z" fill="white"/>
<path d="M193.414 129.698C192.543 128.925 191.495 128.38 190.362 128.111" stroke="#263238" stroke-linecap="round" stroke-linejoin="round"/>
<path d="M194.065 133.884L195.611 132.483" stroke="#263238" stroke-linecap="round" stroke-linejoin="round"/>
<path d="M192.094 154.678C192.013 154.27 191.892 153.871 191.734 153.486C191.504 152.922 191.193 152.395 190.809 151.923C190.523 151.567 190.197 151.246 189.838 150.963" stroke="#263238" stroke-linecap="round" stroke-linejoin="round"/>
<path d="M190.856 159.038C191.075 158.495 191.403 158.003 191.82 157.592C192.237 157.181 192.734 156.86 193.28 156.649" stroke="#263238" stroke-linecap="round" stroke-linejoin="round"/>
<path d="M188.17 180.663C188.688 180.036 189.077 177.658 189.286 176.379C189.339 176.077 189.379 175.798 189.42 175.629" fill="white"/>
<path d="M188.17 180.663C188.688 180.036 189.077 177.658 189.286 176.379C189.339 176.077 189.379 175.798 189.42 175.629" stroke="#263238" stroke-linecap="round" stroke-linejoin="round"/>
<path d="M184.188 184.977C184.36 184.96 184.533 184.96 184.705 184.977C185.467 185.051 186.194 185.331 186.808 185.787C187.423 186.242 187.901 186.857 188.193 187.564" fill="white"/>
<path d="M184.188 184.977C184.36 184.96 184.533 184.96 184.705 184.977C185.467 185.051 186.194 185.331 186.808 185.787C187.423 186.242 187.901 186.857 188.193 187.564" stroke="#263238" stroke-linecap="round" stroke-linejoin="round"/>
<path d="M193.158 150.097C193.158 150.097 193.431 140.662 188.251 137.238" stroke="#263238" stroke-linecap="round" stroke-linejoin="round"/>
<path d="M193.6 170.322C194.28 172.525 189.53 176.716 189.53 176.716C189.53 176.716 183.258 175.931 182.554 173.734C181.851 171.537 183.461 167.921 186.508 166.991C189.554 166.06 192.943 168.118 193.6 170.322Z" fill="#6CC832"/>
<path d="M198.884 143.621C198.303 145.947 193.791 147.615 193.791 147.615C193.791 147.615 190.693 143.993 191.274 141.656C191.856 139.319 194.361 136.75 196.466 137.291C198.57 137.831 199.488 141.284 198.884 143.621Z" fill="#6CC832"/>
<path d="M180.869 178.542C183.688 179.635 185.415 184.622 185.415 184.622C185.415 184.622 180.764 187.128 177.95 186.029C175.137 184.93 172.137 181.838 172.951 179.774C173.765 177.71 178.049 177.42 180.869 178.542Z" fill="#6CC832"/>
<path d="M187.048 151.103C187.619 151.583 188.273 151.953 188.978 152.196C189.332 152.31 189.711 152.325 190.073 152.239C190.434 152.153 190.766 151.969 191.03 151.708C191.611 151.016 191.472 149.964 191.094 149.097C190.338 147.441 187.56 144.621 185.426 145.429C182.345 146.609 185.676 150.097 187.048 151.103Z" fill="#6CC832"/>
<path d="M193.356 155.329C192.949 155.829 192.518 156.463 192.745 157.073C192.872 157.33 193.079 157.537 193.336 157.663C193.592 157.789 193.883 157.827 194.164 157.771C194.721 157.638 195.242 157.382 195.687 157.021C196.774 156.265 199.006 154.696 197.582 153.202C196.158 151.708 194.181 154.277 193.356 155.329Z" fill="#6CC832"/>
<path d="M184.258 134.245C184.023 134.258 183.799 134.345 183.616 134.493C183.434 134.641 183.302 134.843 183.24 135.07C183.147 135.611 183.595 136.081 184.025 136.413C185.106 137.25 188.356 139.494 189.077 137.326C189.763 135.279 185.688 134.088 184.258 134.245Z" fill="#6CC832"/>
<path d="M190.24 127.117C189.571 127.181 188.903 126.937 188.228 126.978C187.554 127.019 186.816 127.559 186.961 128.222C187.106 128.885 187.856 129.03 188.472 129.065C189.533 129.133 190.599 129.061 191.641 128.85C191.887 128.826 192.116 128.71 192.28 128.524C192.553 128.123 192.123 127.588 191.658 127.449C191.181 127.385 190.711 127.272 190.257 127.112L190.24 127.117Z" fill="#6CC832"/>
<path d="M196.785 131.727C197.454 131.727 198.105 131.46 198.779 131.454C199.454 131.448 200.233 131.942 200.122 132.617C200.012 133.291 199.291 133.483 198.675 133.558C197.621 133.698 196.554 133.698 195.501 133.558C195.251 133.553 195.014 133.451 194.838 133.274C194.541 132.896 194.937 132.332 195.384 132.158C195.858 132.069 196.32 131.927 196.762 131.733L196.785 131.727Z" fill="#6CC832"/>
<path d="M196.123 181.268C196.277 181.107 196.483 181.006 196.704 180.983C196.853 180.997 196.993 181.063 197.099 181.169C197.205 181.275 197.271 181.415 197.285 181.564C197.318 181.852 197.282 182.142 197.181 182.413C196.721 183.942 191.606 194.982 190.426 192.999C189.734 191.837 191.443 187.947 191.949 186.849C192.914 184.705 194.339 182.8 196.123 181.268Z" fill="#6CC832"/>
<path d="M193.629 130.332C193.629 130.332 193.321 127.652 193.966 127.425" stroke="#263238" stroke-linecap="round" stroke-linejoin="round"/>
<path d="M193.059 127.536C193.389 126.59 193.957 125.745 194.71 125.083C195.518 124.501 196.814 124.455 197.402 125.263C198.059 126.164 197.402 127.53 196.396 128.013C195.39 128.495 194.204 128.35 193.1 128.193C193.1 128.03 193.1 127.867 193.1 127.705L193.059 127.536Z" fill="#6CC832"/>
<path d="M195.814 213.817C190.334 214.741 184.738 214.741 179.258 213.817L172.817 194.813H202.256L195.814 213.817Z" fill="white" stroke="#263238" stroke-linecap="round" stroke-linejoin="round"/>
<path d="M83.4673 76.5186V76.5826C83.4905 76.6872 83.5138 76.7977 83.537 76.9139C83.8004 78.1872 83.9944 79.4738 84.1184 80.7681C84.2288 81.8785 84.3102 83.1458 84.3393 84.5584C84.3989 87.8148 84.1811 91.0704 83.6882 94.2898C83.5603 95.1385 83.4091 96.0338 83.2289 96.929C82.9441 98.4056 82.5895 99.9519 82.1651 101.551C81.9674 102.295 81.7524 103.056 81.5198 103.824C81.4268 104.137 81.3338 104.446 81.2466 104.76C81.1594 105.073 81.0315 105.515 80.9327 105.922C80.265 108.505 79.7314 111.121 79.334 113.758C78.8399 117.043 78.5376 120.304 78.369 123.391C78.1423 127.507 78.1481 131.309 78.2528 134.436V134.593C78.3632 137.773 78.5551 140.267 78.6946 141.691C78.7643 142.517 78.8225 142.988 78.8225 143.017" stroke="#263238" stroke-linecap="round" stroke-linejoin="round"/>
<path d="M83.4787 76.6C83.0616 76.2349 82.6054 75.9171 82.1184 75.6525C81.5814 75.3695 81.0111 75.1547 80.4209 75.013" fill="white"/>
<path d="M83.4787 76.6C83.0616 76.2349 82.6054 75.9171 82.1184 75.6525C81.5814 75.3695 81.0111 75.1547 80.4209 75.013" stroke="#263238" stroke-linecap="round" stroke-linejoin="round"/>
<path d="M84.1299 80.7856L85.682 79.3846" stroke="#263238" stroke-linecap="round" stroke-linejoin="round"/>
<path d="M82.1649 101.58C82.082 101.171 81.9593 100.772 81.7987 100.388C81.5695 99.8238 81.258 99.2969 80.8744 98.8241C80.5879 98.4689 80.2622 98.1471 79.9036 97.8649" stroke="#263238" stroke-linecap="round" stroke-linejoin="round"/>
<path d="M80.9268 105.916C81.1437 105.373 81.4705 104.88 81.8866 104.469C82.3027 104.058 82.7992 103.737 83.3451 103.527" stroke="#263238" stroke-linecap="round" stroke-linejoin="round"/>
<path d="M78.2351 127.565C78.7525 126.937 79.1478 124.559 79.3571 123.281C79.4036 122.978 79.4501 122.699 79.485 122.531" fill="white"/>
<path d="M78.2351 127.565C78.7525 126.937 79.1478 124.559 79.3571 123.281C79.4036 122.978 79.4501 122.699 79.485 122.531" stroke="#263238" stroke-linecap="round" stroke-linejoin="round"/>
<path d="M74.2532 131.855C74.4271 131.838 74.6024 131.838 74.7764 131.855C75.5372 131.931 76.2633 132.212 76.8775 132.667C77.4916 133.123 77.9709 133.736 78.2643 134.442" fill="white"/>
<path d="M74.2532 131.855C74.4271 131.838 74.6024 131.838 74.7764 131.855C75.5372 131.931 76.2633 132.212 76.8775 132.667C77.4916 133.123 77.9709 133.736 78.2643 134.442" stroke="#263238" stroke-linecap="round" stroke-linejoin="round"/>
<path d="M83.2231 96.9755C83.2231 96.9755 83.5021 87.5405 78.3167 84.1165" stroke="#263238" stroke-linecap="round" stroke-linejoin="round"/>
<path d="M83.6938 117.223C84.3682 119.426 79.6246 123.618 79.6246 123.618C79.6246 123.618 73.3462 122.833 72.6486 120.636C71.951 118.438 73.5613 114.822 76.6016 113.892C79.642 112.962 83.0137 115.026 83.6938 117.223Z" fill="#6CC832"/>
<path d="M88.9606 90.5228C88.3793 92.8481 83.8682 94.5165 83.8682 94.5165C83.8682 94.5165 80.7348 90.8948 81.3394 88.5579C81.944 86.2209 84.4205 83.6515 86.5249 84.1921C88.6293 84.7327 89.5419 88.1858 88.9606 90.5228Z" fill="#6CC832"/>
<path d="M70.9396 125.443C73.759 126.542 75.4914 131.524 75.4914 131.524C75.4914 131.524 70.8407 134.029 68.0213 132.931C65.2019 131.832 62.208 128.739 63.0277 126.676C63.8474 124.612 68.1143 124.344 70.9396 125.443Z" fill="#6CC832"/>
<path d="M77.1191 98.0045C77.6877 98.4842 78.34 98.8547 79.0432 99.0974C79.3972 99.2119 79.7758 99.227 80.1377 99.1409C80.4997 99.0547 80.8309 98.8708 81.0953 98.609C81.6767 97.9173 81.5371 96.8651 81.1593 95.9989C80.4036 94.3421 77.6306 91.5227 75.4913 92.3307C72.4161 93.4992 75.7413 96.9871 77.1191 98.0045Z" fill="#6CC832"/>
<path d="M83.4207 102.237C83.0196 102.736 82.5894 103.399 82.8103 103.981C82.9367 104.237 83.1444 104.444 83.4009 104.571C83.6574 104.697 83.9485 104.735 84.2288 104.678C84.7868 104.547 85.3076 104.29 85.7518 103.928C86.8389 103.178 89.0712 101.603 87.647 100.109C86.2227 98.6149 84.2753 101.179 83.4207 102.237Z" fill="#6CC832"/>
<path d="M74.3229 81.146C74.0885 81.1605 73.8645 81.2479 73.6821 81.3959C73.4997 81.5439 73.3681 81.7451 73.3056 81.9715C73.2126 82.5121 73.6602 82.983 74.0962 83.3144C75.1775 84.1515 78.4213 86.3954 79.1479 84.227C79.8281 82.1808 75.7588 80.989 74.3229 81.146Z" fill="#6CC832"/>
<path d="M80.3047 74.0189C79.6362 74.0828 78.9677 73.8387 78.2991 73.8794C77.6306 73.9201 76.8807 74.4607 77.0318 75.1234C77.183 75.7861 77.9213 75.9314 78.5433 75.9663C79.6023 76.0344 80.6657 75.9621 81.7057 75.7512C81.9542 75.7281 82.1847 75.6118 82.351 75.4257C82.6184 75.0246 82.1882 74.4898 81.729 74.3502C81.2496 74.2869 80.7781 74.1739 80.3222 74.0131L80.3047 74.0189Z" fill="#6CC832"/>
<path d="M86.8504 78.6288C87.5248 78.6288 88.1759 78.3614 88.8444 78.3556C89.5129 78.3498 90.2977 78.8439 90.1931 79.5182C90.0884 80.1926 89.3559 80.3844 88.7397 80.46C87.6863 80.5995 86.6191 80.5995 85.5657 80.46C85.3163 80.4543 85.0788 80.3522 84.903 80.1751C84.6065 79.7973 85.0018 79.2334 85.4552 79.059C85.9287 78.9688 86.3908 78.8265 86.833 78.6346L86.8504 78.6288Z" fill="#6CC832"/>
<path d="M86.1879 128.17C86.3425 128.01 86.5482 127.909 86.7692 127.885C86.9174 127.902 87.0554 127.969 87.1609 128.074C87.2664 128.18 87.3332 128.318 87.3506 128.466C87.3806 128.754 87.3428 129.044 87.2401 129.315C86.7867 130.844 81.6652 141.883 80.4909 139.901C79.7933 138.738 81.5024 134.849 82.0082 133.75C82.975 131.606 84.402 129.701 86.1879 128.17Z" fill="#6CC832"/>
<path d="M83.6939 77.2453C83.6939 77.2453 83.3858 74.5653 84.0369 74.3386" stroke="#263238" stroke-linecap="round" stroke-linejoin="round"/>
<path d="M83.1475 74.4374C83.4728 73.4889 84.0422 72.6428 84.7984 71.9842C85.6065 71.4029 86.897 71.3564 87.4842 72.1645C88.1411 73.0655 87.4842 74.4316 86.4785 74.9141C85.4728 75.3966 84.2927 75.2513 83.1882 75.0943C83.1882 74.9316 83.1882 74.7688 83.1882 74.606L83.1475 74.4374Z" fill="#6CC832"/>
<path d="M9.81299 140.779V83.3375" stroke="#263238" stroke-linecap="round" stroke-linejoin="round"/>
<path d="M189.153 140.779H182.055" stroke="#263238" stroke-linecap="round" stroke-linejoin="round"/>
<path d="M244.815 140.779H230.357" stroke="#263238" stroke-linecap="round" stroke-linejoin="round"/>
<path d="M181.403 53.5155H207.022V29.1113" stroke="#263238" stroke-linecap="round" stroke-linejoin="round"/>
<path d="M32.0835 46.0628H59.3013V65.9152H89.135" stroke="#263238" stroke-linecap="round" stroke-linejoin="round"/>
<path d="M16.0273 113.293V69.4264" stroke="#263238" stroke-linecap="round" stroke-linejoin="round"/>
<path d="M28.1887 50.3879V84.7676" stroke="#263238" stroke-linecap="round" stroke-linejoin="round"/>
<path d="M40.3442 50.3879V80.7797" stroke="#263238" stroke-linecap="round" stroke-linejoin="round"/>
<path d="M52.4998 50.3879V103.55" stroke="#263238" stroke-linecap="round" stroke-linejoin="round"/>
<path d="M110.731 42.8481V7.89282H160.22V42.8481" stroke="#263238" stroke-linecap="round" stroke-linejoin="round"/>
<path d="M114.359 25.2571V12.0435H123.509" stroke="#263238" stroke-linecap="round" stroke-linejoin="round"/>
<path d="M125.521 25.2571V12.0435H134.671" stroke="#263238" stroke-linecap="round" stroke-linejoin="round"/>
<path d="M136.682 25.2571V12.0435H145.832" stroke="#263238" stroke-linecap="round" stroke-linejoin="round"/>
<path d="M147.844 25.2571V12.0435H156.994" stroke="#263238" stroke-linecap="round" stroke-linejoin="round"/>
<path d="M114.359 42.8481V29.6345H123.509" stroke="#263238" stroke-linecap="round" stroke-linejoin="round"/>
<path d="M125.521 42.8481V29.6345H134.671" stroke="#263238" stroke-linecap="round" stroke-linejoin="round"/>
<path d="M136.682 42.8481V29.6345H145.832" stroke="#263238" stroke-linecap="round" stroke-linejoin="round"/>
<path d="M147.844 42.8481V29.6345H156.994" stroke="#263238" stroke-linecap="round" stroke-linejoin="round"/>
<path d="M210.987 32.1342V75.9373" stroke="#263238" stroke-linecap="round" stroke-linejoin="round"/>
<path d="M228.956 137.57H230.357" stroke="#263238" stroke-linecap="round" stroke-linejoin="round"/>
<path d="M221.759 44.7142V93.755" stroke="#263238" stroke-linecap="round" stroke-linejoin="round"/>
<path d="M232.537 125.048V137.57H241.135" stroke="#263238" stroke-linecap="round" stroke-linejoin="round"/>
<path d="M232.537 60.7006V94.0049" stroke="#263238" stroke-linecap="round" stroke-linejoin="round"/>
<path d="M243.309 85.9709V137.57H245.268" stroke="#263238" stroke-linecap="round" stroke-linejoin="round"/>
<path d="M112.034 141.831H1V213.95H112.034V141.831Z" fill="white" stroke="#263238" stroke-linecap="round" stroke-linejoin="round"/>
<path d="M1 141.831L56.5168 177.891L112.034 141.831H1Z" fill="white" stroke="#263238" stroke-linecap="round" stroke-linejoin="round"/>
<path d="M39.8269 167.049L1 213.95" stroke="#263238" stroke-linecap="round" stroke-linejoin="round"/>
<path d="M73.509 167.049L112.336 213.95" stroke="#263238" stroke-linecap="round" stroke-linejoin="round"/>
<path d="M171.451 49.8066H145.64C144.897 49.8074 144.167 50.0074 143.527 50.3857C142.887 50.7639 142.36 51.3066 142.001 51.9575C141.367 53.1022 140.438 54.0562 139.31 54.7205C138.182 55.3849 136.898 55.7352 135.589 55.7352C134.28 55.7352 132.995 55.3849 131.868 54.7205C130.74 54.0562 129.811 53.1022 129.177 51.9575C128.821 51.2982 128.293 50.7476 127.649 50.3638C127.005 49.9801 126.27 49.7775 125.52 49.7775H99.7385C99.0308 49.7683 98.3282 49.8986 97.6708 50.1609C97.0135 50.4232 96.4143 50.8125 95.9074 51.3064C95.4005 51.8004 94.9958 52.3893 94.7166 53.0396C94.4373 53.69 94.2889 54.389 94.2798 55.0967V200.673C94.2997 202.102 94.8857 203.464 95.909 204.461C96.9324 205.458 98.3096 206.009 99.7385 205.992H171.451C172.88 206.009 174.258 205.459 175.283 204.462C176.307 203.465 176.894 202.102 176.916 200.673V55.1257C176.896 53.6959 176.309 52.3325 175.284 51.3351C174.26 50.3377 172.881 49.7879 171.451 49.8066Z" fill="#6CC832"/>
<path d="M179.433 53.5155C179.436 52.5348 179.245 51.5632 178.872 50.6564C178.499 49.7495 177.95 48.9252 177.258 48.2307C176.566 47.5361 175.743 46.9851 174.837 46.6091C173.932 46.2331 172.961 46.0396 171.98 46.0396H99.2153C98.2369 46.0389 97.2679 46.2309 96.3638 46.6048C95.4596 46.9787 94.638 47.5271 93.9459 48.2187C93.2538 48.9103 92.7047 49.7314 92.3301 50.6353C91.9555 51.5392 91.7627 52.508 91.7627 53.4864V206.486C91.7627 208.461 92.5473 210.355 93.9438 211.752C95.3404 213.148 97.2345 213.933 99.2095 213.933H171.98C173.956 213.933 175.85 213.148 177.248 211.752C178.645 210.356 179.431 208.462 179.433 206.486V53.5155ZM176.916 200.673C176.894 202.102 176.307 203.465 175.283 204.462C174.258 205.459 172.88 206.009 171.451 205.992H99.7385C98.3097 206.009 96.9325 205.459 95.9091 204.461C94.8857 203.464 94.2998 202.102 94.2798 200.673V55.1258C94.2889 54.4181 94.4374 53.7191 94.7166 53.0688C94.9959 52.4184 95.4005 51.8295 95.9074 51.3355C96.4143 50.8416 97.0135 50.4523 97.6709 50.19C98.3282 49.9277 99.0308 49.7974 99.7385 49.8066H125.532C126.281 49.8064 127.015 50.009 127.658 50.3928C128.301 50.7766 128.828 51.3274 129.183 51.9866C129.817 53.1313 130.746 54.0854 131.874 54.7497C133.001 55.414 134.286 55.7643 135.595 55.7643C136.903 55.7643 138.188 55.414 139.316 54.7497C140.443 54.0854 141.373 53.1313 142.007 51.9866C142.365 51.335 142.892 50.7915 143.532 50.4132C144.172 50.0348 144.902 49.8353 145.646 49.8357H171.457C172.165 49.8265 172.867 49.9567 173.525 50.2191C174.182 50.4814 174.781 50.8707 175.288 51.3646C175.795 51.8585 176.2 52.4475 176.479 53.0978C176.758 53.7482 176.906 54.4471 176.916 55.1548V200.673Z" fill="#263238"/>
<path opacity="0.2" d="M154.709 46.0628L106.371 213.944L125.567 213.927L172.114 46.0628H154.709Z" fill="white"/>
<path opacity="0.2" d="M147.501 46.0628L96.396 213.95L99.1922 213.933L149.338 46.0628H147.501Z" fill="white"/>
<path d="M148.634 170.868C148.67 172.532 148.372 174.187 147.758 175.734C147.145 177.281 146.228 178.69 145.062 179.877C143.895 181.065 142.503 182.007 140.967 182.648C139.431 183.289 137.782 183.617 136.118 183.611C132.722 183.598 129.465 182.258 127.043 179.877C124.621 177.497 123.226 174.264 123.154 170.868C123.119 169.204 123.418 167.551 124.032 166.004C124.645 164.458 125.562 163.049 126.729 161.863C127.895 160.676 129.287 159.734 130.822 159.093C132.358 158.453 134.006 158.125 135.67 158.131C139.066 158.143 142.323 159.481 144.745 161.861C147.167 164.241 148.563 167.473 148.634 170.868Z" fill="white" stroke="#263238" stroke-linecap="round" stroke-linejoin="round"/>
<path d="M131.717 180.379C130.534 179.941 129.449 179.273 128.526 178.414C127.595 177.519 126.874 176.429 126.416 175.222C125.893 173.869 125.635 172.429 125.654 170.979C125.647 169.742 125.865 168.515 126.299 167.357C126.694 166.287 127.285 165.301 128.043 164.45C129.538 162.816 131.468 161.642 133.607 161.067C134.657 160.784 135.74 160.641 136.827 160.643C137.73 160.638 138.63 160.746 139.507 160.962C140.353 161.17 141.163 161.505 141.908 161.956C142.646 162.4 143.307 162.959 143.867 163.613C144.45 164.318 144.896 165.127 145.181 165.997C145.507 166.989 145.668 168.028 145.658 169.072C145.645 171.09 144.918 173.038 143.605 174.571C143.041 175.211 142.373 175.752 141.629 176.17C140.988 176.538 140.264 176.738 139.525 176.751C139.014 176.758 138.516 176.597 138.106 176.292C137.901 176.14 137.733 175.942 137.617 175.714C137.501 175.486 137.44 175.234 137.438 174.978C137.056 175.558 136.533 176.031 135.917 176.351C135.302 176.672 134.614 176.829 133.921 176.809C133.375 176.834 132.831 176.736 132.328 176.522C131.825 176.309 131.376 175.986 131.014 175.577C130.288 174.733 129.904 173.649 129.938 172.537C129.943 171.621 130.102 170.713 130.409 169.851C130.715 168.982 131.148 168.163 131.694 167.421C132.238 166.692 132.932 166.087 133.729 165.648C134.525 165.198 135.425 164.964 136.339 164.968C136.975 164.961 137.602 165.113 138.164 165.409C138.71 165.701 139.153 166.153 139.432 166.706L139.548 166.316C139.64 166.044 139.838 165.819 140.096 165.691C140.354 165.564 140.653 165.544 140.926 165.636C141.031 165.672 141.131 165.723 141.222 165.787C141.309 165.856 141.378 165.945 141.423 166.046C141.469 166.147 141.489 166.258 141.484 166.369C141.484 166.477 141.466 166.585 141.431 166.688L139.548 172.955C139.382 173.432 139.274 173.928 139.228 174.432C139.211 174.526 139.217 174.622 139.246 174.713C139.275 174.804 139.326 174.887 139.394 174.953C139.462 175.02 139.546 175.069 139.638 175.096C139.73 175.122 139.826 175.126 139.92 175.106C140.586 175.063 141.211 174.766 141.664 174.275C142.292 173.654 142.774 172.901 143.076 172.071C143.437 171.165 143.623 170.198 143.623 169.223C143.631 168.364 143.505 167.509 143.251 166.688C143.037 165.981 142.699 165.317 142.251 164.729C141.827 164.194 141.314 163.735 140.734 163.375C140.155 163.01 139.524 162.737 138.862 162.567C138.183 162.388 137.483 162.298 136.781 162.299C135.89 162.301 135.004 162.426 134.147 162.671C133.266 162.921 132.425 163.299 131.653 163.793C130.875 164.284 130.171 164.883 129.561 165.572C128.932 166.298 128.444 167.134 128.119 168.037C127.754 169.021 127.571 170.063 127.578 171.112C127.559 172.355 127.784 173.59 128.241 174.746C128.635 175.746 129.256 176.642 130.055 177.362C130.827 178.032 131.718 178.55 132.682 178.89C133.7 179.25 134.772 179.431 135.851 179.425C137.004 179.425 138.15 179.251 139.251 178.908C139.361 178.868 139.477 178.849 139.594 178.85C139.703 178.848 139.812 178.869 139.912 178.913C140.012 178.956 140.102 179.019 140.176 179.1C140.25 179.177 140.308 179.268 140.347 179.368C140.386 179.468 140.405 179.574 140.402 179.681C140.416 179.85 140.369 180.019 140.268 180.155C140.168 180.292 140.021 180.388 139.856 180.425C138.484 180.845 137.059 181.064 135.624 181.076C134.291 181.074 132.969 180.838 131.717 180.379ZM136.519 174.35C137.094 173.938 137.52 173.35 137.734 172.676L138.949 168.403L138.868 168.229C138.792 168.089 138.7 167.958 138.594 167.839C138.449 167.671 138.289 167.516 138.118 167.374C137.9 167.201 137.654 167.065 137.391 166.973C136.703 166.733 135.95 166.76 135.281 167.049C134.914 167.204 134.578 167.422 134.287 167.694C133.984 167.976 133.715 168.292 133.485 168.636C133.254 168.993 133.059 169.373 132.903 169.769C132.74 170.166 132.613 170.576 132.525 170.996C132.438 171.395 132.393 171.802 132.392 172.211C132.387 172.473 132.402 172.736 132.438 172.996C132.465 173.227 132.516 173.455 132.589 173.676C132.653 173.881 132.745 174.077 132.863 174.257C132.968 174.42 133.102 174.561 133.258 174.676C133.424 174.796 133.611 174.885 133.81 174.937C134.042 175.005 134.283 175.037 134.525 175.03C135.252 175.039 135.962 174.806 136.542 174.368L136.519 174.35Z" fill="#6CC832" stroke="#263238" stroke-linecap="round" stroke-linejoin="round"/>
<path d="M148.349 127.193C148.384 128.856 148.086 130.51 147.472 132.057C146.858 133.603 145.941 135.012 144.775 136.198C143.608 137.385 142.217 138.327 140.681 138.968C139.145 139.608 137.497 139.936 135.833 139.93C132.437 139.918 129.181 138.58 126.759 136.2C124.337 133.82 122.941 130.588 122.869 127.193C122.833 125.529 123.13 123.874 123.743 122.326C124.357 120.779 125.273 119.369 126.44 118.182C127.606 116.994 128.999 116.052 130.535 115.411C132.072 114.77 133.721 114.444 135.385 114.45C138.782 114.463 142.038 115.803 144.46 118.184C146.882 120.564 148.278 123.797 148.349 127.193Z" fill="white" stroke="#263238" stroke-linecap="round" stroke-linejoin="round"/>
<path d="M143.606 126.03C139.612 123.414 131.781 123.414 127.974 126.03C127.277 126.161 126.651 126.537 126.209 127.091C125.767 127.645 125.539 128.339 125.567 129.047C125.625 130.739 132.653 130.739 132.595 129.047C132.561 128.34 132.291 127.665 131.828 127.129C134.464 126.559 137.191 126.559 139.827 127.129C139.398 127.674 139.176 128.354 139.199 129.047C139.257 130.739 146.285 130.739 146.221 129.047C146.188 128.324 145.912 127.632 145.438 127.084C144.963 126.537 144.317 126.166 143.606 126.03Z" fill="#6CC832" stroke="#263238" stroke-linecap="round" stroke-linejoin="round"/>
<path d="M148.349 84.7676C148.419 87.901 146.71 90.703 143.966 92.569V100.179L138.507 94.7141C137.625 94.8719 136.73 94.9497 135.833 94.9467C128.799 94.9467 122.992 90.389 122.87 84.7676C122.748 79.1462 128.346 74.5944 135.386 74.5944C142.425 74.5944 148.256 79.1752 148.349 84.7676Z" fill="white" stroke="#263238" stroke-linecap="round" stroke-linejoin="round"/>
<path d="M130.183 84.7676C130.184 85.0944 130.088 85.4141 129.907 85.6864C129.726 85.9587 129.469 86.1712 129.167 86.297C128.866 86.4229 128.534 86.4564 128.213 86.3934C127.892 86.3303 127.598 86.1735 127.366 85.9429C127.135 85.7122 126.977 85.4181 126.913 85.0976C126.849 84.7772 126.881 84.445 127.006 84.143C127.131 83.8409 127.342 83.5828 127.614 83.4011C127.885 83.2194 128.205 83.1224 128.532 83.1224C128.968 83.1224 129.387 83.2956 129.697 83.6039C130.006 83.9123 130.181 84.3307 130.183 84.7676Z" fill="#6CC832" stroke="#263238" stroke-linecap="round" stroke-linejoin="round"/>
<path d="M137.246 84.7676C137.247 85.0944 137.151 85.4141 136.97 85.6864C136.79 85.9587 136.532 86.1712 136.231 86.297C135.929 86.4229 135.597 86.4564 135.276 86.3934C134.956 86.3303 134.661 86.1735 134.429 85.9429C134.198 85.7122 134.04 85.4181 133.976 85.0976C133.912 84.7772 133.944 84.445 134.069 84.143C134.194 83.8409 134.405 83.5828 134.677 83.4011C134.949 83.2194 135.268 83.1224 135.595 83.1224C136.032 83.1224 136.451 83.2956 136.76 83.6039C137.07 83.9123 137.244 84.3307 137.246 84.7676Z" fill="#6CC832" stroke="#263238" stroke-linecap="round" stroke-linejoin="round"/>
<path d="M144.309 84.7676C144.31 85.0944 144.214 85.4141 144.034 85.6864C143.853 85.9587 143.595 86.1712 143.294 86.297C142.992 86.4229 142.66 86.4564 142.34 86.3934C142.019 86.3303 141.724 86.1735 141.493 85.9429C141.261 85.7122 141.103 85.4181 141.039 85.0976C140.975 84.7772 141.007 84.445 141.132 84.143C141.257 83.8409 141.469 83.5828 141.74 83.4011C142.012 83.2194 142.331 83.1224 142.658 83.1224C143.095 83.1224 143.514 83.2956 143.823 83.6039C144.133 83.9123 144.307 84.3307 144.309 84.7676Z" fill="#6CC832" stroke="#263238" stroke-linecap="round" stroke-linejoin="round"/>
<path d="M64.4287 107.969C64.2223 108.352 63.9249 108.68 63.5625 108.922C60.8806 111.061 58.1368 113.113 55.3309 115.078C54.3019 115.799 53.2323 116.543 52.2382 117.351C46.2622 121.351 49.9129 122.327 46.2622 130.791C45.4018 132.815 45.5588 142.726 45.5588 142.726H45.2623C44.5625 142.035 43.8188 141.391 43.0358 140.796C42.9277 140.723 42.815 140.657 42.6986 140.598C42.5895 140.542 42.4715 140.505 42.3499 140.488C41.7685 140.453 39.5537 140.721 37.3156 140.575L36.7342 140.529C36.4087 140.494 36.089 140.453 35.7692 140.395C35.4495 140.337 35.1414 140.273 34.8449 140.192C32.7209 139.51 30.6382 138.707 28.6073 137.785L27.5958 137.349L27.0958 137.134L26.6424 136.936L26.3168 136.797L26.0029 136.663C25.4739 136.442 24.9798 136.239 24.5263 136.082C24.3185 136.007 24.107 135.943 23.8927 135.89C23.8927 136.366 23.8171 136.855 23.7532 137.331C23.4741 139.604 22.8521 141.703 21.7418 141.982C21.7189 141.988 21.6949 141.988 21.672 141.982C21.5742 142 21.475 142.01 21.3755 142.011H21.2883C21.0424 142.006 20.7989 141.961 20.5675 141.877C19.5598 141.447 18.7363 140.675 18.2422 139.697C18.0214 139.285 17.8981 138.828 17.8818 138.36C17.8818 136.669 17.4109 126.687 17.4109 123.781C17.4109 120.874 17.9922 115.787 19.4397 113.898C20.0054 113.097 20.7199 112.412 21.5441 111.881C22.6048 110.997 23.8212 110.319 25.1309 109.881C26.6773 109.375 30.1362 108.085 32.5487 107.172L28.9037 108.579C29.8281 110.16 31.8104 112.648 35.3855 112.968C38.7456 113.253 40.8268 110.212 41.8906 107.992C41.9836 108.027 47.8318 106.916 49.1863 106.98C53.5985 107.172 57.197 104.783 58.8247 103.835C59.3157 103.542 59.8666 103.363 60.4363 103.313C61.006 103.262 61.5798 103.341 62.1147 103.544C62.6497 103.746 63.132 104.066 63.5256 104.481C63.9193 104.896 64.2141 105.395 64.388 105.94V105.992C64.6423 106.624 64.6568 107.327 64.4287 107.969Z" fill="#6CC832" stroke="#263238" stroke-linecap="round" stroke-linejoin="round"/>
<path d="M41.8267 108.027L41.5593 107.934" stroke="#263238" stroke-linecap="round" stroke-linejoin="round"/>
<path d="M46.7854 145.284C46.7882 145.307 46.7882 145.331 46.7854 145.354C46.7618 145.41 46.7259 145.46 46.6803 145.5C46.6347 145.541 46.5806 145.571 46.522 145.587C46.4634 145.604 46.4018 145.607 46.3418 145.597C46.2817 145.587 46.2247 145.563 46.175 145.528C45.9076 145.377 45.4948 144.406 45.4948 144.406L45.0356 143.929L44.7333 143.61C44.7798 143.726 45.146 144.615 44.9542 145.028C44.9444 145.056 44.9286 145.082 44.9077 145.104C44.7792 145.275 44.6125 145.415 44.4208 145.511C44.229 145.606 44.0176 145.656 43.8032 145.656C43.5532 145.656 42.8207 145.743 42.1813 145.784H42.1115C41.9179 145.795 41.7238 145.795 41.5302 145.784C41.014 145.718 40.5161 145.55 40.0652 145.29C39.0426 145.14 38.035 144.9 37.054 144.575L36.8796 144.482L36.7226 144.389C36.6194 144.326 36.5238 144.252 36.4377 144.168C36.0835 143.873 35.7826 143.519 35.5483 143.121C35.5483 143.121 33.1881 143.023 30.0199 142.778C28.8572 142.691 27.6016 142.581 26.2994 142.453C24.2996 142.249 22.6487 142.261 21.3523 142.081H21.2593C21.0035 142.046 20.7652 141.999 20.5384 141.947C19.9852 141.839 19.4736 141.577 19.0623 141.192C18.651 140.806 18.3567 140.312 18.2131 139.767C18.137 139.509 18.0749 139.247 18.0271 138.982L19.0386 137.238C19.5658 136.816 20.1537 136.475 20.7826 136.227C21.7582 135.819 22.8356 135.719 23.8694 135.942C24.0837 135.995 24.2952 136.059 24.5031 136.134C24.9565 136.308 25.4507 136.512 25.9797 136.715L26.2994 136.849L26.6249 136.988L27.0784 137.186C29.6653 138.256 32.7521 139.633 34.8158 140.215C35.4357 140.377 36.0674 140.49 36.7052 140.552L37.2865 140.598C39.5246 140.744 41.7336 140.476 42.3208 140.511C42.9079 140.546 44.3438 141.912 45.2623 142.755C45.5123 142.988 45.7332 143.18 45.8843 143.296L45.9541 143.354L46.0064 143.4C46.3393 143.742 46.5725 144.168 46.6807 144.633C46.7265 144.789 46.7576 144.948 46.7738 145.11C46.7843 145.167 46.7882 145.226 46.7854 145.284Z" fill="white" stroke="#263238" stroke-linecap="round" stroke-linejoin="round"/>
<path d="M46.7854 145.284C46.7882 145.307 46.7882 145.331 46.7854 145.354C46.7612 145.409 46.7249 145.459 46.679 145.499C46.6332 145.539 46.579 145.568 46.5205 145.584C46.462 145.6 46.4006 145.603 46.3408 145.592C46.281 145.582 46.2244 145.558 46.175 145.522C45.8876 145.189 45.6577 144.809 45.4949 144.4L45.0356 143.929L44.7333 143.616C44.774 143.709 45.1519 144.615 44.96 145.034C44.9503 145.062 44.9344 145.088 44.9135 145.11C44.8491 145.195 44.775 145.273 44.6926 145.342C44.442 145.543 44.1305 145.654 43.809 145.656C43.5532 145.656 42.8266 145.737 42.1929 145.784H42.1115C41.9179 145.795 41.7238 145.795 41.5302 145.784C41.0172 145.715 40.522 145.55 40.0711 145.296C39.0484 145.142 38.0409 144.901 37.0598 144.575L36.8912 144.493L36.7343 144.4C36.6337 144.334 36.5385 144.26 36.4494 144.179C36.0899 143.882 35.7851 143.524 35.5484 143.121C35.5484 143.121 33.2579 143.023 30.1536 142.784C28.991 142.697 27.6481 142.581 26.2994 142.447C24.4624 142.267 22.9452 142.215 21.7186 142.023L21.3407 141.953L20.9047 141.854C20.8042 141.142 20.878 140.416 21.1198 139.738C21.3451 139.166 21.6946 138.652 22.143 138.232C22.5913 137.811 23.1274 137.496 23.7125 137.308C24.4386 137.041 25.1826 136.826 25.939 136.663L26.2529 136.797L26.5785 136.936L27.0319 137.134C29.6653 138.267 32.7173 139.639 34.7868 140.203C35.4062 140.366 36.0382 140.477 36.6761 140.534L37.2575 140.581C39.4956 140.732 41.7046 140.465 42.2918 140.5C42.8789 140.534 44.309 141.895 45.1984 142.738C45.4002 142.931 45.6117 143.113 45.832 143.284L45.9018 143.336L45.9541 143.383C46.2934 143.72 46.5277 144.148 46.6285 144.615C46.6742 144.771 46.7053 144.931 46.7215 145.092C46.7512 145.153 46.7727 145.217 46.7854 145.284Z" fill="white" stroke="#263238" stroke-linecap="round" stroke-linejoin="round"/>
<path d="M39.8269 143.738C39.8269 143.738 41.1465 144.424 41.6697 144.662C42.1929 144.9 42.1464 145.86 42.1464 145.86" fill="white"/>
<path d="M39.8269 143.738C39.8269 143.738 41.1465 144.424 41.6697 144.662C42.1929 144.9 42.1464 145.86 42.1464 145.86" stroke="#263238" stroke-linecap="round" stroke-linejoin="round"/>
<path d="M41.2395 142.807C42.0697 143.4 42.8691 144.034 43.6346 144.708C43.7464 144.84 43.8193 145 43.845 145.17C43.8707 145.341 43.8481 145.515 43.7799 145.673" fill="white"/>
<path d="M41.2395 142.807C42.0697 143.4 42.8691 144.034 43.6346 144.708C43.7464 144.84 43.8193 145 43.845 145.17C43.8707 145.341 43.8481 145.515 43.7799 145.673" stroke="#263238" stroke-linecap="round" stroke-linejoin="round"/>
<path d="M44.7159 143.604C44.0281 142.867 43.3003 142.168 42.5359 141.511Z" fill="white"/>
<path d="M44.7159 143.604C44.0281 142.867 43.3003 142.168 42.5359 141.511" stroke="#263238" stroke-linecap="round" stroke-linejoin="round"/>
<path d="M41.8209 108.038C40.7687 110.253 38.6817 113.27 35.3216 113.009C31.7639 112.706 29.7642 110.201 28.8398 108.614C30.1188 108.126 31.4151 107.626 32.479 107.207C32.479 106.126 32.4441 104.829 32.3278 103.545C32.3278 103.266 32.2697 102.963 32.2406 102.702C32.2115 102.44 32.1767 102.254 32.1418 102.039H38.9026C38.9026 102.039 38.8619 102.306 38.8096 102.754C38.7689 103.155 38.7166 103.69 38.6759 104.295C38.6236 105.097 38.5887 106.039 38.612 106.928C38.9375 107.038 39.2689 107.16 39.6002 107.288L40.2397 107.509C40.4955 107.602 40.7454 107.684 41.0128 107.771L41.5942 107.945C41.6716 107.971 41.7474 108.003 41.8209 108.038Z" fill="white" stroke="#263238" stroke-linecap="round" stroke-linejoin="round"/>
<path d="M32.2405 102.678C32.2405 102.678 33.502 105.957 35.3331 106.515C37.1643 107.073 38.8211 102.754 38.8211 102.754C38.8211 102.754 36.24 105.509 35.2808 105.079C34.3216 104.649 32.2521 102.702 32.2521 102.702" fill="#263238"/>
<path d="M31.1535 84.5701C29.445 86.108 28.0904 87.9981 27.183 90.1101C26.3517 91.8541 25.6483 93.8597 26.2877 95.6851C26.6704 96.5914 27.2118 97.4222 27.8864 98.1383C29.1421 99.6439 30.9035 103.847 32.1592 105.353C32.2405 102.673 29.9966 98.3417 30.235 96.092C30.5236 94.3539 31.0951 92.6749 31.9266 91.1216C32.7723 89.0847 33.8783 87.1658 35.2169 85.413C35.9785 84.4945 38.4259 82.861 35.9552 82.6633C34.3159 82.5296 32.3917 83.5527 31.1535 84.5701Z" fill="#263238" stroke="#263238" stroke-linecap="round" stroke-linejoin="round"/>
<path d="M29.5722 93.7086C29.5722 93.7086 28.706 92.0285 27.7933 93.6214C27.1364 94.784 28.084 96.6152 28.4909 97.2954C28.6259 97.489 28.8088 97.6443 29.0218 97.7462C29.2347 97.848 29.4704 97.893 29.7059 97.8767L29.5722 93.7086Z" fill="white" stroke="#263238" stroke-linecap="round" stroke-linejoin="round"/>
<path d="M40.9546 99.7776C40.3991 100.876 39.6754 101.88 38.8095 102.754L38.2863 103.295C37.2051 104.364 36.0366 105.213 35.2692 105.039C34.6007 104.905 33.7287 104.219 32.8742 103.341C32.6591 103.126 32.4498 102.894 32.2405 102.661C31.3101 101.643 30.5113 100.512 29.8629 99.2951C29.6828 98.8387 29.5673 98.3593 29.5199 97.8709C29.3732 96.4147 29.3227 94.9504 29.3688 93.4876C29.3688 92.9703 29.3688 92.5575 29.3688 92.325C29.3688 91.3135 33.159 87.7965 33.159 87.7965C33.2612 87.759 33.3709 87.747 33.4788 87.7616C34.1306 87.8802 34.7589 88.1041 35.339 88.4243C37.6352 89.5404 40.8384 91.7553 41.0709 92.5982C41.4255 93.8248 41.2918 98.6847 40.9546 99.7776Z" fill="white" stroke="#263238" stroke-linecap="round" stroke-linejoin="round"/>
<path d="M33.4264 95.1154C33.4264 95.5223 33.2753 95.8537 33.1067 95.8537C32.9381 95.8537 32.7695 95.5339 32.7695 95.1154C32.7695 94.6968 32.9207 94.3655 33.1067 94.3655C33.2927 94.3655 33.4264 94.7085 33.4264 95.1154Z" fill="#263238"/>
<path d="M37.7573 94.3713C37.9434 94.3713 38.0945 94.7026 38.0945 95.1154C38.0945 95.5281 37.9434 95.8537 37.7573 95.8537C37.5713 95.8537 37.4202 95.5223 37.4202 95.1154C37.4202 94.7084 37.5713 94.3713 37.7573 94.3713Z" fill="#263238"/>
<path d="M31.2639 93.2842C31.2639 93.2842 31.8452 92.1215 33.9031 92.4762" stroke="#263238" stroke-linecap="round" stroke-linejoin="round"/>
<path d="M39.67 93.2842C39.67 93.2842 39.0887 92.1215 37.0308 92.4762" stroke="#263238" stroke-linecap="round" stroke-linejoin="round"/>
<path d="M35.8623 97.9581C36.0714 97.945 36.2707 97.865 36.4309 97.73C36.591 97.595 36.7035 97.412 36.7517 97.2082C36.7517 97.2082 35.624 95.4642 35.9669 93.7551" stroke="#263238" stroke-linecap="round" stroke-linejoin="round"/>
<path d="M28.8398 89.6393C28.3715 90.2747 28.0174 90.9868 27.7935 91.7437" stroke="white" stroke-linecap="round" stroke-linejoin="round"/>
<path d="M33.6996 84.9886C33.6996 84.9886 33.0544 86.0583 30.2117 88.2383C30.0285 88.3706 29.8537 88.5143 29.6885 88.6685" stroke="white" stroke-linecap="round" stroke-linejoin="round"/>
<path d="M24.5845 119.072C24.197 124.598 23.8094 130.129 23.4219 135.663V135.239" fill="#263238"/>
<path d="M24.5845 119.072C24.197 124.598 23.8094 130.129 23.4219 135.663V135.239" stroke="#263238" stroke-linecap="round" stroke-linejoin="round"/>
<path d="M61.307 100.824C61.8325 100.619 62.4002 100.545 62.9606 100.61C63.5211 100.675 64.057 100.876 64.5217 101.196C65.4488 101.853 66.1236 102.806 66.4343 103.899C66.8049 104.987 66.7677 106.173 66.3297 107.236C66.103 107.76 65.7383 108.213 65.2745 108.545C64.8107 108.878 64.2652 109.079 63.6962 109.125C62.8483 109.115 62.0288 108.818 61.3709 108.282C59.1968 106.655 58.1097 102.202 61.307 100.824Z" fill="white" stroke="#263238" stroke-linecap="round" stroke-linejoin="round"/>
<path d="M66.1204 82.2622C66.1204 82.332 66.1204 82.7912 66.1611 82.8726C66.3645 83.7679 66.7947 86.006 65.7076 86.4594C66.1204 87.9302 67.1319 97.5395 66.9982 102.44C66.9633 103.905 66.7075 105.643 65.3937 106.271C63.1789 107.323 61.0745 104.76 61.3244 102.754C61.7139 100.016 61.5802 97.2256 61.9058 94.4585C62.2604 91.5867 62.9115 88.6452 62.1964 85.8374C62.022 85.6456 60.9059 83.4307 60.5396 82.8203C60.3753 82.5594 60.2463 82.278 60.156 81.9832C60.0128 80.98 59.9429 79.9678 59.9467 78.9545C60.278 78.3266 60.7082 78.908 60.9349 79.3207C61.1198 79.8239 61.1836 80.3637 61.121 80.8961C61.0995 81.0263 61.1177 81.16 61.1733 81.2798C61.2221 81.3482 61.2881 81.4026 61.3647 81.4373C61.4412 81.472 61.5256 81.4859 61.6093 81.4774C62.3243 81.3728 62.2952 80.774 62.2836 80.3148C62.2836 78.7743 62.2836 77.2337 62.2836 75.7048C62.2836 75.4491 62.365 74.7573 62.6092 74.734C62.8533 74.7108 63.2196 74.9084 63.2544 75.7281C63.2951 76.6524 63.2951 79.5009 63.2951 79.5009C63.3182 79.5243 63.3468 79.5415 63.3784 79.5506C63.41 79.5598 63.4433 79.5607 63.4753 79.5532C63.5335 79.5532 63.5567 79.4486 63.58 79.3905C63.923 77.9604 64.2718 76.5303 64.6147 75.1003C64.6554 74.9317 64.9054 74.5829 65.0856 74.5829C65.5158 74.5829 65.5274 75.0828 65.5507 75.2282C65.7018 75.9955 64.6264 79.1579 64.4462 79.8788C64.4462 80.0067 64.4462 80.1985 64.5799 80.1636L66.2657 76.7629C66.3438 76.5642 66.4669 76.3863 66.6252 76.2431C66.7836 76.0999 66.9729 75.9952 67.1784 75.9374C67.2068 75.9284 67.2372 75.9284 67.2656 75.9374C67.2959 75.955 67.3202 75.9813 67.3354 76.0129C67.4981 76.3036 67.3354 76.7047 67.2423 77.0245C67.1493 77.3442 65.8878 79.6928 65.4402 80.6403C65.3763 80.774 65.2716 81.0763 65.3995 81.2216C65.5274 81.367 65.76 81.0879 65.853 80.8961C66.1378 80.3148 66.4052 79.7683 66.6668 79.1986C66.7482 79.03 66.8703 78.7917 67.0621 78.8324C68.1957 79.0765 66.5854 81.4542 66.1204 82.2622Z" fill="white" stroke="#263238" stroke-linecap="round" stroke-linejoin="round"/>
<path d="M62.9929 81.7623C63.5782 82.2258 64.0863 82.7791 64.4986 83.4016C64.7018 83.7145 64.8378 84.0663 64.8978 84.4346C64.9579 84.8029 64.9407 85.1796 64.8474 85.5409C64.8191 85.6352 64.7821 85.7267 64.7369 85.8141" fill="white"/>
<path d="M62.9929 81.7623C63.5782 82.2258 64.0863 82.7791 64.4986 83.4016C64.7018 83.7145 64.8378 84.0663 64.8978 84.4346C64.9579 84.8029 64.9407 85.1796 64.8474 85.5409C64.8191 85.6352 64.7821 85.7267 64.7369 85.8141" stroke="#263238" stroke-linecap="round" stroke-linejoin="round"/>
<path d="M46.6167 118.078C47.2319 119.318 47.6459 120.649 47.8433 122.019C48.0119 123.391 48.0642 124.467 47.1283 128.321" stroke="#263238" stroke-linecap="round" stroke-linejoin="round"/>
<path d="M33.4962 86.9245C33.4166 87.1621 33.3966 87.4156 33.438 87.6628C33.5483 87.9738 33.7512 88.2436 34.0193 88.4359C35.8774 90.0642 37.9558 91.4224 40.1931 92.4704C40.4737 92.5434 40.7169 92.7186 40.875 92.9616C41.0331 93.2047 41.0946 93.498 41.0476 93.7842V98.2778C41.0762 98.7413 41.0311 99.2063 40.9139 99.6556C40.5884 100.702 39.8675 101.545 39.3443 102.51C38.8124 103.425 38.5429 104.469 38.5653 105.527C38.42 104.417 42.3033 102.266 43.3555 97.8941C43.5008 97.2779 46.5237 93.6098 44.71 89.3021C42.966 85.1689 40.2221 83.39 39.2978 83.1749C38.6704 82.9915 38.0083 82.9602 37.3664 83.0835C36.7245 83.2068 36.1211 83.4813 35.6064 83.8841C34.5905 84.6407 33.8496 85.7082 33.4962 86.9245Z" fill="#263238" stroke="#263238" stroke-linecap="round" stroke-linejoin="round"/>
<path d="M37.3041 99.5218C36.9727 99.5916 36.6355 99.6555 36.2984 99.6962C35.1357 99.8416 33.8917 99.6614 33.1301 98.8126C33.1883 99.5742 33.7115 102.452 35.2752 102.533C36.839 102.615 37.3041 99.5218 37.3041 99.5218Z" stroke="#263238" stroke-linecap="round" stroke-linejoin="round"/>
<path d="M35.7925 85.1688C36.463 86.691 37.5313 88.0044 38.8851 88.9707C39.8676 89.6741 40.9895 90.1799 41.8906 90.9821C43.0533 92.0459 43.8148 93.7318 43.3672 95.2607" stroke="white" stroke-linecap="round" stroke-linejoin="round"/>
<path d="M47.9423 108.654C46.8223 109.553 46.0849 110.843 45.8786 112.265C45.6781 113.492 45.8293 114.752 46.3146 115.898" stroke="#263238" stroke-linecap="round" stroke-linejoin="round"/>
<path d="M26.2877 118.246C26.1947 119.769 25.2471 121.089 24.3286 122.316Z" fill="#263238"/>
<path d="M26.2877 118.246C26.1947 119.769 25.2471 121.089 24.3286 122.316" stroke="#263238" stroke-linecap="round" stroke-linejoin="round"/>
<path d="M24.0205 129.89C24.4822 130.663 25.1002 131.332 25.835 131.852C26.5697 132.373 27.405 132.734 28.2875 132.913" stroke="#263238" stroke-linecap="round" stroke-linejoin="round"/>
<path d="M46.2621 130.797C46.2621 130.797 44.6983 133.123 39.385 133.611" stroke="#263238" stroke-linecap="round" stroke-linejoin="round"/>
<path d="M201.913 110.422C201.913 110.422 181.653 116.7 177.84 111.741L178.357 86.4478H181.432L185.048 104.266L201.651 101.225C201.651 101.225 203.779 107.817 201.913 110.422Z" fill="white"/>
<mask id="mask0_298_428" style="mask-type:luminance" maskUnits="userSpaceOnUse" x="177" y="86" width="26" height="28">
<path d="M201.913 110.422C201.913 110.422 181.653 116.7 177.84 111.741L178.357 86.4478H181.432L185.048 104.266L201.651 101.225C201.651 101.225 203.779 107.817 201.913 110.422Z" fill="white"/>
</mask>
<g mask="url(#mask0_298_428)">
<path d="M193.379 111.305C192.217 111.767 191.108 112.352 190.071 113.049C191.443 113.485 192.908 112.933 194.28 112.497C196.092 111.941 197.939 111.506 199.808 111.195C199.895 110.678 199.227 109.497 198.965 109.038C198.489 108.236 198.384 108.166 197.582 108.561C196.123 109.294 194.879 110.567 193.379 111.305Z" fill="#6CC832"/>
</g>
<path d="M201.913 110.422C201.913 110.422 181.653 116.7 177.84 111.741L178.357 86.4478H181.432L185.048 104.266L201.651 101.225C201.651 101.225 203.779 107.817 201.913 110.422Z" stroke="#263238" stroke-linecap="round" stroke-linejoin="round"/>
<path d="M199.924 111.085L203.482 132.989C203.389 147.185 210.162 145.051 214.864 145.011C220.3 144.964 228.549 139.575 224.503 131.187L226.061 100.824L216.591 100.103C213.469 99.8591 200.68 100.26 199.663 101.894C197.024 106.132 199.924 111.085 199.924 111.085Z" fill="white"/>
<mask id="mask1_298_428" style="mask-type:luminance" maskUnits="userSpaceOnUse" x="198" y="100" width="29" height="46">
<path d="M199.924 111.085L203.482 132.989C203.389 147.185 210.162 145.051 214.864 145.011C220.3 144.964 228.549 139.575 224.503 131.187L226.061 100.824L216.591 100.103C213.469 99.8591 200.68 100.26 199.663 101.894C197.024 106.132 199.924 111.085 199.924 111.085Z" fill="white"/>
</mask>
<g mask="url(#mask1_298_428)">
<path d="M200.483 112.892C202.595 120.886 207.663 127.779 214.661 132.181C213.903 132.061 213.163 131.848 212.458 131.547C211.748 131.242 210.953 131.198 210.214 131.425C210.036 131.489 209.872 131.588 209.731 131.716C209.591 131.844 209.478 131.998 209.397 132.17C209.317 132.342 209.271 132.527 209.263 132.717C209.254 132.906 209.283 133.096 209.348 133.274C209.517 133.546 209.748 133.775 210.022 133.942C211.176 134.754 212.438 135.399 213.772 135.861C212.602 135.741 211.421 135.831 210.284 136.128C210.074 137.14 211.202 137.872 212.092 138.366C213.511 139.203 214.726 140.345 215.649 141.709C212.528 141.716 209.409 141.894 206.307 142.244C205.898 142.335 205.471 142.295 205.087 142.127C204.684 141.828 204.413 141.384 204.331 140.889C203.64 138.471 203.238 135.979 203.133 133.466C203.075 132.053 203.133 130.629 202.947 129.228C202.798 128.123 202.592 127.027 202.331 125.943C201.428 121.75 200.736 117.524 200.256 113.265C200.041 113.282 200.483 112.892 200.483 112.892Z" fill="#6CC832"/>
<path d="M224.497 111.148C223.713 110.897 222.982 110.503 222.341 109.986C222.521 110.858 223.823 112.363 224.584 112.829C224.741 112.927 224.968 113.009 225.108 112.875C225.247 112.741 225.34 112.398 225.48 112.294L224.497 111.148Z" fill="#6CC832"/>
</g>
<path d="M199.924 111.085L203.482 132.989C203.389 147.185 210.162 145.051 214.864 145.011C220.3 144.964 228.549 139.575 224.503 131.187L226.061 100.824L216.591 100.103C213.469 99.8591 200.68 100.26 199.663 101.894C197.024 106.132 199.924 111.085 199.924 111.085Z" stroke="#263238" stroke-linecap="round" stroke-linejoin="round"/>
<path d="M206.848 99.6556C205.829 101.521 205.339 103.63 205.43 105.754C205.428 105.939 205.464 106.123 205.534 106.294C205.796 106.812 206.511 106.812 207.086 106.876C209.325 107.161 210.714 109.521 212.824 110.311C212.898 110.357 212.981 110.387 213.066 110.4C213.152 110.413 213.24 110.409 213.324 110.387C213.408 110.365 213.487 110.327 213.556 110.274C213.625 110.221 213.683 110.154 213.725 110.079C214.644 108.916 214.969 107.283 216.225 106.533C216.771 106.207 217.463 106.073 217.841 105.562C218.271 104.981 218.079 104.143 217.87 103.434C217.527 102.272 217.143 101.062 216.254 100.254C215.306 99.5147 214.142 99.1063 212.94 99.0917C211.181 98.9477 209.411 99.113 207.708 99.58C207.732 99.8009 206.848 99.6556 206.848 99.6556Z" fill="#6CC832" stroke="#263238" stroke-linecap="round" stroke-linejoin="round"/>
<path d="M234.984 114.52C233.564 112.451 232.517 110.149 231.892 107.719C231.664 106.501 231.309 105.31 230.834 104.167C230.385 103.283 229.737 102.516 228.941 101.926C228.145 101.336 227.223 100.939 226.247 100.766C225.831 100.674 225.397 100.694 224.991 100.824C224.148 101.144 223.776 102.115 223.608 102.998C223.243 104.896 223.351 106.855 223.922 108.701C224.311 109.957 228.991 119.06 232.06 122.589C231.793 120.81 233.839 114.863 234.984 114.52Z" fill="white"/>
<mask id="mask2_298_428" style="mask-type:luminance" maskUnits="userSpaceOnUse" x="223" y="100" width="12" height="23">
<path d="M234.984 114.52C233.564 112.451 232.517 110.149 231.892 107.719C231.664 106.501 231.309 105.31 230.834 104.167C230.385 103.283 229.737 102.516 228.941 101.926C228.145 101.336 227.223 100.939 226.247 100.766C225.831 100.674 225.397 100.694 224.991 100.824C224.148 101.144 223.776 102.115 223.608 102.998C223.243 104.896 223.351 106.855 223.922 108.701C224.311 109.957 228.991 119.06 232.06 122.589C231.793 120.81 233.839 114.863 234.984 114.52Z" fill="white"/>
</mask>
<g mask="url(#mask2_298_428)">
<path d="M225.805 112.735L228.677 118.148C229.09 118.921 229.555 119.746 230.357 120.083C229.852 118.295 229.565 116.453 229.502 114.596C229.534 113.662 229.426 112.73 229.183 111.828C229.066 111.927 228.944 111.509 228.944 111.509C228.816 111.747 228.479 111.753 228.218 111.701C226.34 111.305 225.049 109.631 223.933 108.073C223.788 108.595 223.765 109.143 223.866 109.676C223.967 110.208 224.189 110.71 224.515 111.143C224.515 111.143 225.712 112.555 225.805 112.735Z" fill="#6CC832"/>
</g>
<path d="M234.984 114.52C233.564 112.451 232.517 110.149 231.892 107.719C231.664 106.501 231.309 105.31 230.834 104.167C230.385 103.283 229.737 102.516 228.941 101.926C228.145 101.336 227.223 100.939 226.247 100.766C225.831 100.674 225.397 100.694 224.991 100.824C224.148 101.144 223.776 102.115 223.608 102.998C223.243 104.896 223.351 106.855 223.922 108.701C224.311 109.957 228.991 119.06 232.06 122.589C231.793 120.81 233.839 114.863 234.984 114.52Z" stroke="#263238" stroke-linecap="round" stroke-linejoin="round"/>
<path d="M230.95 121.031C227.822 115.037 229.334 101.225 229.241 99.0045L233.368 98.7836C233.781 98.7836 235.693 110.561 236.996 115.45C238.158 119.903 237.042 124.408 234.984 124.408C233.275 124.408 231.607 122.292 230.95 121.031Z" fill="white" stroke="#263238" stroke-linecap="round" stroke-linejoin="round"/>
<path d="M193.681 105.469C196.588 101.225 202.29 100.888 202.29 100.888" stroke="#263238" stroke-linecap="round" stroke-linejoin="round"/>
<path d="M182.467 107.846C183.346 107.039 184.035 106.046 184.484 104.94Z" fill="white"/>
<path d="M182.467 107.846C183.346 107.039 184.035 106.046 184.484 104.94" stroke="#263238" stroke-linecap="round" stroke-linejoin="round"/>
<path d="M204.063 127.902C205.72 130.617 216.452 133.518 220.73 132.896" stroke="#263238" stroke-linecap="round" stroke-linejoin="round"/>
<path d="M207.098 135.564C210.189 136.096 213.357 135.975 216.399 135.21" stroke="#263238" stroke-linecap="round" stroke-linejoin="round"/>
<path d="M221.335 109.224L223.381 111.997C223.66 112.375 224.05 112.799 224.509 112.695" stroke="#263238" stroke-linecap="round" stroke-linejoin="round"/>
<path d="M236.542 214.41C236.362 215.148 236.304 216.026 236.833 216.578C237.362 217.13 238.129 217.119 238.844 217.107L241.303 217.061C242.251 217.108 243.199 216.959 244.088 216.625C244.532 216.452 244.913 216.147 245.178 215.751C245.443 215.354 245.58 214.886 245.57 214.41C245.51 214.041 245.392 213.684 245.221 213.352C245 212.875 244.78 212.392 244.564 211.916C241.85 205.934 237.705 209.573 236.542 214.41Z" fill="white" stroke="#263238" stroke-linecap="round" stroke-linejoin="round"/>
<path d="M233.077 207.358C233.163 210.104 232.933 212.85 232.391 215.543C232.264 216.154 232.391 217.078 232.973 217.02C233.201 216.985 233.408 216.867 233.554 216.688C235.691 214.581 237.219 211.936 237.978 209.032C238.092 208.731 238.145 208.409 238.134 208.087C238.123 207.765 238.048 207.448 237.914 207.155C237.755 206.919 237.558 206.711 237.333 206.538C235.362 204.963 232.897 203.399 233.077 207.358Z" fill="white" stroke="#263238" stroke-linecap="round" stroke-linejoin="round"/>
<path d="M226.328 137.093C226.328 137.093 229.392 142.418 230.049 143.656C230.706 144.895 244.582 163.131 247.245 176.408C247.745 178.931 237.507 207.149 237.507 207.149L235.182 205.835C235.182 205.835 236.798 180.1 236.403 177.96C236.008 175.821 225.794 160.032 225.794 160.032C225.794 160.032 220.091 155.841 217.742 150.969L226.328 137.093Z" fill="#263238"/>
<path d="M226.66 150.435C226.66 150.435 224.916 154.318 224.916 154.876C224.916 155.434 234.508 185.744 237.327 192.755C239.11 197.27 240.681 201.89 242.042 206.614C242.042 206.614 243.135 208.05 242.309 209.521C241.484 210.991 238.199 211.956 237.525 210.643C236.85 209.329 230.206 202.504 227.404 195.714C224.602 188.924 220.66 177.577 218.417 173.35C215.477 167.95 212.868 162.377 210.603 156.661C207.784 149.446 204.901 141.668 204.901 141.668C206.072 141.774 207.248 141.807 208.423 141.767C211.191 141.673 213.931 141.187 216.562 140.325C222.689 138.267 225.34 134.326 225.34 134.326C225.34 134.326 226.857 138.436 227.253 139.232L226.66 150.435Z" fill="#263238"/>
<path d="M246.221 179.007C245.621 180.036 244.813 180.928 243.85 181.628" stroke="white" stroke-linecap="round" stroke-linejoin="round"/>
<path d="M246.971 177.315C246.884 177.598 246.779 177.876 246.657 178.146" stroke="white" stroke-linecap="round" stroke-linejoin="round"/>
<path d="M221.12 141.377C222.666 144.04 224.113 147.871 223.881 150.94C223.756 151.498 223.561 152.037 223.3 152.545" stroke="white" stroke-linecap="round" stroke-linejoin="round"/>
<path d="M211.76 144.336C211.929 145.819 212.156 148.284 211.83 149.737C211.555 151.223 210.702 152.54 209.458 153.399" stroke="white" stroke-linecap="round" stroke-linejoin="round"/>
<path d="M224.945 138.727C225.283 139.147 225.557 139.616 225.759 140.116C226.152 140.835 226.694 141.462 227.347 141.957C228 142.452 228.75 142.803 229.549 142.988" stroke="white" stroke-linecap="round" stroke-linejoin="round"/>
<path d="M220.009 144.668C222.061 149.156 223.631 153.655 226.817 161.282" stroke="white" stroke-linecap="round" stroke-linejoin="round"/>
<path d="M218.916 142.372C219.091 142.72 219.259 143.069 219.428 143.418" stroke="white" stroke-linecap="round" stroke-linejoin="round"/>
<path d="M235.996 176.705C236.936 178.517 238.133 180.185 239.548 181.658" stroke="white" stroke-linecap="round" stroke-linejoin="round"/>
<path d="M236.967 178.379C237.582 181.223 238.707 183.933 240.286 186.378" stroke="white" stroke-linecap="round" stroke-linejoin="round"/>
<path d="M222.515 178.524C217.986 168.863 213.155 159.277 207.22 144.668" stroke="white" stroke-linecap="round" stroke-linejoin="round"/>
<path d="M223.538 181.332C223.428 180.995 223.311 180.658 223.189 180.315" stroke="white" stroke-linecap="round" stroke-linejoin="round"/>
<path d="M239.193 211.038C238.031 209.521 229.555 197.667 227.45 192.296C226.049 188.715 224.991 186.186 223.962 182.617" stroke="white" stroke-linecap="round" stroke-linejoin="round"/>
<path d="M235.996 188.227L240.024 200.068" stroke="white" stroke-linecap="round" stroke-linejoin="round"/>
<path d="M233.281 98.7894L232.06 98.8882C230.513 99.1631 228.925 99.0896 227.41 98.6731C226.439 98.4348 224.189 97.7372 223.922 97.6907C223.253 97.5478 222.578 97.4391 221.899 97.3651C219.847 97.243 220.887 96.4757 221.742 96.5106C222.869 96.5629 223.247 96.5396 224.114 96.6036C224.009 96.5455 223.689 96.4815 223.683 96.2315C223.683 95.6211 224.486 95.6502 224.486 95.6502C224.486 95.6502 223.608 95.2782 223.73 94.8189C223.852 94.3597 224.439 94.2376 224.811 94.2725C224.811 94.2725 224.317 94.0341 224.34 93.7783C224.445 92.7901 226.474 92.7203 226.474 92.7203C225.983 92.5011 225.524 92.2176 225.108 91.8774C224.956 91.714 224.849 91.5135 224.8 91.2961C224.789 91.1925 224.806 91.0879 224.849 90.9932C224.892 90.8984 224.96 90.8171 225.046 90.7577C225.132 90.6983 225.232 90.663 225.335 90.6554C225.439 90.6478 225.543 90.6683 225.637 90.7147C226.161 91.0643 226.668 91.4407 227.154 91.8425C227.782 92.2901 228.508 92.575 229.171 92.9761C229.817 93.5289 230.338 94.2125 230.7 94.9817C230.805 95.1445 233.281 98.7894 233.281 98.7894Z" fill="white" stroke="#263238" stroke-linecap="round" stroke-linejoin="round"/>
<path d="M178.357 86.4478V83.2447C178.35 81.6374 178.585 80.0382 179.055 78.5011C179.322 77.6523 179.636 76.914 179.921 76.8036C180.45 76.6117 180.682 78.7568 180.682 78.7568C180.285 77.0368 180.03 75.2869 179.921 73.5249C179.921 71.6588 182.432 79.4079 182.432 79.4079L181.432 86.4478H178.357Z" fill="white" stroke="#263238" stroke-linecap="round" stroke-linejoin="round"/>
<path d="M181.392 81.2391C181.695 81.0047 181.922 80.6848 182.043 80.3206Z" fill="white"/>
<path d="M181.392 81.2391C181.695 81.0047 181.922 80.6848 182.043 80.3206" stroke="#263238" stroke-linecap="round" stroke-linejoin="round"/>
<path d="M205.738 93.1272C206.824 94.9552 207.424 97.0303 207.482 99.1556C207.586 102.69 211.679 107.637 212.847 107.876C214.016 108.114 215.097 102.295 215.045 100.533C214.993 98.7719 214.341 93.9062 214.341 93.9062C214.341 93.9062 208.743 89.6741 205.738 93.1272Z" fill="white" stroke="#263238" stroke-linecap="round" stroke-linejoin="round"/>
<path d="M207.383 97.807C207.383 97.807 212.748 105.126 214.853 97.6849C216.957 90.2439 208.952 99.7195 207.383 97.807Z" fill="#263238"/>
<path d="M216.44 92.5459C216.155 96.8884 214.173 99.33 211.888 99.7602C209.801 100.144 206.749 98.0162 205.226 94.8596C205.11 94.784 203.256 93.4993 202.814 93.1854C202.583 93.0239 202.395 92.8089 202.265 92.5589C202.136 92.3088 202.068 92.0311 202.07 91.7495C202.084 91.4792 202.18 91.2196 202.343 91.0041C202.507 90.7886 202.732 90.627 202.988 90.5403H203.04C203.302 90.4833 203.575 90.5035 203.825 90.5984C203.442 89.1161 203.128 87.6104 202.889 86.0932C203 82.6052 204.157 79.7567 207.877 79.4777C211.598 79.1986 214.708 81.2798 214.853 82.7796C214.958 83.9422 215.335 87.0175 215.673 90.1973C215.766 91.0228 216.504 91.5693 216.44 92.5459Z" fill="white" stroke="#263238" stroke-linecap="round" stroke-linejoin="round"/>
<path d="M214.853 87.5232C214.853 87.5232 212.458 86.4245 212.865 89.9939C212.946 90.6973 214.254 91.7379 214.254 91.7379C214.254 91.7379 213.917 92.7901 213.295 92.7901" fill="white"/>
<path d="M214.853 87.5232C214.853 87.5232 212.458 86.4245 212.865 89.9939C212.946 90.6973 214.254 91.7379 214.254 91.7379C214.254 91.7379 213.917 92.7901 213.295 92.7901" stroke="#263238" stroke-linecap="round" stroke-linejoin="round"/>
<path d="M210.225 88.744C210.225 88.744 209.005 87.9999 208.168 88.4592C207.731 88.6491 207.359 88.9622 207.098 89.3602" fill="white"/>
<path d="M210.225 88.744C210.225 88.744 209.005 87.9999 208.168 88.4592C207.731 88.6491 207.359 88.9622 207.098 89.3602" stroke="#263238" stroke-linecap="round" stroke-linejoin="round"/>
<path d="M209.528 90.8019C209.621 91.2321 209.528 91.6158 209.278 91.6681C209.028 91.7204 208.784 91.4065 208.697 90.9763C208.609 90.5462 208.697 90.1625 208.952 90.1102C209.208 90.0578 209.441 90.3659 209.528 90.8019Z" fill="#263238"/>
<path d="M214.248 89.5463C214.341 89.9764 214.248 90.3601 213.998 90.4124C213.748 90.4648 213.504 90.1508 213.417 89.7265C213.33 89.3021 213.417 88.9068 213.667 88.8603C213.917 88.8138 214.161 89.1219 214.248 89.5463Z" fill="#263238"/>
<path d="M202.61 81.5879C202.185 82.0045 201.89 82.5357 201.761 83.1168C201.413 84.346 201.312 85.632 201.465 86.9003C201.618 88.1687 202.021 89.3941 202.651 90.5055C203.038 90.4579 203.431 90.4736 203.813 90.552C204.22 90.6566 204.744 91.3542 204.935 91.7147C205.104 92.0989 205.2 92.5107 205.22 92.9296C205.127 91.8251 205.04 90.7264 204.947 89.6219C204.885 89.1803 204.904 88.7309 205.005 88.2965C205.29 87.3896 204.976 85.2503 205.057 83.3377C207.47 86.2851 210.975 85.7619 212.138 85.663C213.882 85.5177 215.37 83.733 215.277 82.4599C215.184 81.1868 214.841 77.9081 209.092 77.571C207.825 77.4362 206.548 77.7025 205.441 78.3325C205.09 78.5637 204.792 78.8666 204.567 79.2213C204.341 79.576 204.194 79.9745 204.133 80.3904C204.052 80.9252 204.255 80.9717 203.848 81.2333C203.441 81.4949 203.011 81.2449 202.61 81.5879Z" fill="#263238" stroke="#263238" stroke-linecap="round" stroke-linejoin="round"/>
<path d="M210.226 94.8364C210.226 94.8364 211.08 95.7781 212.865 95.1561Z" fill="white"/>
<path d="M210.226 94.8364C210.226 94.8364 211.08 95.7781 212.865 95.1561" stroke="#263238" stroke-linecap="round" stroke-linejoin="round"/>
</svg>
