<svg width="16" height="16" viewBox="0 0 16 16" fill="none" xmlns="http://www.w3.org/2000/svg">
<path d="M0 0V16H16V0H0ZM8.70714 12.4786C8.70714 14.0357 7.79286 14.7464 6.46071 14.7464C5.25714 14.7464 4.56071 14.125 4.20357 13.3714L5.42857 12.6321C5.66429 13.05 5.87857 13.4036 6.39643 13.4036C6.88929 13.4036 7.20357 13.2107 7.20357 12.4571V7.34643H8.70714V12.4786ZM12.2643 14.7464C10.8679 14.7464 9.96429 14.0821 9.525 13.2107L10.75 12.5036C11.0714 13.0286 11.4929 13.4179 12.2321 13.4179C12.8536 13.4179 13.2536 13.1071 13.2536 12.675C13.2536 12.1607 12.8464 11.9786 12.1571 11.675L11.7821 11.5143C10.6964 11.0536 9.97857 10.4714 9.97857 9.24643C9.97857 8.11786 10.8393 7.26071 12.1786 7.26071C13.1357 7.26071 13.8214 7.59286 14.3143 8.46429L13.1429 9.21429C12.8857 8.75357 12.6071 8.57143 12.175 8.57143C11.7357 8.57143 11.4571 8.85 11.4571 9.21429C11.4571 9.66429 11.7357 9.84643 12.3821 10.1286L12.7571 10.2893C14.0357 10.8357 14.7536 11.3964 14.7536 12.6536C14.7536 14.0036 13.6893 14.7464 12.2643 14.7464Z" fill="#6CC832"/>
</svg>
