<svg width="1165" height="220" viewBox="0 0 1165 220" fill="none" xmlns="http://www.w3.org/2000/svg">
<rect width="1165" height="220" rx="20" fill="#3F51B5"/>
<path d="M338.273 67.4766L352.922 71.7734C362.036 74.0846 366.594 75.7773 366.594 76.8516C367.635 90.4583 368.612 108.297 369.523 130.367C369.523 131.669 368.742 132.581 367.18 133.102L354.289 136.227H354.094C353.508 136.227 352.466 135.38 350.969 133.688C349.113 132.125 347.876 131.344 347.258 131.344C345.956 136.031 344.523 138.375 342.961 138.375C340.65 137.464 337.785 135.836 334.367 133.492H334.172L333.781 134.078V138.766C333.781 139.807 332.935 140.523 331.242 140.914C323.755 141.044 319.198 141.24 317.57 141.5C315.975 140.882 313.436 139.579 309.953 137.594C307.805 136.747 304.68 134.729 300.578 131.539C297.193 130.172 295.5 128.74 295.5 127.242C295.5 126.233 296.607 109.957 298.82 78.4141C300.578 75.8099 302.401 74.5078 304.289 74.5078C305.949 73.9219 308.488 73.3359 311.906 72.75C311.906 72.5872 312.688 72.3919 314.25 72.1641H314.445C320.533 74.2474 323.853 75.2891 324.406 75.2891H324.602C324.764 75.2891 325.22 74.0521 325.969 71.5781C329.224 69.3971 333.326 68.0299 338.273 67.4766ZM344.523 103.219H343.547C342.44 103.219 340.812 98.7917 338.664 89.9375C337.818 87.2031 337.232 85.8359 336.906 85.8359H336.32C330.559 87.3984 326.392 88.375 323.82 88.7656C323.495 88.7656 322.909 94.4948 322.062 105.953C320.109 118.616 319.133 128.967 319.133 137.008C319.393 137.04 319.523 137.171 319.523 137.398L329.484 137.008C329.745 136.585 329.875 136.259 329.875 136.031C329.875 135.771 329.81 135.641 329.68 135.641C330.526 122.815 331.828 116.305 333.586 116.109H334.367C336.158 116.109 338.436 120.081 341.203 128.023L342.961 130.562H343.352C343.872 127.47 345.305 123.954 347.648 120.016C348.137 118.974 348.918 116.826 349.992 113.57C350.643 112.398 351.424 111.812 352.336 111.812C353.508 111.812 354.094 113.31 354.094 116.305C355.135 123.434 355.656 127.405 355.656 128.219V130.367L355.852 131.734H356.438C359.204 130.953 362.199 130.237 365.422 129.586L365.617 128.609C365.617 126.982 365.422 121.269 365.031 111.471C364.641 101.673 363.859 92.0859 362.688 82.7109C362.427 82.5807 362.232 82.5156 362.102 82.5156C355.721 83.1667 352.531 83.8177 352.531 84.4688C352.531 84.8919 350.969 89.1237 347.844 97.1641C346.997 101.201 345.891 103.219 344.523 103.219ZM401.359 69.2344H402.336C405.201 69.2344 410.669 70.862 418.742 74.1172C420.24 75.1263 424.471 76.8841 431.438 79.3906C432.902 80.4974 435.441 81.9948 439.055 83.8828C445.305 88.2448 448.43 94.4297 448.43 102.438C448.299 104.651 448.234 106.799 448.234 108.883V109.273C447.844 114.417 447.062 118.193 445.891 120.602C443.775 126.07 439.217 131.409 432.219 136.617C430.233 138.668 427.238 140.035 423.234 140.719C420.565 141.24 418.677 141.5 417.57 141.5H417.375C415.617 141.5 412.492 140.784 408 139.352C407.251 139.352 404.582 138.18 399.992 135.836L394.328 130.758C394.133 130.758 392.245 129.326 388.664 126.461C387.427 125.842 384.823 123.759 380.852 120.211C379.029 119.397 376.88 117.118 374.406 113.375C372.714 110.315 371.867 107.646 371.867 105.367V102.242C371.867 100.029 373.234 95.9922 375.969 90.1328C376.717 87.1706 379.517 82.7435 384.367 76.8516C388.762 72.9453 391.822 70.9922 393.547 70.9922C396.9 69.8203 399.504 69.2344 401.359 69.2344ZM396.281 112.594V114.156C396.281 118.062 397.909 123.076 401.164 129.195C404.908 133.036 408.163 135.38 410.93 136.227C413.664 137.138 415.878 137.594 417.57 137.594C420.695 137.594 424.276 136.747 428.312 135.055C434.465 130.074 438.501 126.038 440.422 122.945C443.156 119.527 444.523 112.626 444.523 102.242C444.523 93.974 440.552 88.1797 432.609 84.8594C429.745 82.9062 427.727 81.9297 426.555 81.9297H423.82C418.156 81.9297 412.297 84.9245 406.242 90.9141C402.336 95.6341 399.862 99.6706 398.82 103.023C397.128 106.507 396.281 109.697 396.281 112.594ZM423.82 95.4062H424.016C428.964 96.3177 431.438 97.2943 431.438 98.3359C432.414 98.3359 433.26 101.461 433.977 107.711V108.492C433.977 111.747 432.935 115.003 430.852 118.258C427.401 122.164 424.341 124.117 421.672 124.117H421.477C416.464 124.117 413.404 121.383 412.297 115.914C412.167 114.905 412.102 113.798 412.102 112.594V110.055C412.102 107.092 413.794 102.991 417.18 97.75C419.23 96.1875 421.444 95.4062 423.82 95.4062ZM496.965 67.6719H498.137C498.788 67.6719 501.717 68.9089 506.926 71.3828C507.87 71.7083 510.669 73.2057 515.324 75.875C518.189 76.8516 519.621 78.4792 519.621 80.7578L510.051 128.219C508.879 132.874 508.228 136.259 508.098 138.375C508.098 139.254 502.694 139.97 491.887 140.523C490.259 140.784 488.697 141.109 487.199 141.5H486.613C482.349 140.491 476.359 136.65 468.645 129.977C467.505 128.837 465.682 127.405 463.176 125.68C461.451 124.345 457.089 108.264 450.09 77.4375C450.09 75.5495 453.996 73.5964 461.809 71.5781C464.803 70.1458 467.082 69.4297 468.645 69.4297C469.133 69.4297 470.435 70.1458 472.551 71.5781L477.043 73.1406C477.238 73.1406 477.694 72.3594 478.41 70.7969C479.582 69.3646 482.251 68.6484 486.418 68.6484C489.771 67.9974 493.286 67.6719 496.965 67.6719ZM509.27 83.4922H505.363C504.973 83.4922 504.387 85.7708 503.605 90.3281C502.434 97.1315 501.001 103.772 499.309 110.25C499.309 113.798 498.658 115.816 497.355 116.305H496.184C495.37 116.305 494.589 114.156 493.84 109.859C490.845 98.694 489.087 91.2721 488.566 87.5938C488.306 87.4635 488.111 87.3984 487.98 87.3984C482.284 88.5703 478.638 89.4167 477.043 89.9375V90.1328C477.043 92.0859 479.712 104.586 485.051 127.633C486.223 134.013 487.199 137.203 487.98 137.203L503.996 135.641C504.582 135.641 505.428 132.06 506.535 124.898L515.324 83.8828L514.934 83.1016C513.664 83.362 511.776 83.4922 509.27 83.4922ZM534.758 70.2109H535.344C535.767 70.2109 540.91 72.099 550.773 75.875C552.499 75.875 555.559 76.9167 559.953 79C560.474 79 560.93 80.5625 561.32 83.6875L560.734 107.711C560.865 109.339 560.93 110.315 560.93 110.641C560.799 118.388 560.604 124.703 560.344 129.586L560.734 137.008C559.66 139.352 557.772 140.523 555.07 140.523C554.517 140.751 552.108 141.077 547.844 141.5C542.701 141.5 539.706 140.914 538.859 139.742C535.116 137.659 531.47 135.901 527.922 134.469C526.066 132.613 523.462 130.53 520.109 128.219C519.719 127.34 519.523 126.754 519.523 126.461C519.523 123.206 519.589 118.583 519.719 112.594C519.719 109.306 519.393 100.126 518.742 85.0547V77.8281C518.742 75.3216 520.37 73.6289 523.625 72.75C525.741 71.7409 529.452 70.8945 534.758 70.2109ZM545.695 86.8125V105.172C544.914 118.03 544.523 126.559 544.523 130.758C544.654 133.557 544.719 135.641 544.719 137.008C545.207 137.398 545.663 137.594 546.086 137.594H546.867C553.508 137.203 556.828 136.617 556.828 135.836L556.633 134.859V133.688C556.633 131.832 556.568 130.465 556.438 129.586C556.665 125.875 556.861 119.43 557.023 110.25C556.893 108.622 556.828 107.776 556.828 107.711C557.089 94.9831 557.349 87.2357 557.609 84.4688C557.349 83.8828 557.089 83.5573 556.828 83.4922C549.569 85.1849 545.858 86.2917 545.695 86.8125ZM596.965 68.8438C597.941 69.4948 602.564 70.9271 610.832 73.1406C617.342 75.0286 620.598 76.7214 620.598 78.2188C621.379 79.0977 622.095 82.6784 622.746 88.9609C623.137 89.5469 623.332 90.5885 623.332 92.0859V92.8672C623.332 95.4714 622.03 96.7734 619.426 96.7734C619.426 97.0013 617.212 97.1966 612.785 97.3594L612.395 97.9453V98.1406C612.395 98.5312 612.655 98.7266 613.176 98.7266L615.129 98.5312C617.733 98.5312 619.035 99.7682 619.035 102.242C619.165 110.706 619.621 114.938 620.402 114.938C624.178 116.695 626.066 117.867 626.066 118.453L626.262 119.625C626.262 130.693 625.741 136.227 624.699 136.227C616.594 137.398 608.456 138.961 600.285 140.914C598.918 141.174 596.965 141.37 594.426 141.5C593.514 141.5 591.366 140.328 587.98 137.984C581.405 135.12 575.546 131.865 570.402 128.219C568.84 127.177 568.059 126.005 568.059 124.703C568.059 121.025 568.124 117.77 568.254 114.938C568.124 109.892 568.059 104.618 568.059 99.1172L567.082 88.7656C567.375 79.3255 567.831 74.4427 568.449 74.1172C568.97 73.6615 570.793 73.2057 573.918 72.75C575.839 72.2617 580.135 71.6107 586.809 70.7969C588.469 70.276 591.398 69.7552 595.598 69.2344C595.598 69.0065 596.053 68.8763 596.965 68.8438ZM594.035 86.0312C594.035 120.276 594.426 137.398 595.207 137.398H596.574C598.267 137.398 604.257 136.227 614.543 133.883C619.491 133.427 621.965 132.776 621.965 131.93L622.551 121.383C622.421 120.992 622.29 120.797 622.16 120.797C616.529 121.448 612.557 121.969 610.246 122.359C608.423 122.359 607.512 120.862 607.512 117.867C607.512 117.639 607.382 116.598 607.121 114.742C607.121 113.18 608.228 112.203 610.441 111.812C612.395 111.943 614.022 112.008 615.324 112.008L615.52 111.617C615.259 107.516 615.129 104.586 615.129 102.828L614.738 102.633H614.348C613.436 102.633 612.199 102.763 610.637 103.023C609.204 102.568 608.488 101.786 608.488 100.68V100.289L608.684 99.1172L607.902 96.3828C607.902 94.1693 611.613 93.0625 619.035 93.0625L619.426 92.4766V92.2812C618.775 88.7656 618.254 85.1849 617.863 81.5391H617.668C615.357 81.5391 607.544 82.9062 594.23 85.6406L594.035 86.0312ZM702.922 69.2344C710.702 71.3177 716.691 73.5312 720.891 75.875C722.583 75.875 724.406 76.7865 726.359 78.6094C726.88 79.7161 727.141 80.4323 727.141 80.7578L727.531 104.391C727.271 112.236 727.141 118.03 727.141 121.773V128.219C726.978 132.646 726.457 134.859 725.578 134.859L724.406 135.055H723.82C718.807 135.055 714.576 135.706 711.125 137.008C710.604 137.008 708.586 136.292 705.07 134.859H704.68C704.68 137.594 703.117 138.961 699.992 138.961C697.323 140.003 693.221 140.849 687.688 141.5H686.125C683.879 140.882 680.428 139.124 675.773 136.227C675.09 136.227 672.681 134.794 668.547 131.93C664.38 129.684 662.297 128.056 662.297 127.047C662.297 126.624 662.232 125.517 662.102 123.727C662.102 121.643 662.492 114.156 663.273 101.266V91.1094C663.273 86.8125 663.404 82.9062 663.664 79.3906C663.534 78.5768 663.469 77.6654 663.469 76.6562C663.469 75.1914 666.268 74.0195 671.867 73.1406C674.96 72.099 677.368 71.5781 679.094 71.5781C679.68 71.5781 681.568 72.4896 684.758 74.3125H685.734C685.734 72.099 687.492 70.9922 691.008 70.9922C694.165 70.7318 698.137 70.1458 702.922 69.2344ZM712.688 85.6406C712.688 87.8542 712.948 93.1276 713.469 101.461C713.469 102.893 710.604 103.609 704.875 103.609H702.531C700.578 103.609 699.602 101.396 699.602 96.9688V88.5703C699.602 86.7474 699.341 85.8359 698.82 85.8359H696.867C688.143 86.7799 683.781 87.4961 683.781 87.9844V95.4062C683.781 98.1081 684.367 104.098 685.539 113.375C685.539 114.026 685.669 117.997 685.93 125.289C685.93 125.517 685.865 126.689 685.734 128.805C685.93 134.664 686.255 137.594 686.711 137.594H686.906C690.585 137.594 695.142 136.617 700.578 134.664V119.234C700.578 117.021 703.573 115.914 709.562 115.914C711.646 115.914 712.688 117.672 712.688 121.188C712.688 125.322 713.013 128.967 713.664 132.125H714.055L722.844 130.953C723.104 130.432 723.234 129.716 723.234 128.805V121.773C723.234 118.453 723.365 112.464 723.625 103.805C723.625 99.1172 723.43 92.0859 723.039 82.7109C722.779 82.5807 722.583 82.5156 722.453 82.5156C722.16 82.5156 718.905 83.5573 712.688 85.6406ZM767.766 66.9883C771.346 67.2812 776.896 69.2507 784.416 72.8965C791.936 76.5423 795.695 79.7161 795.695 82.418L795.891 101.363C795.272 118.876 794.296 128.707 792.961 130.855C791.659 134.794 787.948 138.31 781.828 141.402C775.35 143.095 771.314 143.941 769.719 143.941H766.789C764.738 143.941 762.199 142.835 759.172 140.621C750.546 136.845 745.467 133.98 743.938 132.027C743.938 131.832 742.245 130.4 738.859 127.73C735.083 122.945 733.195 120.146 733.195 119.332C732.674 117.542 732.414 115.784 732.414 114.059C732.414 108.46 732.479 99.9961 732.609 88.668C732.479 84.4036 732.414 81.0833 732.414 78.707C732.414 76.9167 737.492 75.4193 747.648 74.2148C748.007 73.8893 748.658 73.694 749.602 73.6289C749.797 73.6289 751.164 74.1497 753.703 75.1914C754.582 71.9362 755.754 70.3086 757.219 70.3086C760.865 68.9414 764.38 67.8346 767.766 66.9883ZM781.633 87.6914C781.763 93.681 781.828 98.3034 781.828 101.559V105.855C782.089 109.013 782.219 110.771 782.219 111.129V113.668C782.219 120.862 781.242 125.224 779.289 126.754L774.992 128.121H774.016C772.062 128.121 771.086 124.475 771.086 117.184C770.826 115.523 770.695 113.961 770.695 112.496V109.176C771.346 98.4661 771.672 91.9557 771.672 89.6445C771.411 89.6445 771.281 89.5143 771.281 89.2539L758.195 92.1836L758 92.5742C758 93.2904 758.065 95.9596 758.195 100.582C758.195 102.535 758.13 104.814 758 107.418C758.13 110.022 758.195 112.301 758.195 114.254C757.935 120.667 757.805 124.508 757.805 125.777C757.805 129.651 759.693 134.013 763.469 138.863C764.771 139.645 765.812 140.035 766.594 140.035H770.5C778.931 138.668 784.009 136.715 785.734 134.176C788.859 131.799 790.422 128.544 790.422 124.41C791.464 115.491 791.984 107.743 791.984 101.168V100.387L791.594 85.1523C791.333 85.1523 791.203 85.0221 791.203 84.7617C785.376 85.9987 782.251 86.8451 781.828 87.3008L781.633 87.6914ZM825.09 68.2578C830.201 68.2578 837.362 70.9922 846.574 76.4609L857.121 83.2969C859.758 86.0312 861.385 89.0911 862.004 92.4766C862.264 92.4766 862.46 93.388 862.59 95.2109C862.59 98.4336 861.223 101.298 858.488 103.805L857.902 104.586V104.977C861.418 108.264 863.176 113.342 863.176 120.211C863.176 122.815 861.548 127.112 858.293 133.102C853.28 137.008 847.486 138.961 840.91 138.961C833.879 140.654 828.671 141.5 825.285 141.5C821.086 140.035 816.008 137.105 810.051 132.711C804.452 130.074 801.652 128.056 801.652 126.656V125.875C801.652 115.165 801.001 102.73 799.699 88.5703C800.057 78.5117 800.643 73.3685 801.457 73.1406C809.66 69.8854 817.473 68.2578 824.895 68.2578H825.09ZM824.699 86.4219C824.699 92.4115 825.025 99.3125 825.676 107.125C825.546 115.296 825.48 121.155 825.48 124.703C825.48 133.167 825.806 137.398 826.457 137.398H828.215C829.224 137.398 833.326 136.682 840.52 135.25C845.923 134.729 849.829 133.818 852.238 132.516C855.103 130.986 856.535 129.488 856.535 128.023C857.837 125.908 858.814 123.043 859.465 119.43C858.977 114.938 858.195 111.747 857.121 109.859C855.656 108.297 854.159 107.19 852.629 106.539C852.368 105.693 852.238 105.237 852.238 105.172C852.238 104.879 853.866 103.056 857.121 99.7031C858 98.6289 858.521 97.3268 858.684 95.7969V95.0156C857.577 90.1979 856.014 87.138 853.996 85.8359C852.401 84.7943 850.057 84.2734 846.965 84.2734H837.395C833.944 84.2734 829.777 84.8594 824.895 86.0312L824.699 86.4219ZM839.934 92.2812C845.012 92.2812 847.551 94.1042 847.551 97.75V99.3125C847.16 102.047 845.402 103.805 842.277 104.586C841.561 104.716 840.975 104.781 840.52 104.781H839.348C838.046 104.781 837.395 103.74 837.395 101.656V96.7734C837.395 93.7786 838.241 92.2812 839.934 92.2812ZM839.738 111.617C844.426 111.617 847.29 113.375 848.332 116.891C848.853 118.193 849.113 119.234 849.113 120.016C848.658 122.587 847.681 124.54 846.184 125.875C844.654 126.786 843.156 127.242 841.691 127.242H841.496C839.283 127.242 838.176 125.745 838.176 122.75C838.176 120.081 838.046 117.086 837.785 113.766C838.078 112.333 838.729 111.617 839.738 111.617Z" fill="white"/>
</svg>
