<svg width="1165" height="220" viewBox="0 0 1165 220" fill="none" xmlns="http://www.w3.org/2000/svg">
<rect width="1165" height="220" rx="20" fill="#EDF7E1"/>
<path d="M351.5 103.574V71.4426H359.536L376.174 89.3902H376.278V71.4426H385.292V103.574H377.771L360.618 84.9377H360.515V103.574H351.5Z" fill="#2E6A52"/>
<path d="M409.758 104.033C405.912 104.033 402.58 103.344 399.764 101.967C396.983 100.56 394.836 98.6164 393.325 96.1377C391.814 93.659 391.059 90.7672 391.059 87.4623C391.059 84.1574 391.831 81.2809 393.377 78.8328C394.957 76.3541 397.154 74.4262 399.97 73.0492C402.786 71.6721 406.049 70.9836 409.758 70.9836C413.604 70.9836 416.918 71.6874 419.7 73.0951C422.516 74.4721 424.679 76.4 426.19 78.8787C427.701 81.3268 428.457 84.2033 428.457 87.5082C428.457 90.8131 427.667 93.7049 426.087 96.1836C424.542 98.6623 422.361 100.59 419.545 101.967C416.729 103.344 413.467 104.033 409.758 104.033ZM409.758 96.5508C411.681 96.5508 413.329 96.2448 414.703 95.6328C416.111 94.9902 417.21 93.9956 418 92.6492C418.79 91.3027 419.185 89.5738 419.185 87.4623C419.185 85.3508 418.807 83.6372 418.051 82.3213C417.296 81.0055 416.214 80.0415 414.806 79.4295C413.398 78.7869 411.715 78.4656 409.758 78.4656C407.835 78.4656 406.169 78.7869 404.761 79.4295C403.353 80.0415 402.254 81.0055 401.464 82.3213C400.709 83.6372 400.331 85.3661 400.331 87.5082C400.331 89.6197 400.709 91.3486 401.464 92.6951C402.22 94.0109 403.302 94.9902 404.71 95.6328C406.118 96.2448 407.8 96.5508 409.758 96.5508Z" fill="#2E6A52"/>
<path d="M455.631 103.574L446.05 90.6295H439.765L440.332 84.2492H445.947L455.682 71.4426H465.624L453.57 87.0033L466.5 103.574H455.631ZM434.202 103.574V71.4426H443.268V103.574H434.202Z" fill="#2E6A52"/>
<path d="M351.5 148.557V116.426H359.536L376.174 134.374H376.278V116.426H385.292V148.557H377.771L360.618 129.921H360.515V148.557H351.5Z" fill="#2E6A52"/>
<path d="M409.758 149.016C405.912 149.016 402.58 148.328 399.764 146.951C396.983 145.543 394.836 143.6 393.325 141.121C391.814 138.643 391.059 135.751 391.059 132.446C391.059 129.141 391.831 126.264 393.377 123.816C394.957 121.338 397.154 119.41 399.97 118.033C402.786 116.656 406.049 115.967 409.758 115.967C413.604 115.967 416.918 116.671 419.7 118.079C422.516 119.456 424.679 121.384 426.19 123.862C427.701 126.31 428.457 129.187 428.457 132.492C428.457 135.797 427.667 138.689 426.087 141.167C424.542 143.646 422.361 145.574 419.545 146.951C416.729 148.328 413.467 149.016 409.758 149.016ZM409.758 141.534C411.681 141.534 413.329 141.228 414.703 140.616C416.111 139.974 417.21 138.979 418 137.633C418.79 136.286 419.185 134.557 419.185 132.446C419.185 130.334 418.807 128.621 418.051 127.305C417.296 125.989 416.214 125.025 414.806 124.413C413.398 123.77 411.715 123.449 409.758 123.449C407.835 123.449 406.169 123.77 404.761 124.413C403.353 125.025 402.254 125.989 401.464 127.305C400.709 128.621 400.331 130.35 400.331 132.492C400.331 134.603 400.709 136.332 401.464 137.679C402.22 138.995 403.302 139.974 404.71 140.616C406.118 141.228 407.8 141.534 409.758 141.534Z" fill="#2E6A52"/>
<path d="M455.631 148.557L446.05 135.613H439.765L440.332 129.233H445.947L455.682 116.426H465.624L453.57 131.987L466.5 148.557H455.631ZM434.202 148.557V116.426H443.268V148.557H434.202Z" fill="#2E6A52"/>
<path d="M351.5 58.5902V26.459H359.536L376.174 44.4066H376.278V26.459H385.292V58.5902H377.771L360.618 39.9541H360.515V58.5902H351.5Z" fill="#8DB099"/>
<path d="M409.758 59.0492C405.912 59.0492 402.58 58.3607 399.764 56.9836C396.983 55.576 394.836 53.6328 393.325 51.1541C391.814 48.6754 391.059 45.7836 391.059 42.4787C391.059 39.1738 391.831 36.2973 393.377 33.8492C394.957 31.3705 397.154 29.4426 399.97 28.0656C402.786 26.6885 406.049 26 409.758 26C413.604 26 416.918 26.7038 419.7 28.1115C422.516 29.4885 424.679 31.4164 426.19 33.8951C427.701 36.3432 428.457 39.2197 428.457 42.5246C428.457 45.8295 427.667 48.7213 426.087 51.2C424.542 53.6787 422.361 55.6066 419.545 56.9836C416.729 58.3607 413.467 59.0492 409.758 59.0492ZM409.758 51.5672C411.681 51.5672 413.329 51.2612 414.703 50.6492C416.111 50.0066 417.21 49.012 418 47.6656C418.79 46.3191 419.185 44.5902 419.185 42.4787C419.185 40.3672 418.807 38.6536 418.051 37.3377C417.296 36.0219 416.214 35.0579 414.806 34.4459C413.398 33.8033 411.715 33.482 409.758 33.482C407.835 33.482 406.169 33.8033 404.761 34.4459C403.353 35.0579 402.254 36.0219 401.464 37.3377C400.709 38.6536 400.331 40.3825 400.331 42.5246C400.331 44.6361 400.709 46.365 401.464 47.7115C402.22 49.0273 403.302 50.0066 404.71 50.6492C406.118 51.2612 407.8 51.5672 409.758 51.5672Z" fill="#8DB099"/>
<path d="M455.631 58.5902L446.05 45.6459H439.765L440.332 39.2656H445.947L455.682 26.459H465.624L453.57 42.0197L466.5 58.5902H455.631ZM434.202 58.5902V26.459H443.268V58.5902H434.202Z" fill="#8DB099"/>
<path d="M351.5 193.541V161.41H359.536L376.174 179.357H376.278V161.41H385.292V193.541H377.771L360.618 174.905H360.515V193.541H351.5Z" fill="#8DB099"/>
<path d="M409.758 194C405.912 194 402.58 193.311 399.764 191.934C396.983 190.527 394.836 188.584 393.325 186.105C391.814 183.626 391.059 180.734 391.059 177.43C391.059 174.125 391.831 171.248 393.377 168.8C394.957 166.321 397.154 164.393 399.97 163.016C402.786 161.639 406.049 160.951 409.758 160.951C413.604 160.951 416.918 161.655 419.7 163.062C422.516 164.439 424.679 166.367 426.19 168.846C427.701 171.294 428.457 174.17 428.457 177.475C428.457 180.78 427.667 183.672 426.087 186.151C424.542 188.63 422.361 190.557 419.545 191.934C416.729 193.311 413.467 194 409.758 194ZM409.758 186.518C411.681 186.518 413.329 186.212 414.703 185.6C416.111 184.957 417.21 183.963 418 182.616C418.79 181.27 419.185 179.541 419.185 177.43C419.185 175.318 418.807 173.604 418.051 172.289C417.296 170.973 416.214 170.009 414.806 169.397C413.398 168.754 411.715 168.433 409.758 168.433C407.835 168.433 406.169 168.754 404.761 169.397C403.353 170.009 402.254 170.973 401.464 172.289C400.709 173.604 400.331 175.333 400.331 177.475C400.331 179.587 400.709 181.316 401.464 182.662C402.22 183.978 403.302 184.957 404.71 185.6C406.118 186.212 407.8 186.518 409.758 186.518Z" fill="#8DB099"/>
<path d="M455.631 193.541L446.05 180.597H439.765L440.332 174.216H445.947L455.682 161.41H465.624L453.57 176.97L466.5 193.541H455.631ZM434.202 193.541V161.41H443.268V193.541H434.202Z" fill="#8DB099"/>
<path d="M518.225 118.5V101H531.925V104.8H522.625V107.85H530.925V111.325H522.625V114.675H532.1V118.5H518.225ZM532.981 118.5L537.531 111.925L533.456 105.6H538.356L540.381 108.725L542.456 105.6H547.231L542.906 111.775L547.356 118.5H542.331L540.131 115L537.781 118.5H532.981ZM548.858 123.925V105.6H552.008L552.283 106.875L553.433 106.275C553.95 105.992 554.5 105.775 555.083 105.625C555.683 105.458 556.225 105.375 556.708 105.375C557.858 105.375 558.85 105.667 559.683 106.25C560.533 106.817 561.192 107.6 561.658 108.6C562.125 109.6 562.358 110.75 562.358 112.05C562.358 112.933 562.233 113.775 561.983 114.575C561.75 115.375 561.392 116.092 560.908 116.725C560.425 117.342 559.825 117.825 559.108 118.175C558.408 118.525 557.583 118.7 556.633 118.7C556.167 118.7 555.683 118.642 555.183 118.525C554.683 118.408 554.208 118.242 553.758 118.025L553.108 117.7V123.375L548.858 123.925ZM555.408 115.075C555.975 115.075 556.458 114.967 556.858 114.75C557.258 114.533 557.558 114.208 557.758 113.775C557.958 113.325 558.058 112.75 558.058 112.05C558.058 111.35 557.967 110.783 557.783 110.35C557.6 109.9 557.308 109.567 556.908 109.35C556.508 109.133 556.008 109.025 555.408 109.025C555.142 109.025 554.875 109.067 554.608 109.15C554.342 109.217 554.058 109.317 553.758 109.45L553.108 109.725V114.5L553.733 114.725C554.033 114.842 554.325 114.933 554.608 115C554.892 115.05 555.158 115.075 555.408 115.075ZM568.778 118.7C567.278 118.7 566.203 118.367 565.553 117.7C564.903 117.033 564.578 116.117 564.578 114.95V100.05L568.828 99.25V114.25C568.828 114.583 568.936 114.842 569.153 115.025C569.37 115.192 569.711 115.275 570.178 115.275C570.278 115.275 570.395 115.275 570.528 115.275C570.661 115.258 570.803 115.242 570.953 115.225L570.828 118.325C570.528 118.442 570.195 118.533 569.828 118.6C569.461 118.667 569.111 118.7 568.778 118.7ZM578.718 118.725C577.284 118.725 576.059 118.45 575.043 117.9C574.026 117.333 573.234 116.55 572.668 115.55C572.118 114.55 571.843 113.383 571.843 112.05C571.843 110.7 572.134 109.525 572.718 108.525C573.301 107.525 574.109 106.75 575.143 106.2C576.176 105.65 577.393 105.375 578.793 105.375C580.209 105.375 581.426 105.658 582.443 106.225C583.476 106.775 584.268 107.55 584.818 108.55C585.368 109.55 585.643 110.717 585.643 112.05C585.643 113.383 585.351 114.55 584.768 115.55C584.184 116.55 583.376 117.333 582.343 117.9C581.309 118.45 580.101 118.725 578.718 118.725ZM578.743 115.2C579.276 115.2 579.734 115.092 580.118 114.875C580.501 114.642 580.793 114.292 580.993 113.825C581.193 113.358 581.293 112.767 581.293 112.05C581.293 111.317 581.193 110.725 580.993 110.275C580.809 109.808 580.526 109.467 580.143 109.25C579.759 109.017 579.293 108.9 578.743 108.9C578.226 108.9 577.768 109.017 577.368 109.25C576.984 109.467 576.684 109.808 576.468 110.275C576.251 110.725 576.143 111.317 576.143 112.05C576.143 112.767 576.251 113.358 576.468 113.825C576.684 114.292 576.984 114.642 577.368 114.875C577.751 115.092 578.209 115.2 578.743 115.2ZM587.97 118.5V105.6H591.07L591.495 107.25L592.47 106.475C592.936 106.108 593.42 105.833 593.92 105.65C594.436 105.467 594.928 105.375 595.395 105.375C595.595 105.358 595.803 105.392 596.02 105.475C596.253 105.542 596.478 105.658 596.695 105.825V109.375C596.211 109.392 595.745 109.433 595.295 109.5C594.845 109.55 594.345 109.667 593.795 109.85L592.22 110.275V118.5H587.97ZM604.898 118.7C603.581 118.7 602.373 118.45 601.273 117.95C600.19 117.433 599.315 116.683 598.648 115.7C597.998 114.7 597.673 113.492 597.673 112.075C597.673 111.008 597.856 110.058 598.223 109.225C598.606 108.392 599.115 107.692 599.748 107.125C600.398 106.542 601.14 106.108 601.973 105.825C602.806 105.525 603.681 105.375 604.598 105.375C605.931 105.375 607.056 105.658 607.973 106.225C608.906 106.775 609.615 107.55 610.098 108.55C610.598 109.55 610.848 110.717 610.848 112.05V113.125H602.048C602.165 113.658 602.381 114.092 602.698 114.425C603.015 114.742 603.406 114.975 603.873 115.125C604.356 115.275 604.898 115.35 605.498 115.35C605.915 115.35 606.356 115.317 606.823 115.25C607.306 115.183 607.798 115.083 608.298 114.95L609.523 114.65L610.598 117.275L609.398 117.775C608.648 118.092 607.89 118.325 607.123 118.475C606.356 118.625 605.615 118.7 604.898 118.7ZM602.048 110.6H607.048C606.948 109.9 606.706 109.375 606.323 109.025C605.94 108.658 605.39 108.475 604.673 108.475C604.223 108.475 603.815 108.55 603.448 108.7C603.098 108.85 602.806 109.083 602.573 109.4C602.34 109.717 602.165 110.117 602.048 110.6ZM612.299 121.425L613.624 113.95H617.974L615.449 121.425H612.299ZM634.138 118.75C633.222 118.75 632.322 118.683 631.438 118.55C630.555 118.417 629.688 118.233 628.838 118L627.313 117.575L628.013 114.2L629.988 114.5C630.572 114.583 631.247 114.667 632.013 114.75C632.797 114.817 633.563 114.85 634.313 114.85C635.18 114.85 635.805 114.733 636.188 114.5C636.588 114.25 636.788 113.9 636.788 113.45C636.788 113.2 636.722 112.983 636.588 112.8C636.455 112.617 636.147 112.425 635.663 112.225C635.197 112.008 634.463 111.75 633.463 111.45C632.08 111.033 630.98 110.608 630.163 110.175C629.347 109.725 628.763 109.183 628.413 108.55C628.08 107.9 627.913 107.075 627.913 106.075C627.913 104.825 628.222 103.808 628.838 103.025C629.472 102.242 630.33 101.667 631.413 101.3C632.513 100.933 633.747 100.75 635.113 100.75C635.88 100.75 636.663 100.808 637.463 100.925C638.28 101.042 639.088 101.208 639.888 101.425L641.088 101.725L640.463 105.05L638.563 104.825C638.113 104.775 637.597 104.725 637.013 104.675C636.447 104.625 635.813 104.6 635.113 104.6C634.197 104.6 633.513 104.717 633.063 104.95C632.613 105.183 632.388 105.542 632.388 106.025C632.388 106.258 632.463 106.467 632.613 106.65C632.78 106.817 633.122 106.992 633.638 107.175C634.172 107.342 634.972 107.575 636.038 107.875C637.405 108.208 638.48 108.608 639.263 109.075C640.047 109.542 640.605 110.092 640.938 110.725C641.272 111.342 641.438 112.092 641.438 112.975C641.438 114.292 641.113 115.375 640.463 116.225C639.813 117.075 638.938 117.708 637.838 118.125C636.738 118.542 635.505 118.75 634.138 118.75ZM648.25 118.7C646.734 118.7 645.617 118.292 644.9 117.475C644.184 116.658 643.825 115.583 643.825 114.25V105.6H648.075V113.125C648.075 113.758 648.225 114.208 648.525 114.475C648.825 114.742 649.284 114.875 649.9 114.875C650.15 114.875 650.384 114.85 650.6 114.8C650.817 114.733 651.034 114.658 651.25 114.575L651.95 114.25V105.6H656.225V118.5H653.05L652.525 116.225L653.35 116.825L651.8 117.675C651.184 117.992 650.575 118.242 649.975 118.425C649.392 118.608 648.817 118.7 648.25 118.7ZM659.137 118.5V105.6H662.237L662.662 107.25L663.637 106.475C664.103 106.108 664.587 105.833 665.087 105.65C665.603 105.467 666.095 105.375 666.562 105.375C666.762 105.358 666.97 105.392 667.187 105.475C667.42 105.542 667.645 105.658 667.862 105.825V109.375C667.378 109.392 666.912 109.433 666.462 109.5C666.012 109.55 665.512 109.667 664.962 109.85L663.387 110.275V118.5H659.137ZM673.786 118.65L668.361 105.6H673.111L675.911 113.525H675.986L678.736 105.6H683.186L677.836 118.65H673.786ZM684.869 118.5V105.6H689.119V118.5H684.869ZM686.994 103.8C686.527 103.8 686.086 103.683 685.669 103.45C685.269 103.217 684.952 102.908 684.719 102.525C684.486 102.142 684.369 101.725 684.369 101.275C684.369 100.808 684.486 100.392 684.719 100.025C684.952 99.6417 685.269 99.3333 685.669 99.1C686.086 98.8667 686.527 98.75 686.994 98.75C687.477 98.75 687.919 98.8667 688.319 99.1C688.719 99.3333 689.036 99.6417 689.269 100.025C689.502 100.392 689.619 100.808 689.619 101.275C689.619 101.725 689.502 102.142 689.269 102.525C689.036 102.908 688.719 103.217 688.319 103.45C687.919 103.683 687.477 103.8 686.994 103.8ZM696.222 118.65L690.797 105.6H695.547L698.347 113.525H698.422L701.172 105.6H705.622L700.272 118.65H696.222ZM712.954 118.7C711.638 118.7 710.429 118.45 709.329 117.95C708.246 117.433 707.371 116.683 706.704 115.7C706.054 114.7 705.729 113.492 705.729 112.075C705.729 111.008 705.913 110.058 706.279 109.225C706.663 108.392 707.171 107.692 707.804 107.125C708.454 106.542 709.196 106.108 710.029 105.825C710.863 105.525 711.738 105.375 712.654 105.375C713.988 105.375 715.113 105.658 716.029 106.225C716.963 106.775 717.671 107.55 718.154 108.55C718.654 109.55 718.904 110.717 718.904 112.05V113.125H710.104C710.221 113.658 710.438 114.092 710.754 114.425C711.071 114.742 711.463 114.975 711.929 115.125C712.413 115.275 712.954 115.35 713.554 115.35C713.971 115.35 714.413 115.317 714.879 115.25C715.363 115.183 715.854 115.083 716.354 114.95L717.579 114.65L718.654 117.275L717.454 117.775C716.704 118.092 715.946 118.325 715.179 118.475C714.413 118.625 713.671 118.7 712.954 118.7ZM710.104 110.6H715.104C715.004 109.9 714.763 109.375 714.379 109.025C713.996 108.658 713.446 108.475 712.729 108.475C712.279 108.475 711.871 108.55 711.504 108.7C711.154 108.85 710.863 109.083 710.629 109.4C710.396 109.717 710.221 110.117 710.104 110.6ZM720.355 121.425L721.68 113.95H726.03L723.505 121.425H720.355ZM740.745 118.5V104.85H735.12V101H750.745V104.85H745.145V118.5H740.745ZM752.862 118.5V100.05L757.112 99.25V106.5L757.512 106.3C758.062 106 758.62 105.767 759.187 105.6C759.754 105.433 760.312 105.358 760.862 105.375C761.929 105.375 762.795 105.575 763.462 105.975C764.145 106.358 764.654 106.892 764.987 107.575C765.337 108.242 765.512 109 765.512 109.85V118.5H761.237V110.95C761.237 110.383 761.095 109.95 760.812 109.65C760.529 109.35 760.02 109.2 759.287 109.2C759.02 109.2 758.762 109.233 758.512 109.3C758.279 109.367 758.037 109.45 757.787 109.55L757.112 109.8V118.5H752.862ZM768.267 118.5V105.6H771.367L771.792 107.25L772.767 106.475C773.234 106.108 773.717 105.833 774.217 105.65C774.734 105.467 775.226 105.375 775.692 105.375C775.892 105.358 776.101 105.392 776.317 105.475C776.551 105.542 776.776 105.658 776.992 105.825V109.375C776.509 109.392 776.042 109.433 775.592 109.5C775.142 109.55 774.642 109.667 774.092 109.85L772.517 110.275V118.5H768.267ZM778.717 118.5V105.6H782.967V118.5H778.717ZM780.842 103.8C780.375 103.8 779.933 103.683 779.517 103.45C779.117 103.217 778.8 102.908 778.567 102.525C778.333 102.142 778.217 101.725 778.217 101.275C778.217 100.808 778.333 100.392 778.567 100.025C778.8 99.6417 779.117 99.3333 779.517 99.1C779.933 98.8667 780.375 98.75 780.842 98.75C781.325 98.75 781.767 98.8667 782.167 99.1C782.567 99.3333 782.883 99.6417 783.117 100.025C783.35 100.392 783.467 100.808 783.467 101.275C783.467 101.725 783.35 102.142 783.117 102.525C782.883 102.908 782.567 103.217 782.167 103.45C781.767 103.683 781.325 103.8 780.842 103.8ZM790.07 118.65L784.645 105.6H789.395L792.195 113.525H792.27L795.02 105.6H799.47L794.12 118.65H790.07ZM806.802 118.7C805.485 118.7 804.277 118.45 803.177 117.95C802.094 117.433 801.219 116.683 800.552 115.7C799.902 114.7 799.577 113.492 799.577 112.075C799.577 111.008 799.76 110.058 800.127 109.225C800.51 108.392 801.019 107.692 801.652 107.125C802.302 106.542 803.044 106.108 803.877 105.825C804.71 105.525 805.585 105.375 806.502 105.375C807.835 105.375 808.96 105.658 809.877 106.225C810.81 106.775 811.519 107.55 812.002 108.55C812.502 109.55 812.752 110.717 812.752 112.05V113.125H803.952C804.069 113.658 804.285 114.092 804.602 114.425C804.919 114.742 805.31 114.975 805.777 115.125C806.26 115.275 806.802 115.35 807.402 115.35C807.819 115.35 808.26 115.317 808.727 115.25C809.21 115.183 809.702 115.083 810.202 114.95L811.427 114.65L812.502 117.275L811.302 117.775C810.552 118.092 809.794 118.325 809.027 118.475C808.26 118.625 807.519 118.7 806.802 118.7ZM803.952 110.6H808.952C808.852 109.9 808.61 109.375 808.227 109.025C807.844 108.658 807.294 108.475 806.577 108.475C806.127 108.475 805.719 108.55 805.352 108.7C805.002 108.85 804.71 109.083 804.477 109.4C804.244 109.717 804.069 110.117 803.952 110.6Z" fill="#2E6A52"/>
</svg>
