<svg width="18" height="18" viewBox="0 0 18 18" fill="none" xmlns="http://www.w3.org/2000/svg">
<g id="mynaui:pen">
<path id="Vector" d="M5.72249 5.72231L7.97699 7.97681M2.28149 3.25481L4.24349 10.1226C4.82699 12.1648 6.44324 13.5726 8.56649 13.5726C8.88568 13.5717 9.20374 13.5345 9.51449 13.4616C9.80849 13.3941 10.1235 13.4608 10.3372 13.6738L12.1822 15.5188C12.4897 15.8263 12.9885 15.8263 13.296 15.5188L15.519 13.2951C15.5922 13.2219 15.6503 13.1351 15.69 13.0394C15.7296 12.9438 15.7501 12.8413 15.7501 12.7378C15.7501 12.6343 15.7296 12.5318 15.69 12.4362C15.6503 12.3406 15.5922 12.2537 15.519 12.1806L13.6777 10.3393C13.4647 10.1263 13.398 9.81206 13.4647 9.51881C13.5362 9.20681 13.5725 8.88931 13.5735 8.56631C13.5735 6.44231 12.1657 4.82606 10.1235 4.24256L3.25574 2.28131C3.12054 2.24233 2.97737 2.24029 2.84111 2.27539C2.70485 2.3105 2.58049 2.38147 2.48096 2.48093C2.38143 2.58038 2.31036 2.70469 2.27515 2.84092C2.23994 2.97715 2.24187 3.12033 2.28074 3.25556" stroke="#6CC832" stroke-width="1.125" stroke-linecap="round" stroke-linejoin="round"/>
</g>
</svg>
