<svg width="18" height="18" viewBox="0 0 18 18" fill="none" xmlns="http://www.w3.org/2000/svg">
<g clip-path="url(#clip0_480_6)">
<mask id="mask0_480_6" style="mask-type:luminance" maskUnits="userSpaceOnUse" x="0" y="0" width="18" height="18">
<path d="M0 0H18V18H0V0Z" fill="white"/>
</mask>
<g mask="url(#mask0_480_6)">
<path d="M18 8.76675C18 7.57425 16.5067 6.444 14.217 5.7435C14.7457 3.41025 14.511 1.55325 13.476 0.9585C13.2251 0.818211 12.9414 0.747522 12.654 0.75375V1.57125C12.8227 1.57125 12.9585 1.605 13.0725 1.66725C13.5713 1.95375 13.788 3.04275 13.6193 4.4445C13.5788 4.7895 13.5128 5.1525 13.4318 5.523C12.6648 5.33886 11.8867 5.20532 11.1023 5.12325C10.6346 4.47866 10.1248 3.86582 9.576 3.28875C10.7722 2.17725 11.895 1.56825 12.6585 1.56825V0.75C11.649 0.75 10.3282 1.46925 8.9925 2.7165C7.6575 1.4775 6.336 0.765 5.32725 0.765V1.5825C6.087 1.5825 7.2135 2.1885 8.40975 3.2925C7.896 3.8325 7.38225 4.4445 6.894 5.12325C6.10793 5.20415 5.32834 5.33897 4.56075 5.52675C4.47675 5.15975 4.413 4.80525 4.3695 4.46325C4.197 3.06075 4.41 1.97175 4.90575 1.68225C5.01525 1.61625 5.1585 1.58625 5.32725 1.58625V0.76875C5.01975 0.76875 4.74 0.83475 4.4985 0.9735C3.46725 1.56825 3.23625 3.42075 3.768 5.74725C1.48575 6.45225 0 7.578 0 8.76675C0 9.95925 1.49325 11.0895 3.783 11.7892C3.25425 14.1232 3.489 15.9803 4.524 16.5743C4.7625 16.7138 5.0415 16.7797 5.349 16.7797C6.3585 16.7797 7.67925 16.0605 9.015 14.8132C10.35 16.053 11.6707 16.7648 12.6802 16.7648C12.9697 16.7702 13.2556 16.6993 13.509 16.5593C14.5402 15.9653 14.7713 14.1128 14.2395 11.7863C16.5143 11.0858 18 9.9555 18 8.76675ZM13.2225 6.3195C13.08 6.8099 12.9148 7.29342 12.7275 7.7685C12.4214 7.17179 12.0847 6.59127 11.7188 6.02925C12.2407 6.10575 12.7423 6.2025 13.2233 6.3195M11.5432 10.227C11.2685 10.7066 10.9735 11.1742 10.659 11.6288C9.55818 11.7256 8.45104 11.7269 7.35 11.6325C6.7186 10.7303 6.16629 9.77525 5.69925 8.778C6.16523 7.77822 6.71521 6.81978 7.34325 5.913C8.4438 5.81595 9.55069 5.81444 10.6515 5.9085C10.9565 6.346 11.2525 6.811 11.5395 7.3035C11.818 7.784 12.0725 8.2705 12.303 8.763C12.0697 9.26112 11.8163 9.74952 11.5432 10.227ZM12.7275 9.75C12.9255 10.242 13.095 10.7332 13.2338 11.2102C12.7538 11.328 12.2468 11.427 11.7225 11.5035C12.0865 10.9361 12.4219 10.3509 12.7275 9.75ZM9.0075 13.665C8.6655 13.312 8.3255 12.9205 7.9875 12.4905C8.3175 12.5055 8.655 12.5167 8.99625 12.5167C9.34175 12.5172 9.68175 12.5085 10.0162 12.4905C9.68625 12.9202 9.345 13.3125 9.0075 13.665ZM6.2775 11.5035C5.77179 11.4303 5.26975 11.3337 4.773 11.214C4.90875 10.7407 5.0775 10.2525 5.268 9.765C5.41875 10.0575 5.577 10.3515 5.7495 10.6455C5.922 10.939 6.098 11.225 6.2775 11.5035ZM8.98875 3.8685C9.33075 4.2215 9.67075 4.613 10.0088 5.043C9.67875 5.028 9.34125 5.01675 9 5.01675C8.6545 5.01625 8.3145 5.025 7.98 5.043C8.31 4.61325 8.65125 4.221 8.98875 3.8685ZM6.27375 6.03C5.90988 6.59619 5.57446 7.18016 5.26875 7.77975C5.07621 7.30158 4.90725 6.81424 4.7625 6.3195C5.2425 6.2055 5.7495 6.1065 6.27375 6.03ZM2.9535 10.623C1.6545 10.0695 0.8145 9.34275 0.8145 8.76675C0.8145 8.19075 1.6545 7.46025 2.9535 6.9105C3.2685 6.77475 3.6135 6.65325 3.96975 6.54C4.179 7.2585 4.45425 8.007 4.79475 8.77425C4.47292 9.49574 4.20103 10.2385 3.981 10.9973C3.63264 10.8892 3.28973 10.7643 2.9535 10.623ZM4.9275 15.8655C4.42875 15.5805 4.212 14.49 4.38075 13.089C4.42125 12.744 4.48725 12.3803 4.56825 12.0098C5.28675 12.186 6.072 12.3218 6.89775 12.4103C7.36536 13.0548 7.87523 13.6677 8.424 14.2448C7.22775 15.3563 6.105 15.9653 5.3415 15.9653C5.19757 15.9658 5.0556 15.9319 4.9275 15.8663M13.6305 13.071C13.803 14.4727 13.59 15.5625 13.0942 15.852C12.9847 15.918 12.8415 15.9473 12.6727 15.9473C11.913 15.9473 10.7865 15.342 9.59025 14.2372C10.137 13.6628 10.6434 13.0514 11.106 12.4072C11.8921 12.3264 12.6717 12.1915 13.4393 12.0037C13.5248 12.3737 13.5885 12.7295 13.6305 13.071ZM15.0427 10.6237C14.7277 10.7595 14.3827 10.881 14.0265 10.9943C13.8022 10.2318 13.5266 9.4853 13.2015 8.76C13.539 7.99725 13.8098 7.2525 14.0153 6.537C14.3793 6.6505 14.723 6.77525 15.0465 6.91125C16.3455 7.46475 17.1855 8.1915 17.1855 8.7675C17.1817 9.3435 16.3417 10.074 15.0427 10.6237Z" fill="#6CC832"/>
<path d="M8.99627 10.4438C9.44104 10.4438 9.86759 10.2672 10.1821 9.95266C10.4966 9.63816 10.6733 9.21161 10.6733 8.76684C10.6733 8.32208 10.4966 7.89552 10.1821 7.58103C9.86759 7.26653 9.44104 7.08984 8.99627 7.08984C8.55151 7.08984 8.12496 7.26653 7.81046 7.58103C7.49596 7.89552 7.31927 8.32208 7.31927 8.76684C7.31927 9.21161 7.49596 9.63816 7.81046 9.95266C8.12496 10.2672 8.55151 10.4438 8.99627 10.4438Z" fill="#6CC832"/>
</g>
</g>
<defs>
<clipPath id="clip0_480_6">
<rect width="18" height="18" fill="white"/>
</clipPath>
</defs>
</svg>
